<svg xmlns="http://www.w3.org/2000/svg" xmlns:xlink="http://www.w3.org/1999/xlink" width="1200" zoomAndPan="magnify" viewBox="0 0 900 899.99999" height="1200" preserveAspectRatio="xMidYMid meet" version="1.0"><defs><clipPath id="a31e28d1dc"><path d="M 90 90 L 819 90 L 819 764 L 90 764 Z M 90 90 " clip-rule="nonzero"/></clipPath></defs><rect x="-90" width="1080" fill="#ffffff" y="-89.999999" height="1079.999988" fill-opacity="1"/><rect x="-90" width="1080" fill="#ffffff" y="-89.999999" height="1079.999988" fill-opacity="1"/><path fill="#cb8eff" d="M 629.847656 256.664062 L 629.300781 256.769531 C 628.230469 257.0625 627.28125 257.890625 626.449219 259.246094 C 625.15625 261.609375 624.347656 263.738281 624.019531 265.628906 C 623.578125 267.851562 623.40625 270.070312 623.511719 272.289062 C 623.617188 273.839844 624.085938 276.414062 624.929688 280.003906 C 625.148438 280.847656 625.546875 282.121094 626.132812 283.828125 L 624.394531 282.992188 C 622.910156 282.320312 621.382812 281.703125 619.8125 281.140625 L 617.429688 280.34375 C 615.816406 279.839844 614.160156 279.390625 612.464844 279 C 610.65625 278.609375 608.738281 278.386719 606.707031 278.332031 L 605.632812 278.371094 C 602.910156 278.566406 601.320312 279.546875 600.859375 281.3125 C 600.890625 282.640625 601.835938 283.878906 603.699219 285.035156 C 604.320312 285.417969 605.039062 285.792969 605.863281 286.15625 L 608.015625 287.097656 C 607.953125 287.105469 609.402344 287.597656 612.367188 288.574219 C 616.691406 289.945312 620.070312 291.003906 622.5 291.746094 L 622.488281 291.75 C 621.386719 292.410156 620.292969 293.21875 619.210938 294.171875 C 616.261719 296.832031 613.835938 299.945312 611.941406 303.507812 C 610.171875 306.863281 609.539062 309.976562 610.046875 312.839844 C 610.101562 313.617188 610.734375 314.558594 611.941406 315.660156 C 612.765625 316.210938 613.503906 316.488281 614.164062 316.488281 C 614.242188 316.488281 614.316406 316.484375 614.394531 316.476562 C 616.621094 316.476562 619.589844 314.984375 623.292969 312.003906 C 626.183594 309.832031 628.816406 306.679688 631.1875 302.554688 C 631.425781 302.136719 631.664062 301.707031 631.898438 301.269531 L 631.90625 301.269531 C 633.246094 304.113281 634.816406 306.546875 636.609375 308.570312 C 639.378906 311.636719 642.15625 313.722656 644.949219 314.824219 C 647.074219 315.609375 649.097656 316.003906 651.019531 316.003906 C 651.851562 316.003906 652.664062 315.929688 653.457031 315.78125 C 654.972656 315.324219 656.25 314.785156 657.292969 314.175781 L 658.683594 313.199219 L 659.714844 312.109375 L 660.394531 310.90625 L 660.722656 309.59375 L 660.695312 308.160156 C 660.558594 307.171875 660.1875 306.105469 659.578125 304.960938 L 658.566406 303.148438 C 657.785156 301.929688 656.792969 300.695312 655.59375 299.4375 C 654.394531 298.183594 652.988281 296.90625 651.367188 295.613281 C 648.453125 293.28125 644.859375 290.890625 640.585938 288.4375 L 640.578125 288.4375 C 641.984375 287.402344 644.402344 285.710938 647.828125 283.371094 C 648.398438 282.953125 648.925781 282.546875 649.414062 282.152344 C 650.238281 281.46875 650.785156 280.996094 651.050781 280.726562 C 651.460938 280.394531 652.203125 279.550781 653.28125 278.203125 C 654.035156 277.160156 654.46875 276.230469 654.582031 275.40625 L 654.605469 274.808594 C 654.578125 274.453125 654.480469 274.066406 654.3125 273.652344 C 653.714844 272.144531 652.605469 271.390625 650.984375 271.390625 L 650.917969 271.394531 C 646.878906 271.652344 642.472656 274.574219 637.699219 280.167969 C 637.441406 280.496094 637.1875 280.828125 636.945312 281.15625 C 637.070312 276.667969 637.113281 273.722656 637.070312 272.3125 C 637.078125 270.566406 636.816406 268.394531 636.285156 265.800781 C 635.925781 264.472656 635.542969 263.289062 635.132812 262.25 L 634.496094 260.796875 C 634.058594 259.902344 633.59375 259.15625 633.105469 258.550781 C 632.125 257.34375 631.039062 256.710938 629.847656 256.664062 Z M 325.5625 329.113281 L 325.183594 329.136719 C 323.894531 329.371094 322.8125 330.136719 321.945312 331.4375 C 321.640625 331.859375 321.371094 332.332031 321.136719 332.863281 C 320.902344 333.394531 320.707031 333.984375 320.542969 334.628906 L 320.324219 335.636719 C 320.21875 335.914062 320.105469 337.089844 319.988281 339.164062 C 320.019531 340.007812 320.078125 340.839844 320.171875 341.664062 C 320.242188 342.917969 320.667969 344.914062 321.449219 347.648438 C 321.976562 349.289062 322.570312 350.707031 323.230469 351.898438 L 324.296875 353.703125 C 324.957031 354.71875 325.6875 355.660156 326.476562 356.519531 L 326.472656 356.519531 C 323.605469 357.1875 320.847656 358.242188 318.203125 359.671875 C 316.597656 360.539062 315.085938 361.617188 313.667969 362.902344 C 312.96875 363.542969 312.34375 364.179688 311.785156 364.804688 C 310.511719 366.363281 309.832031 367.289062 309.746094 367.585938 C 309.398438 368.191406 309.121094 368.792969 308.914062 369.386719 C 308.476562 370.613281 308.203125 371.863281 308.089844 373.132812 C 307.996094 373.457031 308.070312 374.363281 308.304688 375.847656 C 308.4375 376.433594 308.628906 377.011719 308.878906 377.578125 C 309.253906 378.621094 310.4375 379.863281 312.429688 381.296875 L 313.261719 381.757812 C 313.824219 382.03125 314.402344 382.238281 314.992188 382.375 C 315.582031 382.511719 316.1875 382.582031 316.804688 382.582031 C 322.324219 382.402344 327.367188 378.203125 331.933594 369.984375 C 332.082031 369.726562 332.230469 369.476562 332.378906 369.222656 L 332.382812 369.226562 C 332.367188 369.558594 332.359375 369.882812 332.355469 370.199219 C 332.324219 372.65625 332.558594 375.25 333.054688 377.980469 C 333.398438 379.355469 333.816406 380.617188 334.300781 381.765625 C 334.789062 382.914062 335.347656 383.949219 335.976562 384.875 L 336.972656 386.175781 C 338.371094 387.792969 340.058594 388.960938 342.027344 389.679688 C 342.699219 389.808594 343.234375 389.875 343.632812 389.875 C 343.671875 389.875 343.707031 389.875 343.742188 389.875 C 344.601562 389.875 345.367188 389.707031 346.042969 389.371094 L 346.988281 388.738281 L 347.792969 387.855469 L 348.460938 386.71875 L 348.988281 385.328125 L 349.382812 383.683594 L 349.636719 381.789062 L 349.75 379.644531 L 349.574219 377.042969 L 349.210938 374.511719 L 348.671875 372.074219 L 348.679688 372.074219 C 350.109375 372.304688 351.449219 372.421875 352.699219 372.421875 C 352.9375 372.421875 353.175781 372.417969 353.410156 372.40625 C 353.582031 372.414062 353.75 372.417969 353.921875 372.417969 C 356.890625 372.417969 359.601562 371.511719 362.050781 369.699219 C 364.839844 367.5625 366.453125 364.9375 366.890625 361.816406 C 366.90625 361.269531 366.875 360.742188 366.796875 360.234375 C 366.535156 358.992188 366.324219 358.269531 366.167969 358.066406 C 365.523438 356.71875 364.535156 355.496094 363.199219 354.402344 L 362.503906 353.894531 C 362.023438 353.574219 361.496094 353.285156 360.933594 353.023438 C 360.367188 352.761719 359.761719 352.53125 359.113281 352.332031 C 357.644531 351.890625 356.148438 351.617188 354.621094 351.523438 L 354.613281 351.523438 C 356.730469 349.070312 358.101562 346.804688 358.726562 344.734375 C 359.800781 341.648438 359.800781 338.671875 358.734375 335.796875 C 358.523438 335.296875 358.273438 334.847656 357.984375 334.449219 L 357.515625 333.886719 C 357.1875 333.539062 356.816406 333.238281 356.40625 332.988281 C 356 332.738281 355.550781 332.535156 355.058594 332.386719 C 354.6875 332.222656 354.042969 332.132812 353.125 332.121094 L 351.796875 332.21875 C 350.917969 332.351562 350.046875 332.609375 349.183594 333 L 347.902344 333.683594 C 346.203125 334.726562 344.542969 336.289062 342.921875 338.371094 L 341.714844 340.03125 L 340.359375 342.488281 L 339.179688 344.886719 C 338.683594 345.96875 338.242188 347.03125 337.855469 348.082031 C 336.03125 341.800781 334.445312 337.546875 333.09375 335.316406 C 330.339844 331.261719 327.828125 329.195312 325.5625 329.113281 Z M 739.625 366.589844 L 739.015625 366.613281 C 737.382812 366.746094 735.660156 367.402344 733.847656 368.582031 C 732.203125 369.71875 730.730469 371.066406 729.425781 372.621094 L 727.597656 375.117188 C 724.195312 380.417969 722.316406 387.617188 721.960938 396.703125 C 721.925781 397.984375 721.992188 399.695312 722.164062 401.828125 C 719.652344 399.414062 717.265625 397.324219 715.007812 395.550781 L 710.503906 392.347656 L 706.363281 390.054688 L 702.574219 388.679688 L 699.140625 388.222656 L 698.058594 388.277344 C 696.644531 388.414062 695.339844 388.835938 694.144531 389.535156 C 692.695312 390.535156 691.859375 391.214844 691.636719 391.585938 C 691.632812 391.585938 691.628906 391.582031 691.625 391.582031 C 691.328125 391.582031 690.613281 392.804688 689.476562 395.25 L 688.609375 398.230469 C 687.40625 404.40625 689.414062 411.835938 694.628906 420.519531 L 697.507812 424.96875 L 699.824219 427.769531 C 701.46875 429.570312 703.308594 431.246094 705.339844 432.796875 L 708.539062 435.023438 C 709.082031 435.371094 709.632812 435.710938 710.199219 436.042969 L 710.191406 436.042969 C 709.628906 436.328125 709.023438 436.640625 708.382812 436.976562 C 706.921875 437.816406 705.558594 438.714844 704.292969 439.671875 C 700.234375 442.960938 697.417969 445.546875 695.839844 447.425781 C 694.746094 448.679688 693.65625 450.078125 692.566406 451.613281 C 689.847656 455.699219 688.222656 458.316406 687.683594 459.46875 L 686.066406 462.507812 C 684.53125 466.851562 683.753906 469.300781 683.738281 469.863281 C 683.117188 473.242188 682.890625 475.117188 683.058594 475.484375 C 683.089844 476.542969 683.246094 477.472656 683.519531 478.277344 C 684.429688 481.1875 686.097656 483.523438 688.527344 485.28125 C 689.335938 485.808594 690.226562 486.234375 691.199219 486.554688 C 691.773438 486.859375 693.230469 487.089844 695.574219 487.242188 C 703.625 486.742188 710.988281 483.0625 717.65625 476.199219 C 722.453125 471.285156 727.773438 464.285156 733.621094 455.191406 L 733.632812 455.195312 C 734.289062 457.910156 735.132812 460.355469 736.167969 462.535156 L 737.722656 465.382812 C 738.699219 466.96875 740.113281 468.726562 741.964844 470.65625 C 745.308594 474.152344 748.976562 476.894531 752.96875 478.882812 C 756.964844 480.867188 761.28125 482.097656 765.925781 482.574219 C 766.980469 482.640625 767.960938 482.671875 768.867188 482.671875 C 769.683594 482.671875 770.4375 482.644531 771.128906 482.59375 C 774.851562 482.152344 776.976562 481.761719 777.507812 481.421875 L 779.363281 480.71875 C 780.558594 480.199219 781.660156 479.574219 782.675781 478.84375 C 783.6875 478.117188 784.613281 477.285156 785.449219 476.347656 C 788.164062 473.246094 789.507812 469.984375 789.484375 466.570312 C 789.671875 466.023438 789.316406 464.273438 788.421875 461.328125 L 786.820312 457.695312 L 784.515625 454.21875 L 781.511719 450.902344 L 777.804688 447.738281 L 773.398438 444.734375 C 771.015625 443.265625 768.363281 441.855469 765.449219 440.507812 L 765.4375 440.507812 C 770.285156 437.371094 774.472656 434.269531 778.003906 431.214844 C 780.449219 429.097656 782.574219 427 784.386719 424.917969 L 786.871094 421.816406 C 788.367188 419.753906 789.550781 417.714844 790.414062 415.691406 L 791.726562 411.410156 C 792.414062 408.6875 792.726562 406.21875 792.664062 404.015625 L 792.285156 400.898438 L 791.34375 398.171875 L 789.839844 395.832031 L 787.773438 393.882812 L 785.140625 392.320312 C 782.878906 391.179688 780.222656 390.59375 777.167969 390.566406 L 775.902344 390.597656 C 768.542969 391.167969 761.476562 393.769531 754.699219 398.402344 C 754.566406 397.054688 754.445312 395.804688 754.324219 394.640625 C 753.53125 388.601562 752.734375 384.308594 751.933594 381.761719 C 750.535156 376.96875 748.589844 373.035156 746.105469 369.960938 C 744.132812 368.070312 742.894531 367.128906 742.390625 367.128906 C 742.378906 367.128906 742.367188 367.128906 742.359375 367.128906 C 741.476562 366.769531 740.566406 366.589844 739.625 366.589844 Z M 739.625 366.589844 " fill-opacity="1" fill-rule="nonzero"/><path fill="#ffc107" d="M 522.9375 293.410156 L 522.773438 293.414062 C 522.738281 293.414062 522.699219 293.414062 522.664062 293.414062 C 520.339844 293.414062 518.433594 295.640625 516.945312 300.097656 C 515.960938 302.910156 515.582031 307.238281 515.804688 313.082031 C 516.027344 316.992188 516.347656 319.757812 516.757812 321.382812 C 517.191406 323.503906 517.78125 325.605469 518.523438 327.695312 C 517.675781 327.628906 517.015625 327.597656 516.550781 327.597656 C 516.34375 327.597656 516.175781 327.601562 516.046875 327.617188 L 514.921875 327.628906 C 511.894531 327.699219 508.628906 328.054688 505.121094 328.6875 C 502.777344 329.179688 500.535156 329.824219 498.386719 330.621094 C 495.160156 331.835938 492.164062 333.367188 489.394531 335.214844 C 487.859375 336.09375 486.203125 337.5 484.417969 339.433594 C 482.359375 342.121094 482.597656 344.457031 485.132812 346.441406 L 486.515625 347.253906 C 487.546875 347.753906 488.8125 348.164062 490.300781 348.484375 C 491.792969 348.800781 493.511719 349.035156 495.460938 349.175781 C 496.316406 349.234375 497.472656 349.265625 498.929688 349.273438 C 500.71875 349.273438 502.605469 349.203125 504.585938 349.058594 L 507.632812 348.789062 C 509.714844 348.570312 511.890625 348.285156 514.167969 347.921875 C 518.042969 347.308594 522.203125 346.488281 526.648438 345.457031 L 526.652344 345.457031 C 526.605469 345.800781 526.5625 346.148438 526.519531 346.507812 C 526.378906 347.273438 526.273438 349.359375 526.207031 352.761719 C 526.21875 354.09375 526.285156 355.394531 526.40625 356.65625 C 526.527344 357.914062 526.703125 359.140625 526.933594 360.328125 C 527.050781 361.171875 527.445312 362.664062 528.125 364.808594 L 529.144531 367.277344 L 530.382812 369.484375 L 531.835938 371.433594 C 532.875 372.644531 534.058594 373.679688 535.386719 374.542969 L 537.488281 375.710938 C 538.957031 376.398438 540.574219 376.917969 542.332031 377.261719 L 544.335938 377.03125 L 546.082031 376.429688 L 547.566406 375.445312 L 548.792969 374.089844 L 549.757812 372.355469 L 550.464844 370.246094 L 550.910156 367.757812 L 551.097656 364.894531 C 551.074219 361.242188 550.949219 358.882812 550.726562 357.820312 C 550.601562 356.957031 550.433594 356.089844 550.226562 355.214844 C 549.636719 353.019531 549.234375 351.695312 549.019531 351.242188 C 548.996094 351.160156 548.972656 351.078125 548.945312 350.988281 L 548.953125 350.992188 C 551.554688 351.457031 554.226562 351.6875 556.960938 351.6875 C 557.007812 351.6875 557.050781 351.6875 557.09375 351.6875 C 562.539062 351.640625 567.011719 350.214844 570.515625 347.410156 C 571.640625 346.480469 572.632812 345.398438 573.488281 344.164062 L 574.671875 342.203125 L 575.652344 340.011719 C 575.820312 339.136719 575.910156 338.28125 575.921875 337.445312 C 576.042969 333.417969 574.121094 329.660156 570.160156 326.175781 C 569.511719 325.675781 568.792969 325.207031 568.003906 324.765625 L 566.769531 324.125 C 565.914062 323.710938 564.988281 323.324219 563.992188 322.964844 C 561.175781 322.390625 558.894531 322.101562 557.148438 322.101562 C 556.984375 322.101562 556.824219 322.105469 556.667969 322.109375 L 555.820312 322.125 C 555.667969 322.113281 555.507812 322.109375 555.335938 322.109375 C 555.195312 322.109375 555.046875 322.113281 554.890625 322.117188 C 556.714844 319.609375 558.234375 317.347656 559.445312 315.335938 C 560.3125 314.023438 561.253906 312.148438 562.269531 309.71875 C 562.480469 309.335938 562.707031 308.296875 562.9375 306.601562 C 562.984375 305.9375 562.960938 305.296875 562.867188 304.671875 C 562.453125 302.558594 561.6875 301.101562 560.570312 300.300781 C 559.539062 299.394531 558.339844 298.941406 556.964844 298.941406 L 556.835938 298.945312 C 551.511719 299.625 545.621094 305.085938 539.15625 315.328125 C 537.988281 317.515625 536.941406 319.597656 536.023438 321.566406 C 535.617188 318.621094 535.238281 315.773438 534.886719 313.027344 C 534.191406 309.152344 533.46875 306.246094 532.722656 304.304688 C 531.089844 300.597656 529.621094 298.015625 528.3125 296.5625 C 527.613281 295.722656 526.90625 295.050781 526.191406 294.546875 L 525.117188 293.914062 C 524.398438 293.578125 523.671875 293.410156 522.9375 293.410156 Z M 188.617188 346.753906 L 188.230469 346.765625 C 186.519531 346.78125 184.582031 347.703125 182.421875 349.535156 C 179.402344 352.621094 177.316406 355.445312 176.164062 358 C 172.417969 364.945312 170.371094 372.75 170.027344 381.421875 L 169.902344 384.203125 L 170.101562 388.269531 C 168.546875 386.410156 166.152344 383.753906 162.914062 380.304688 C 161.425781 378.714844 157.679688 375.609375 151.675781 370.980469 C 144.71875 366.011719 138.835938 363.523438 134.027344 363.523438 L 133.773438 363.527344 C 133.703125 363.523438 133.628906 363.523438 133.558594 363.523438 C 131.414062 363.523438 129.117188 364.414062 126.675781 366.199219 C 125.117188 367.789062 124.289062 368.839844 124.1875 369.351562 C 123.765625 370.175781 123.433594 371.078125 123.183594 372.066406 C 122.253906 375.417969 123.691406 379.707031 127.503906 384.9375 C 130.855469 389.472656 135.757812 394.109375 142.207031 398.851562 C 140.148438 398.554688 138.050781 398.328125 135.910156 398.175781 L 132.941406 398.238281 C 131.007812 398.320312 129.164062 398.484375 127.414062 398.726562 C 123.191406 399.484375 120.769531 400.035156 120.144531 400.382812 C 118.667969 400.875 117.277344 401.445312 115.984375 402.101562 C 113.167969 403.445312 110.367188 405.039062 107.582031 406.882812 C 104.546875 409.277344 102.855469 410.785156 102.507812 411.402344 C 101.542969 412.492188 100.683594 413.640625 99.933594 414.847656 C 98.464844 416.714844 97.976562 418.871094 98.464844 421.324219 C 99.589844 423.972656 100.996094 425.847656 102.683594 426.941406 C 102.859375 427.234375 104.15625 427.964844 106.574219 429.140625 C 107.632812 429.59375 108.824219 430.023438 110.140625 430.429688 C 118.199219 432.769531 127.777344 433.9375 138.871094 433.9375 C 139.304688 433.9375 139.738281 433.9375 140.171875 433.933594 C 142.808594 433.910156 146.058594 433.722656 149.921875 433.371094 L 149.925781 433.371094 C 147.621094 435.011719 145.285156 436.777344 142.917969 438.664062 C 140.421875 440.929688 138.195312 443.222656 136.242188 445.542969 L 133.507812 449.046875 C 131.824219 451.394531 130.40625 453.769531 129.261719 456.171875 L 127.746094 459.796875 C 126.867188 462.226562 126.261719 464.683594 125.925781 467.171875 L 125.625 470.917969 L 125.746094 472.667969 C 126.65625 478.652344 129.667969 481.648438 134.78125 481.648438 C 135.523438 481.648438 136.304688 481.585938 137.132812 481.460938 C 140.597656 480.761719 143.433594 479.714844 145.636719 478.308594 C 147.808594 477.191406 150.203125 475.609375 152.820312 473.558594 L 156.914062 470.132812 C 160.601562 466.863281 164.667969 462.808594 169.105469 457.964844 L 169.109375 457.964844 C 168.171875 463.160156 167.78125 466.644531 167.9375 468.425781 C 167.960938 472.867188 168.027344 475.414062 168.136719 476.066406 C 168.355469 479.167969 168.753906 481.875 169.328125 484.1875 C 170.679688 490.039062 172.566406 494.449219 174.988281 497.421875 C 176.78125 499.671875 178.734375 500.800781 180.855469 500.800781 C 181.324219 500.800781 181.800781 500.746094 182.28125 500.636719 C 183.523438 500.535156 185.617188 499.417969 188.558594 497.289062 C 189.179688 496.800781 190.589844 495.152344 192.792969 492.339844 C 196.050781 487.804688 198.234375 482.671875 199.339844 476.941406 C 200.902344 469.585938 201.257812 460.394531 200.402344 449.359375 L 200.40625 449.363281 C 201.953125 450.71875 203.511719 451.992188 205.089844 453.179688 L 208.839844 455.816406 C 211.359375 457.46875 213.921875 458.90625 216.523438 460.132812 C 221.699219 462.386719 226.332031 463.515625 230.421875 463.515625 C 235.820312 463.515625 240.273438 461.546875 243.773438 457.613281 C 245.09375 455.585938 246.015625 453.585938 246.546875 451.609375 C 247.078125 449.636719 247.21875 447.691406 246.960938 445.769531 L 246.28125 442.910156 C 245.632812 441.019531 244.589844 439.152344 243.15625 437.316406 L 240.707031 434.578125 C 238.476562 432.558594 236.65625 430.984375 235.246094 429.855469 C 232.84375 428.101562 229.746094 426.453125 225.957031 424.910156 L 225.953125 424.910156 C 228.324219 423.464844 230.191406 422.304688 231.554688 421.4375 C 232.464844 421.007812 236.023438 418.453125 242.238281 413.773438 C 248.164062 409.371094 252.484375 404.539062 255.199219 399.277344 C 258.304688 393.246094 258.183594 388.089844 254.839844 383.800781 C 250.09375 378.421875 244.332031 375.730469 237.550781 375.730469 C 237.28125 375.730469 237.007812 375.734375 236.738281 375.742188 L 236.507812 375.742188 C 236.460938 375.742188 236.410156 375.742188 236.363281 375.742188 C 229.644531 375.742188 222.390625 378.238281 214.601562 383.230469 C 211.753906 385.328125 209.097656 387.527344 206.628906 389.835938 L 206.601562 385.71875 C 206.421875 378.460938 205.730469 373.175781 204.523438 369.859375 C 202.402344 363.015625 200.175781 357.691406 197.84375 353.886719 C 196.679688 351.984375 195.488281 350.464844 194.269531 349.320312 L 192.425781 347.894531 C 191.179688 347.136719 189.910156 346.753906 188.617188 346.753906 Z M 188.617188 346.753906 " fill-opacity="1" fill-rule="nonzero"/><path fill="#ea8891" d="M 278.964844 296.296875 L 278.753906 298.519531 L 278.230469 298.710938 L 277.980469 296.460938 Z M 274.503906 241.949219 L 274.429688 241.949219 C 271.691406 242.492188 269.398438 244.320312 267.558594 247.425781 C 266.625 249.128906 265.914062 250.9375 265.414062 252.847656 C 265.160156 253.773438 264.953125 254.691406 264.796875 255.605469 L 264.597656 256.96875 C 264.488281 257.875 264.429688 258.777344 264.417969 259.671875 C 264.386719 259.730469 264.441406 261.457031 264.582031 264.855469 L 264.980469 268.734375 L 265.632812 272.65625 L 266.535156 276.613281 C 266.96875 278.285156 267.472656 279.96875 268.039062 281.664062 L 266.660156 280.328125 C 264.800781 278.621094 262.820312 276.980469 260.722656 275.40625 C 258.628906 273.832031 256.410156 272.324219 254.074219 270.882812 C 249.648438 268.304688 245.417969 266.945312 241.382812 266.808594 L 240.621094 266.839844 C 239.613281 266.917969 238.644531 267.15625 237.710938 267.554688 C 236.558594 268.121094 235.878906 268.507812 235.671875 268.714844 L 235.019531 269.222656 L 234.042969 270.613281 L 233.496094 272.078125 C 233.277344 273.078125 233.347656 274.128906 233.707031 275.230469 C 234.066406 276.328125 234.710938 277.480469 235.648438 278.675781 L 237.269531 280.511719 C 238.492188 281.757812 240.007812 283.054688 241.808594 284.402344 L 245.570312 286.847656 C 248.0625 288.40625 250.519531 289.828125 252.945312 291.109375 L 256.554688 292.929688 C 258.945312 294.070312 261.300781 295.074219 263.625 295.941406 C 263.75 295.988281 263.871094 296.03125 263.996094 296.078125 L 263.992188 296.078125 C 261.484375 297.128906 258.835938 298.5 256.042969 300.195312 C 253.941406 301.46875 251.761719 302.925781 249.5 304.566406 L 246.539062 307.21875 C 244.6875 308.960938 243.085938 310.660156 241.730469 312.308594 C 237.664062 317.261719 235.820312 321.792969 236.203125 325.90625 C 236.367188 326.75 236.59375 327.503906 236.882812 328.164062 L 237.363281 329.078125 C 237.714844 329.644531 238.128906 330.113281 238.605469 330.488281 C 239.082031 330.867188 239.621094 331.148438 240.222656 331.335938 C 240.515625 331.507812 241.234375 331.589844 242.375 331.589844 C 242.570312 331.589844 242.773438 331.589844 242.992188 331.582031 C 245.503906 331.210938 247.738281 330.5 249.695312 329.453125 C 249.699219 329.457031 249.707031 329.457031 249.71875 329.457031 C 249.929688 329.457031 251.335938 328.601562 253.941406 326.890625 L 257.042969 324.660156 C 259.109375 323.097656 261.175781 321.371094 263.234375 319.484375 L 266.324219 316.53125 C 267.5625 315.300781 268.800781 314.007812 270.039062 312.660156 L 270.042969 312.660156 L 270.367188 316.023438 L 271.097656 319.769531 L 272.214844 323.75 C 273.085938 326.480469 274.222656 329.367188 275.613281 332.40625 C 277.101562 335.269531 278.300781 337.140625 279.207031 338.019531 C 280.320312 339.308594 281.5625 340.441406 282.925781 341.40625 C 285.46875 342.734375 287.855469 343.398438 290.085938 343.398438 C 291.304688 343.398438 292.476562 343.203125 293.605469 342.804688 L 295.710938 341.816406 L 297.472656 340.445312 L 298.890625 338.683594 L 299.964844 336.535156 L 300.695312 334 L 301.082031 331.074219 L 301.128906 327.761719 L 300.828125 324.0625 L 300.183594 319.972656 C 299.511719 317.082031 298.730469 314.445312 297.832031 312.0625 C 296.9375 309.683594 295.925781 307.558594 294.800781 305.695312 L 294.410156 305.113281 L 299.925781 302.164062 L 305.582031 298.5 L 310.3125 294.695312 L 314.125 290.746094 L 317.015625 286.648438 L 318.980469 282.410156 L 320.027344 278.023438 C 320.066406 276.144531 319.789062 274.554688 319.191406 273.25 C 317.964844 270.207031 314.242188 268.527344 308.03125 268.210938 L 307.46875 268.21875 C 305.5625 268.226562 302.957031 268.773438 299.660156 269.859375 C 297.523438 270.589844 295.503906 271.515625 293.605469 272.636719 C 290.570312 274.425781 287.84375 276.710938 285.425781 279.492188 C 286.351562 272.691406 286.777344 267.882812 286.703125 265.066406 C 286.714844 262.183594 286.523438 259.589844 286.132812 257.289062 C 285.695312 255.015625 285.164062 252.996094 284.539062 251.226562 L 283.53125 248.765625 C 281.375 244.222656 278.363281 241.949219 274.503906 241.949219 Z M 403.445312 385.527344 C 394.269531 385.527344 380.476562 391.296875 362.0625 402.84375 C 334.234375 405.304688 318.582031 407.21875 315.105469 408.589844 C 304.578125 411.675781 296.394531 415.230469 290.550781 419.25 C 279.632812 425.765625 270 438.5625 261.644531 457.632812 C 246.164062 466.972656 233.878906 476.816406 224.796875 487.167969 C 218.660156 494.507812 214.105469 501.191406 211.132812 507.222656 C 209.65625 510.164062 208.472656 513.460938 207.585938 517.109375 C 204.925781 528.058594 204.921875 542.183594 207.574219 559.488281 C 199.097656 572.425781 193.316406 582.8125 190.226562 590.640625 C 188.648438 593.558594 187.304688 599.945312 186.191406 609.792969 C 185.628906 611.179688 186.542969 616.6875 188.933594 626.320312 C 191.453125 634.34375 195.703125 643.273438 201.6875 653.101562 C 195.953125 668.546875 194.480469 681.199219 197.269531 691.0625 C 201.203125 699.527344 209.671875 706.984375 222.675781 713.433594 C 231.886719 731.367188 238.613281 740.839844 242.855469 741.851562 C 254.195312 750.5 273.078125 755.402344 299.507812 756.550781 C 300.925781 756.636719 302.410156 756.679688 303.960938 756.679688 C 313.425781 756.679688 325.367188 755.074219 339.78125 751.863281 L 339.789062 751.863281 C 345.519531 758.078125 352.445312 762.566406 360.5625 765.335938 C 369.769531 768.5625 380.109375 770.171875 391.582031 770.171875 C 399.007812 770.171875 406.90625 769.5 415.277344 768.148438 C 427.242188 774.511719 436.925781 778.203125 444.324219 779.214844 C 446.46875 779.65625 449.144531 779.878906 452.355469 779.878906 C 457.058594 779.878906 462.902344 779.40625 469.890625 778.457031 C 482.925781 775.339844 490.847656 772.914062 493.65625 771.183594 C 504.472656 766.5625 515.621094 760.097656 527.109375 751.78125 C 531.132812 752.261719 535.054688 752.503906 538.871094 752.503906 C 551.953125 752.503906 563.808594 749.679688 574.4375 744.035156 C 585.90625 739.753906 602.75 725.089844 624.96875 700.042969 C 635.757812 695.773438 644.28125 690.859375 650.542969 685.308594 C 658.847656 676.90625 664.605469 667.867188 667.816406 658.191406 C 669.800781 654.605469 671.023438 643.929688 671.492188 626.15625 C 680.117188 606.285156 684.066406 594.113281 683.335938 589.632812 C 683.65625 584.554688 683.542969 580.789062 683 578.328125 C 678.820312 568.464844 676.078125 555.007812 674.773438 537.957031 C 674.1875 534.210938 672.546875 529.589844 669.84375 524.101562 C 666.339844 515.039062 653.617188 502.824219 631.667969 487.460938 C 625.542969 469.800781 617.289062 454.128906 606.914062 440.445312 C 592.0625 424.785156 578.441406 413.007812 566.050781 405.113281 L 562.773438 403.6875 L 500.75 391.554688 L 439.773438 400.648438 C 439.488281 400.765625 439.207031 400.882812 438.921875 401.003906 C 436.300781 397.320312 433.195312 394.296875 429.609375 391.933594 C 427.035156 390.238281 424.214844 388.878906 421.144531 387.863281 C 419.921875 386.929688 414.757812 386.164062 405.65625 385.570312 L 404.894531 385.578125 C 404.425781 385.542969 403.941406 385.527344 403.445312 385.527344 Z M 403.445312 385.527344 " fill-opacity="1" fill-rule="nonzero"/><path fill="#b44650" d="M 623.550781 350.382812 L 623.109375 350.402344 C 621.921875 350.515625 620.632812 351.085938 619.238281 352.117188 C 617.792969 353.671875 616.875 354.96875 616.484375 356.011719 C 615.882812 357.269531 615.386719 358.707031 614.996094 360.316406 C 614.554688 362.609375 614.394531 364.917969 614.511719 367.246094 C 614.488281 368.257812 614.792969 370.355469 615.433594 373.539062 C 615.839844 375.410156 616.355469 377.308594 616.980469 379.230469 L 617.992188 382.136719 L 619.171875 385.078125 C 619.960938 386.941406 620.847656 388.832031 621.832031 390.742188 C 621.558594 390.546875 621.28125 390.351562 621.003906 390.164062 C 614.738281 386.085938 608.691406 384.046875 602.863281 384.046875 L 602.515625 384.046875 C 601.660156 384.058594 600.8125 384.109375 599.972656 384.207031 L 599.019531 384.453125 C 598.402344 384.632812 597.8125 384.832031 597.253906 385.058594 C 594.835938 386.15625 593.25 387.253906 592.496094 388.347656 C 591.796875 389.316406 591.445312 389.886719 591.4375 390.050781 C 591.128906 390.773438 591.042969 391.449219 591.179688 392.078125 C 591.457031 393.21875 592.238281 394.265625 593.511719 395.210938 C 594.832031 396.070312 596.460938 396.765625 598.390625 397.304688 C 599.242188 397.617188 601.175781 398.019531 604.1875 398.515625 L 607.644531 398.964844 C 608.171875 399.027344 608.957031 399.089844 610 399.15625 C 611.8125 399.269531 614.40625 399.386719 617.78125 399.503906 L 617.769531 399.503906 C 616.808594 400.054688 615.878906 400.679688 614.984375 401.382812 C 611.371094 404.796875 608.820312 408.53125 607.335938 412.585938 L 606.683594 414.640625 C 606.304688 416.027344 606.046875 417.449219 605.90625 418.910156 C 606.035156 420.980469 606.390625 422.746094 606.972656 424.210938 C 607.550781 425.671875 608.355469 426.828125 609.390625 427.683594 C 611.066406 429.128906 612.660156 429.851562 614.164062 429.851562 C 614.234375 429.851562 614.304688 429.851562 614.371094 429.847656 C 617.101562 429.6875 619.261719 428.671875 620.855469 426.800781 C 621.628906 426.15625 622.933594 424.339844 624.761719 421.351562 C 625.898438 419.382812 627.042969 417.09375 628.1875 414.484375 C 628.753906 413.179688 629.285156 411.839844 629.785156 410.472656 L 629.792969 410.472656 C 629.984375 410.867188 630.164062 411.199219 630.328125 411.46875 C 631.585938 413.675781 632.960938 415.671875 634.457031 417.453125 C 635.9375 419.359375 638.980469 421.449219 643.589844 423.730469 C 645.328125 424.519531 647.3125 424.910156 649.539062 424.910156 C 650.054688 424.910156 650.582031 424.890625 651.125 424.847656 L 652.015625 424.714844 C 652.597656 424.601562 653.148438 424.429688 653.667969 424.207031 C 654.1875 423.980469 654.675781 423.703125 655.136719 423.371094 C 656.054688 422.707031 656.851562 421.824219 657.527344 420.722656 C 658.492188 418.378906 658.558594 416.066406 657.726562 413.785156 C 656.953125 411.671875 656.152344 410.03125 655.320312 408.859375 C 654.757812 407.824219 653.152344 405.851562 650.507812 402.941406 C 649.792969 401.949219 646.238281 399.042969 639.839844 394.230469 L 639.832031 394.230469 C 643.859375 391.359375 646.351562 389.519531 647.3125 388.71875 C 649.242188 387.234375 650.902344 385.457031 652.292969 383.378906 C 652.457031 383.183594 652.699219 382.628906 653.027344 381.710938 C 653.132812 381.351562 653.195312 380.992188 653.21875 380.640625 C 653.304688 379.394531 653.105469 378.292969 652.628906 377.339844 C 651.566406 375.65625 649.734375 374.777344 647.128906 374.703125 L 646.792969 374.707031 C 645.402344 374.757812 643.917969 375.074219 642.34375 375.664062 C 640.761719 376.300781 639.007812 377.359375 637.078125 378.84375 L 636.101562 379.621094 C 634.75 380.925781 633.523438 382.25 632.425781 383.585938 C 631.988281 384.117188 631.574219 384.648438 631.175781 385.183594 C 631.242188 384.128906 631.304688 383.097656 631.355469 382.09375 C 631.515625 378.90625 631.59375 375.96875 631.585938 373.277344 L 631.511719 369.425781 C 631.421875 366.976562 631.25 364.777344 630.988281 362.824219 L 630.539062 360.078125 L 629.964844 357.699219 L 629.414062 356.164062 C 627.890625 352.308594 625.9375 350.382812 623.550781 350.382812 Z M 374.210938 413.691406 L 373.238281 413.722656 C 373.203125 413.71875 373.164062 413.71875 373.121094 413.71875 C 372.144531 413.71875 370.539062 414.058594 368.3125 414.734375 C 367.324219 415.078125 365.632812 415.8125 363.230469 416.949219 C 361.609375 417.609375 357.261719 420.683594 350.1875 426.164062 C 349.433594 426.644531 348.472656 427.070312 347.296875 427.441406 C 346.464844 427.632812 345.699219 427.730469 345 427.730469 C 344.933594 427.730469 344.867188 427.730469 344.800781 427.726562 C 339.257812 427.351562 335.03125 427.164062 332.125 427.164062 C 331.03125 427.164062 330.125 427.191406 329.40625 427.246094 C 325.835938 427.488281 321.726562 428.425781 317.085938 430.046875 C 313.339844 431.726562 309.839844 433.652344 306.585938 435.820312 C 301.058594 439.78125 297.375 442.871094 295.53125 445.089844 L 303.058594 445.890625 C 304.660156 445.003906 306.257812 444.175781 307.855469 443.402344 L 310.246094 442.285156 C 311.84375 441.570312 313.433594 440.910156 315.023438 440.308594 C 318.203125 439.105469 321.375 438.128906 324.535156 437.375 C 327.25 436.742188 330.214844 436.34375 333.4375 436.1875 C 334.640625 436.074219 340.050781 435.945312 349.667969 435.796875 C 351.550781 435.652344 353.308594 435.277344 354.945312 434.667969 C 355.785156 434.3125 356.667969 433.785156 357.597656 433.085938 C 361.5625 429.28125 365.140625 426.332031 368.332031 424.234375 C 369.25 423.613281 372.746094 422.132812 378.8125 419.792969 C 380.183594 419.148438 381.296875 418.492188 382.144531 417.820312 C 384.597656 415.535156 381.953125 414.160156 374.210938 413.691406 Z M 498.085938 474.847656 L 498.304688 474.972656 C 498.894531 475.308594 499.539062 475.5625 500.234375 475.742188 L 498.09375 474.847656 Z M 583.417969 445.246094 L 583.21875 445.253906 C 582.652344 445.308594 581.824219 445.570312 580.734375 446.046875 C 574.1875 449.335938 569.96875 451.375 568.085938 452.164062 C 565.492188 453.199219 563.15625 453.984375 561.074219 454.511719 C 557.824219 455.375 554.707031 456.003906 551.722656 456.402344 C 549.839844 456.664062 545.535156 456.875 538.816406 457.035156 C 537.367188 457.164062 535.960938 457.445312 534.601562 457.882812 C 532.703125 458.617188 531.347656 459.3125 530.542969 459.972656 C 522.691406 466.722656 516.917969 471.128906 513.226562 473.191406 C 510.714844 474.425781 508.484375 475.238281 506.542969 475.621094 C 505.03125 475.914062 503.726562 476.058594 502.617188 476.058594 C 501.699219 476.058594 500.921875 475.957031 500.277344 475.757812 L 500.273438 475.757812 L 501.035156 476.078125 C 501.925781 477.976562 502.601562 479.0625 503.058594 479.328125 C 504.828125 480.878906 506.027344 481.75 506.664062 481.945312 C 510.027344 483.636719 513.191406 484.480469 516.160156 484.480469 C 516.636719 484.480469 517.109375 484.460938 517.578125 484.414062 C 523.125 483.984375 528.402344 482.417969 533.410156 479.71875 C 535.695312 478.488281 538.199219 476.894531 540.921875 474.929688 C 543.859375 472.585938 546.941406 469.863281 550.167969 466.757812 C 551.535156 465.636719 552.753906 464.871094 553.820312 464.46875 C 554.824219 464.066406 556.074219 463.773438 557.570312 463.578125 C 564.828125 463.261719 569.257812 462.921875 570.867188 462.558594 C 574.175781 461.828125 576.742188 460.917969 578.566406 459.824219 C 580.789062 458.164062 582.269531 456.839844 583.015625 455.84375 C 583.996094 454.703125 584.722656 453.605469 585.191406 452.542969 C 585.660156 451.484375 585.875 450.460938 585.828125 449.480469 L 585.566406 448.039062 L 584.917969 446.660156 L 583.882812 445.339844 C 583.800781 445.28125 583.644531 445.253906 583.417969 445.246094 Z M 246.542969 487.414062 L 246.542969 487.417969 Z M 246.546875 487.421875 C 247.085938 488.113281 247.410156 488.515625 247.527344 488.636719 C 247.753906 488.894531 247.984375 489.144531 248.21875 489.390625 C 248.6875 489.878906 249.171875 490.335938 249.671875 490.761719 C 249.558594 490.421875 249.429688 489.976562 249.277344 489.421875 L 246.554688 487.421875 Z M 343.265625 470.121094 C 343.257812 470.121094 343.25 470.121094 343.246094 470.121094 L 343.195312 470.125 L 333.121094 478 C 332.234375 478.710938 330.511719 479.835938 327.949219 481.382812 C 323.480469 484.023438 319.855469 485.496094 317.078125 485.796875 C 314.742188 486.359375 311.769531 486.6875 308.167969 486.785156 C 308.023438 486.792969 307.855469 486.796875 307.664062 486.796875 C 305.632812 486.796875 300.863281 486.371094 293.363281 485.511719 C 292.839844 485.492188 292.339844 485.480469 291.867188 485.480469 C 290.601562 485.480469 289.519531 485.558594 288.621094 485.710938 C 287.390625 485.964844 286.136719 486.40625 284.859375 487.042969 C 276.386719 491.507812 271.902344 493.746094 271.40625 493.753906 C 269.84375 494.421875 267.585938 494.882812 264.628906 495.136719 C 263.976562 495.179688 263.339844 495.199219 262.714844 495.199219 C 257.402344 495.199219 253.054688 493.726562 249.679688 490.777344 L 249.675781 490.777344 C 251.335938 495.90625 254.476562 500.101562 259.097656 503.359375 C 262.34375 505.621094 266.273438 506.75 270.878906 506.75 C 271.355469 506.75 271.832031 506.738281 272.320312 506.714844 C 275.589844 506.554688 279.328125 505.789062 283.535156 504.417969 C 284.058594 504.242188 284.570312 504.0625 285.070312 503.875 L 297.855469 498.324219 C 298.464844 498.171875 299.351562 498.042969 300.511719 497.9375 C 306.6875 497.757812 310.808594 497.503906 312.875 497.175781 C 315.488281 496.828125 318.679688 495.691406 322.457031 493.761719 C 328.738281 489.339844 332.207031 486.695312 332.859375 485.824219 C 334.796875 484.070312 336.476562 482.324219 337.910156 480.582031 C 339.339844 478.84375 340.519531 477.109375 341.445312 475.378906 L 342.648438 472.792969 L 343.472656 470.214844 C 343.40625 470.152344 343.335938 470.121094 343.265625 470.121094 Z M 465.304688 411.5 L 464.75 411.574219 C 463.121094 411.976562 460.285156 413.976562 456.238281 417.574219 C 454.71875 419.195312 453.402344 420.933594 452.296875 422.792969 L 450.789062 425.671875 L 449.589844 428.730469 L 448.699219 431.96875 L 448.117188 435.390625 L 447.84375 438.992188 L 447.878906 442.773438 L 448.226562 446.734375 L 448.558594 448.816406 C 449.308594 452.964844 450.535156 457.015625 452.242188 460.96875 C 453.890625 464.863281 455.53125 467.757812 457.15625 469.660156 L 457.148438 469.660156 C 454.625 472.390625 452.246094 475.714844 450.023438 479.636719 C 449.140625 481.429688 448.351562 483.242188 447.648438 485.082031 C 447.1875 485.972656 446.339844 488.777344 445.105469 493.496094 C 444.25 497.300781 443.75 501.195312 443.617188 505.175781 C 443.503906 507.605469 443.496094 509.941406 443.59375 512.179688 C 444.023438 517.609375 444.40625 520.753906 444.746094 521.613281 C 445.570312 525.519531 446.816406 529.042969 448.484375 532.1875 L 450.023438 521.351562 C 450.027344 519.148438 450.203125 516.890625 450.550781 514.582031 L 451.203125 511.070312 C 451.726562 508.707031 452.421875 506.285156 453.285156 503.808594 C 455.757812 497.527344 457.445312 493.691406 458.351562 492.300781 C 460.515625 487.839844 463.855469 483.027344 468.371094 477.867188 C 470.582031 474.691406 477.402344 468.726562 488.832031 459.980469 C 489.710938 458.625 489.539062 457.890625 488.308594 457.769531 L 487.683594 457.792969 C 478.835938 458.25 471.484375 459.996094 465.621094 463.027344 C 464.257812 460.769531 462.945312 457.734375 461.679688 453.921875 C 460.5 450.472656 459.71875 446.136719 459.335938 440.914062 C 459.261719 436.679688 459.5625 432.933594 460.234375 429.675781 C 460.625 427.800781 461.308594 425.480469 462.289062 422.714844 C 462.789062 421.277344 464.121094 418.058594 466.28125 413.054688 C 466.492188 412.128906 466.167969 411.609375 465.304688 411.5 Z M 208.710938 553.734375 L 208.863281 556 C 209.253906 560.5 210.1875 564.773438 211.664062 568.824219 C 212.859375 572.421875 215.125 576.519531 218.460938 581.121094 C 221.742188 585.230469 225.039062 588.417969 228.347656 590.675781 C 229.230469 591.460938 231.296875 592.636719 234.546875 594.203125 L 238.761719 596.101562 C 239.003906 596.199219 239.191406 596.25 239.324219 596.25 C 239.46875 596.25 239.550781 596.191406 239.5625 596.070312 C 239.429688 595.574219 239.125 595.023438 238.648438 594.421875 C 234.425781 589.753906 231.554688 586.386719 230.042969 584.324219 C 227.308594 580.722656 225.421875 578.085938 224.378906 576.402344 C 221.949219 572.464844 220.425781 569.785156 219.808594 568.359375 C 219.246094 567.304688 218.75 565.367188 218.308594 562.554688 Z M 459.039062 542.003906 L 459.011719 542.003906 C 449.199219 547.664062 441.789062 550.972656 436.773438 551.925781 C 434.785156 552.464844 431.960938 552.730469 428.308594 552.730469 C 424.859375 552.730469 420.667969 552.492188 415.734375 552.011719 C 413.933594 552.09375 412.453125 552.425781 411.292969 553 C 410.503906 553.382812 409.53125 554.066406 408.371094 555.050781 C 404.492188 559.703125 400.082031 563.839844 395.140625 567.460938 C 393.664062 568.449219 391.613281 569.394531 388.992188 570.292969 C 387.445312 570.941406 383.183594 572.050781 376.203125 573.628906 C 375.425781 574.085938 374.574219 574.75 373.65625 575.625 C 371.308594 578.585938 369.253906 580.972656 367.484375 582.78125 C 365.949219 584.199219 364.230469 585.277344 362.332031 586.015625 C 361.214844 586.265625 360.117188 586.394531 359.039062 586.394531 C 356.71875 586.394531 354.480469 585.8125 352.324219 584.648438 C 351.367188 584.070312 350.496094 583.351562 349.707031 582.488281 C 347.886719 580.074219 346.894531 578.453125 346.734375 577.625 C 345.984375 581.527344 345.683594 583.476562 345.835938 583.476562 C 345.84375 583.476562 345.855469 583.46875 345.867188 583.457031 C 345.996094 585.175781 346.933594 586.949219 348.683594 588.78125 C 354.21875 594.011719 359.476562 596.628906 364.449219 596.628906 C 364.746094 596.628906 365.042969 596.621094 365.335938 596.601562 C 372.4375 596.304688 379.789062 591.835938 387.386719 583.191406 C 395.828125 582.792969 402.242188 581.417969 406.625 579.0625 C 409.226562 577.582031 411.621094 575.765625 413.804688 573.613281 C 415.316406 572.265625 417.855469 569.046875 421.421875 563.957031 C 422.308594 562.9375 423.074219 562.265625 423.714844 561.941406 C 424.550781 561.527344 425.675781 561.261719 427.097656 561.144531 C 433.835938 560.964844 438.191406 560.695312 440.164062 560.339844 C 442.984375 559.988281 445.847656 559.023438 448.753906 557.445312 C 452.320312 555.449219 455.164062 552.90625 457.289062 549.8125 C 460.222656 545.6875 460.8125 543.085938 459.046875 542.003906 Z M 567.101562 500.738281 L 563.632812 504.441406 C 567.746094 505.351562 571.703125 506.78125 575.507812 508.730469 C 579.3125 510.675781 582.960938 513.144531 586.453125 516.128906 L 591.578125 520.996094 C 598.253906 528 604.308594 537.082031 609.746094 548.238281 C 611.867188 552.828125 613.6875 557.515625 615.199219 562.304688 C 616.507812 565.839844 617.921875 571.976562 619.449219 580.714844 C 620.0625 584.460938 620.265625 589.117188 620.054688 594.683594 C 619.40625 605.050781 618.503906 613.429688 617.34375 619.824219 C 617.484375 620.8125 617.785156 621.308594 618.238281 621.308594 C 618.5 621.308594 618.8125 621.144531 619.175781 620.816406 C 622.015625 617.171875 624.335938 612.921875 626.140625 608.074219 C 627.039062 605.652344 627.8125 603.078125 628.453125 600.351562 C 629.832031 593.277344 630.503906 588.851562 630.46875 587.074219 C 630.601562 584.527344 630.660156 582.035156 630.636719 579.597656 L 630.628906 579.601562 L 630.824219 578.992188 C 632.71875 573.28125 635.421875 566.875 638.929688 559.769531 C 640.054688 557.457031 642.421875 554.117188 646.027344 549.746094 C 648.59375 546.816406 652.625 543.035156 658.117188 538.402344 C 658.507812 537.945312 658.90625 537.335938 659.3125 536.574219 C 659.507812 536.164062 659.597656 535.816406 659.585938 535.527344 L 658.730469 534.941406 C 657.320312 534.335938 655.929688 534.03125 654.554688 534.03125 C 654.394531 534.03125 654.234375 534.035156 654.074219 534.046875 L 653.472656 534.054688 C 649.339844 534.378906 646.917969 534.792969 646.210938 535.296875 C 643.175781 536.449219 640.441406 538.09375 638.003906 540.234375 C 635.628906 542.332031 633.535156 544.710938 631.730469 547.367188 C 631.023438 548.199219 629.582031 550.84375 627.402344 555.304688 C 627.210938 554.632812 627.042969 554.140625 626.890625 553.835938 C 626.023438 551.042969 625.007812 548.355469 623.839844 545.777344 L 620.953125 539.753906 L 617.210938 533.984375 L 612.613281 528.472656 C 609.265625 524.882812 605.347656 521.460938 600.859375 518.210938 C 591.882812 511.707031 580.632812 505.882812 567.101562 500.738281 Z M 450.53125 581.929688 L 449.992188 584.289062 C 448.847656 590.464844 450.097656 595.710938 453.742188 600.023438 C 454.285156 600.765625 456.066406 602.265625 459.09375 604.53125 C 460.324219 605.351562 461.578125 606.050781 462.855469 606.632812 C 465.277344 607.78125 468.082031 608.472656 471.265625 608.707031 C 471.78125 608.734375 472.289062 608.746094 472.792969 608.746094 C 474.621094 608.746094 476.382812 608.5625 478.078125 608.195312 C 480.140625 607.75 483.28125 606.753906 487.503906 605.214844 C 488.425781 604.953125 489.40625 604.804688 490.441406 604.773438 C 490.496094 604.769531 490.554688 604.769531 490.617188 604.769531 C 491.320312 604.769531 492.214844 604.914062 493.304688 605.207031 C 497.039062 606.535156 500.402344 607.578125 503.398438 608.339844 C 503.941406 608.464844 504.46875 608.582031 504.984375 608.695312 L 504.976562 608.695312 L 504.984375 609.050781 C 506.042969 623.628906 510.847656 633.378906 519.410156 638.292969 L 522.542969 639.894531 L 524.183594 640.472656 C 526.410156 641.121094 530.386719 641.980469 536.109375 643.054688 C 541.644531 646.515625 546.1875 648.507812 549.738281 649.027344 C 551.136719 649.234375 552.648438 649.335938 554.277344 649.335938 C 558.746094 649.335938 564.074219 648.5625 570.269531 647.015625 L 570.257812 647.015625 C 569.523438 647.078125 568.789062 647.113281 568.046875 647.113281 C 565.351562 647.113281 562.617188 646.679688 559.84375 645.820312 C 558.636719 645.308594 557.476562 644.671875 556.355469 643.90625 L 546.683594 636.648438 C 545.871094 636.300781 544.921875 636.015625 543.839844 635.792969 C 538.996094 635.023438 535.984375 634.46875 534.804688 634.125 C 532.144531 633.316406 529.976562 632.359375 528.289062 631.25 C 525.046875 629.300781 522.519531 626.738281 520.714844 623.566406 C 518.300781 619.023438 516.9375 616.023438 516.621094 614.574219 C 516.128906 613.136719 515.660156 611.617188 515.21875 610.011719 L 515.210938 610.011719 C 518.589844 609.976562 522.375 609.496094 526.574219 608.574219 C 532.910156 606.878906 540.773438 601.015625 550.167969 590.980469 L 550.160156 590.980469 C 541.359375 596.621094 533.003906 599.753906 525.097656 600.382812 C 524.125 600.476562 523.136719 600.527344 522.125 600.527344 C 519.433594 600.527344 516.601562 600.1875 513.632812 599.507812 C 511.027344 598.945312 509.332031 598.519531 508.554688 598.238281 L 497.628906 594.582031 C 496.761719 594.324219 495.683594 594.132812 494.394531 594.007812 C 494.296875 594.003906 494.195312 594 494.09375 594 C 493.332031 594 492.421875 594.113281 491.359375 594.34375 C 485.855469 595.964844 482.511719 596.835938 481.335938 596.953125 C 479.796875 597.195312 478.308594 597.3125 476.875 597.3125 C 476.078125 597.3125 475.296875 597.277344 474.53125 597.203125 C 471.398438 596.917969 467.894531 595.664062 464.019531 593.4375 C 463.359375 593.175781 461.929688 592.035156 459.730469 590.019531 C 458.917969 589.167969 458.195312 588.257812 457.566406 587.289062 Z M 276.804688 613.824219 L 276.761719 613.824219 L 270.640625 621.84375 C 269.414062 623.382812 268.21875 624.796875 267.050781 626.089844 C 264.71875 628.667969 262.503906 630.753906 260.410156 632.335938 C 257.5 634.433594 254.875 635.96875 252.53125 636.941406 C 245.691406 639.054688 241.648438 640.558594 240.402344 641.449219 C 239.371094 642.128906 235.898438 645.523438 229.988281 651.636719 C 227.972656 653.347656 226.136719 654.664062 224.488281 655.578125 C 222.109375 656.964844 219.644531 657.65625 217.089844 657.65625 C 213.714844 657.65625 210.179688 656.445312 206.492188 654.019531 L 206.488281 654.023438 L 207.359375 657.019531 C 209.519531 659.53125 211.789062 661.484375 214.175781 662.878906 C 217.375 664.640625 220.484375 665.523438 223.5 665.523438 C 224.035156 665.523438 224.566406 665.496094 225.097656 665.4375 C 225.113281 665.4375 225.132812 665.4375 225.152344 665.4375 C 228.523438 665.4375 233.15625 663.6875 239.058594 660.1875 C 243.289062 657.476562 247.992188 652.757812 253.164062 646.03125 L 263.191406 640.90625 C 265.097656 639.617188 266.597656 638.445312 267.691406 637.390625 C 270.757812 634.40625 273.1875 630.453125 274.988281 625.527344 C 276.261719 621.292969 276.917969 618.632812 276.957031 617.554688 L 277.34375 614.601562 C 277.253906 614.144531 277.074219 613.882812 276.804688 613.824219 Z M 637.710938 666.085938 L 636.867188 666.09375 C 633.132812 666.203125 629.597656 666.636719 626.261719 667.394531 C 622.914062 668.246094 619.082031 669.804688 614.765625 672.070312 C 612.648438 673.007812 608.511719 675.765625 602.351562 680.34375 C 599.984375 682.101562 596.6875 684.972656 592.464844 688.960938 C 591.402344 689.761719 590.480469 690.308594 589.707031 690.59375 C 588.972656 690.871094 588.234375 691.011719 587.488281 691.011719 C 587.472656 691.011719 587.453125 691.011719 587.433594 691.011719 C 580.675781 690.21875 575.40625 689.820312 571.628906 689.820312 C 569.695312 689.820312 568.152344 689.925781 567 690.132812 C 564.171875 690.410156 559.949219 691.800781 554.328125 694.296875 C 549.898438 696.933594 546.332031 699.566406 543.625 702.203125 C 542.273438 703.523438 541.132812 704.84375 540.210938 706.160156 C 539.480469 706.820312 538.578125 708.800781 537.507812 712.101562 L 543.136719 707.890625 L 545.082031 707.011719 C 547.71875 705.882812 550.523438 704.925781 553.492188 704.148438 C 554.183594 703.898438 556.503906 703.410156 560.457031 702.6875 C 563.9375 702.128906 567.707031 701.851562 571.773438 701.851562 C 572.34375 701.851562 572.917969 701.855469 573.5 701.867188 L 595.644531 703.039062 C 595.726562 703.039062 595.804688 703.042969 595.882812 703.042969 C 597.777344 703.042969 599.664062 702.660156 601.542969 701.894531 C 602.953125 701.03125 604.191406 699.972656 605.257812 698.714844 C 613.96875 687.015625 619.367188 680.539062 621.453125 679.277344 C 624.921875 676.320312 631.265625 672.386719 640.480469 667.488281 C 640.910156 666.890625 640.96875 666.492188 640.664062 666.292969 C 640.5625 666.226562 640.417969 666.183594 640.234375 666.160156 Z M 209.210938 697.824219 L 208.464844 699.71875 C 208.148438 699.835938 208.660156 700.804688 210 702.628906 L 212.839844 705.351562 C 215.222656 707.371094 218.574219 709.808594 222.894531 712.664062 C 231.609375 717.238281 239.160156 720.269531 245.542969 721.753906 C 249.980469 722.710938 254.414062 723.25 258.835938 723.371094 C 258.890625 723.386719 259.070312 723.394531 259.375 723.394531 C 260.058594 723.394531 261.375 723.355469 263.320312 723.28125 C 265.414062 723.144531 267.375 722.867188 269.199219 722.453125 C 274.683594 721.210938 278.96875 718.726562 282.058594 715 C 282.445312 714.191406 282 713.625 280.722656 713.296875 C 278.144531 713.890625 274.007812 714.503906 268.308594 715.132812 C 265.078125 715.433594 261.910156 715.585938 258.804688 715.585938 C 253.628906 715.492188 249.992188 715.273438 247.898438 714.9375 C 245.0625 714.589844 242.28125 714.105469 239.5625 713.480469 C 234.195312 712.253906 229.214844 710.542969 224.621094 708.347656 C 222.328125 707.246094 220.125 706.027344 218.023438 704.683594 C 215.921875 703.339844 213.914062 701.878906 212.003906 700.292969 Z M 430.714844 408.605469 L 426.257812 409.027344 C 418.277344 411.421875 413.273438 413.53125 411.238281 415.359375 C 404.019531 419.863281 396.074219 426.617188 387.398438 435.625 C 381.230469 441.410156 376.941406 447.320312 374.527344 453.355469 C 373.082031 455.140625 372.582031 462.578125 373.035156 475.675781 C 372.785156 477.359375 372.332031 478.582031 371.675781 479.347656 C 353.390625 486.308594 339.703125 496.074219 330.613281 508.648438 C 325.007812 514.652344 320.792969 526.945312 317.972656 545.523438 C 306.355469 563.820312 299.648438 578.226562 297.84375 588.742188 C 295.246094 601.242188 296.738281 618.730469 302.320312 641.214844 C 298.289062 655.0625 296.351562 663.84375 296.519531 667.554688 C 296.457031 678.699219 297.558594 688.085938 299.824219 695.714844 C 301.234375 700.601562 303.078125 705.296875 305.363281 709.792969 C 307.644531 714.289062 310.363281 718.589844 313.519531 722.691406 L 318.578125 728.703125 C 325.761719 736.519531 334.695312 743.554688 345.371094 749.800781 L 327.003906 719 C 323.589844 711.90625 321.21875 704.316406 319.894531 696.226562 C 318.882812 689.027344 319.386719 676.9375 321.402344 659.957031 L 321.40625 659.960938 C 322.597656 660.007812 323.792969 660.03125 324.992188 660.03125 C 330.144531 660.03125 335.371094 659.578125 340.683594 658.671875 C 343.25 658.222656 345.800781 657.65625 348.339844 656.980469 L 352.136719 655.882812 C 354.660156 655.097656 357.171875 654.195312 359.671875 653.183594 C 361.808594 652.328125 363.707031 651.390625 365.371094 650.363281 L 367.6875 648.761719 C 369.113281 647.648438 370.304688 646.449219 371.257812 645.164062 C 373.160156 642.59375 374.117188 639.679688 374.125 636.421875 C 373.929688 635.191406 373.320312 634.578125 372.296875 634.578125 C 372.183594 634.578125 372.066406 634.585938 371.941406 634.601562 C 361.023438 637.859375 354.351562 639.679688 351.929688 640.066406 C 347.941406 640.675781 344.21875 640.980469 340.761719 640.980469 C 339.015625 640.980469 337.339844 640.902344 335.730469 640.746094 C 331.820312 640.386719 328.128906 639.515625 324.65625 638.136719 C 322.917969 637.449219 321.238281 636.632812 319.609375 635.691406 L 317.984375 634.667969 L 314.828125 616.859375 C 314.253906 605.027344 314.816406 596.351562 316.515625 590.832031 C 316.785156 585.976562 322.75 575.304688 334.40625 558.816406 L 336.378906 533.828125 C 336.925781 529.707031 338.855469 524.847656 342.171875 519.242188 C 344.320312 515.324219 347.863281 511.4375 352.796875 507.578125 C 355.714844 504.667969 364.0625 499.894531 377.839844 493.253906 C 388.949219 464.570312 396.160156 447.761719 399.472656 442.835938 C 408.722656 428.175781 420.527344 416.90625 434.890625 409.027344 Z M 422.699219 675.710938 L 422.597656 675.71875 C 422.328125 675.769531 422.027344 676.027344 421.699219 676.484375 C 421.0625 677.492188 419.589844 680.046875 417.277344 684.152344 C 414.652344 688.914062 412.671875 692.96875 411.335938 696.320312 C 409.769531 700.480469 408.542969 704.777344 407.65625 709.210938 C 407.359375 710.6875 407.097656 712.183594 406.878906 713.691406 L 406.574219 715.964844 C 406.460938 717.144531 406.382812 718.390625 406.347656 719.710938 L 406.320312 721.738281 C 406.324219 723.128906 406.367188 724.585938 406.449219 726.113281 C 406.613281 729.171875 406.933594 732.507812 407.414062 736.121094 C 408.050781 740.078125 409.035156 743.9375 410.359375 747.707031 C 413.671875 756.839844 417.363281 762.445312 421.425781 764.527344 L 423.570312 758.921875 C 422.621094 757.167969 421.761719 755.238281 420.992188 753.125 L 419.910156 749.820312 C 419.230469 747.53125 418.644531 745.054688 418.148438 742.402344 C 417.65625 739.75 417.25 736.914062 416.9375 733.902344 L 416.535156 729.242188 L 416.269531 724.316406 L 416.285156 722.054688 C 416.304688 716.550781 416.863281 710.214844 417.964844 703.046875 C 418.328125 700.832031 418.941406 697.792969 419.8125 693.921875 C 420.683594 690.050781 421.8125 685.351562 423.191406 679.824219 L 423.480469 678.222656 C 423.574219 677.6875 423.605469 677.191406 423.570312 676.734375 C 423.359375 676.082031 423.066406 675.742188 422.699219 675.710938 Z M 422.699219 675.710938 " fill-opacity="1" fill-rule="nonzero"/><g clip-path="url(#a31e28d1dc)"><path fill="#36560e" d="M 632.761719 283.011719 C 632.742188 283.011719 632.726562 283.011719 632.710938 283.011719 L 632.492188 283.015625 L 632.484375 283.019531 C 632.035156 283.015625 631.417969 283.117188 630.628906 283.320312 C 629.871094 283.597656 629.074219 284.085938 628.238281 284.789062 C 628.039062 284.925781 627.652344 285.382812 627.078125 286.164062 C 626.871094 286.480469 626.703125 286.808594 626.566406 287.144531 C 626.296875 287.820312 626.164062 288.53125 626.171875 289.277344 C 626.207031 290.003906 626.375 290.660156 626.683594 291.238281 C 626.859375 291.597656 627.121094 291.980469 627.464844 292.382812 C 627.570312 292.8125 627.820312 293.367188 628.214844 294.042969 C 628.535156 294.515625 628.851562 294.929688 629.171875 295.28125 C 630.179688 296.378906 631.367188 296.925781 632.726562 296.925781 L 632.738281 296.929688 C 633.007812 296.925781 633.367188 296.871094 633.816406 296.761719 L 634.449219 296.445312 C 635.167969 296.023438 635.792969 295.449219 636.320312 294.726562 C 637.429688 293.136719 637.992188 291.347656 638.007812 289.351562 C 638.035156 289.125 637.992188 288.550781 637.867188 287.632812 C 637.800781 287.273438 637.714844 286.933594 637.601562 286.613281 C 637.433594 286.03125 637.066406 285.386719 636.496094 284.675781 C 635.472656 283.566406 634.226562 283.011719 632.761719 283.011719 Z M 277.878906 286.75 C 276.9375 286.753906 276.039062 286.90625 275.1875 287.210938 C 274.570312 287.441406 274.105469 287.644531 273.796875 287.816406 C 272.914062 288.335938 272.417969 288.664062 272.308594 288.808594 C 272.019531 289.054688 271.761719 289.316406 271.527344 289.597656 C 271.347656 289.773438 271.089844 290.171875 270.75 290.792969 C 270.34375 291.621094 270.152344 292.535156 270.175781 293.539062 L 270.246094 294.40625 L 270.289062 294.589844 C 270.40625 295.074219 270.558594 295.527344 270.746094 295.949219 C 271.523438 297.660156 272.804688 298.886719 274.59375 299.625 L 274.648438 299.648438 C 275.449219 299.972656 276.277344 300.132812 277.136719 300.132812 C 277.953125 300.132812 278.792969 299.988281 279.660156 299.695312 C 280.523438 299.378906 281.328125 298.949219 282.070312 298.410156 C 282.695312 297.878906 283.089844 297.492188 283.257812 297.25 C 283.515625 296.933594 283.730469 296.609375 283.894531 296.277344 C 284.183594 295.71875 284.332031 295.097656 284.339844 294.414062 C 284.335938 294.058594 284.289062 293.699219 284.195312 293.332031 C 284.265625 293.058594 284.28125 292.585938 284.230469 291.921875 C 284.183594 291.492188 284.089844 291.078125 283.949219 290.6875 C 283.371094 289.226562 282.300781 288.117188 280.742188 287.355469 C 279.808594 286.957031 278.851562 286.757812 277.878906 286.75 Z M 533.851562 323.683594 L 533.378906 323.699219 C 532.414062 323.730469 531.132812 324.121094 529.535156 324.875 C 528.945312 325.132812 527.992188 325.871094 526.679688 327.09375 C 525.898438 327.925781 525.335938 328.898438 524.988281 330.015625 C 524.484375 331.386719 524.210938 332.59375 524.175781 333.636719 L 524.203125 334.957031 L 524.425781 336.222656 L 524.839844 337.433594 L 525.445312 338.585938 C 526.140625 339.558594 526.511719 340.050781 526.566406 340.058594 C 528.304688 342.058594 530.308594 343.058594 532.585938 343.058594 C 532.621094 343.058594 532.65625 343.058594 532.695312 343.058594 C 534.039062 343.042969 535.511719 342.703125 537.117188 342.042969 C 538.398438 341.324219 539.5625 340.453125 540.617188 339.425781 C 542.695312 337.4375 543.859375 334.875 544.109375 331.738281 C 544.105469 329.453125 543.164062 327.46875 541.277344 325.78125 C 540.8125 325.445312 540.242188 325.101562 539.570312 324.75 C 539.179688 324.566406 538.777344 324.414062 538.363281 324.296875 C 537.5 324.078125 536.734375 323.964844 536.0625 323.964844 C 535.621094 323.964844 535.21875 324.015625 534.859375 324.109375 L 534.898438 323.773438 C 534.710938 323.726562 534.363281 323.695312 533.851562 323.683594 Z M 339.125 351.332031 L 339.003906 351.335938 L 339 351.335938 C 338.753906 351.335938 338.417969 351.367188 338.003906 351.4375 C 337.632812 351.558594 337.382812 351.648438 337.257812 351.710938 L 337.191406 351.546875 L 336.734375 351.957031 C 336.574219 352.015625 336.253906 352.222656 335.769531 352.582031 C 335.527344 352.792969 335.375 352.933594 335.316406 353.003906 C 334.925781 353.367188 334.578125 353.960938 334.277344 354.777344 C 334.222656 354.96875 334.183594 355.160156 334.164062 355.355469 C 334.140625 355.597656 334.144531 355.839844 334.171875 356.082031 C 334.140625 356.125 334.101562 356.382812 334.0625 356.859375 C 334.050781 357.355469 334.152344 357.851562 334.367188 358.347656 C 334.6875 358.964844 334.914062 359.335938 335.046875 359.460938 C 335.242188 359.707031 335.464844 359.957031 335.714844 360.203125 C 336.257812 360.691406 336.589844 360.957031 336.714844 360.996094 C 336.945312 361.132812 337.183594 361.246094 337.429688 361.335938 C 337.867188 361.496094 338.328125 361.574219 338.808594 361.574219 C 338.867188 361.574219 338.925781 361.574219 338.984375 361.570312 C 339.035156 361.574219 339.085938 361.574219 339.140625 361.574219 C 339.59375 361.574219 340.144531 361.472656 340.789062 361.265625 C 341.5 360.96875 342.042969 360.621094 342.414062 360.214844 C 343.421875 359.199219 343.933594 358.011719 343.945312 356.660156 C 343.941406 355.101562 343.617188 353.933594 342.96875 353.15625 C 341.972656 351.972656 340.691406 351.363281 339.125 351.332031 Z M 630.890625 390.429688 C 630.828125 390.429688 630.761719 390.429688 630.703125 390.433594 L 630.394531 390.441406 L 630.382812 390.441406 C 629.75 390.441406 628.84375 390.628906 627.660156 391 C 626.230469 391.691406 625.277344 392.261719 624.800781 392.703125 C 624.027344 393.367188 623.449219 393.972656 623.066406 394.519531 C 622.523438 395.320312 622.121094 396.304688 621.851562 397.476562 C 621.75 398.210938 621.722656 398.730469 621.773438 399.03125 C 621.808594 399.4375 621.890625 399.835938 622.015625 400.226562 C 622.28125 401.007812 622.738281 401.800781 623.390625 402.609375 C 623.976562 403.3125 624.628906 403.828125 625.347656 404.148438 C 625.917969 404.421875 626.59375 404.554688 627.371094 404.554688 C 627.40625 404.554688 627.441406 404.554688 627.476562 404.554688 C 628.261719 404.488281 629.035156 404.3125 629.804688 404.027344 C 630.1875 403.886719 630.566406 403.714844 630.945312 403.519531 C 631.890625 402.984375 632.457031 402.632812 632.640625 402.460938 C 633.347656 401.914062 634.019531 401.199219 634.648438 400.316406 C 635.105469 399.78125 635.503906 398.875 635.847656 397.589844 C 635.941406 397.195312 636.003906 396.808594 636.03125 396.429688 C 636.046875 395.507812 636.015625 394.964844 635.9375 394.804688 C 635.851562 394.191406 635.523438 393.457031 634.953125 392.601562 C 634.542969 391.980469 633.878906 391.410156 632.964844 390.894531 C 632.15625 390.582031 631.46875 390.429688 630.890625 390.429688 Z M 472.503906 90.164062 L 472.75 93.625 C 473.242188 102.097656 475.867188 111.359375 480.625 121.414062 C 483.347656 126.886719 486.078125 131.800781 488.816406 136.160156 C 503.433594 157.617188 511.894531 170.398438 514.207031 174.511719 C 519.183594 183.738281 522.039062 190.398438 522.777344 194.488281 L 523.914062 201.726562 L 524.089844 207.480469 C 523.980469 211.355469 523.40625 215.304688 522.375 219.324219 C 521.34375 223.347656 519.847656 227.441406 517.894531 231.609375 C 516.65625 234.25 515.234375 236.917969 513.628906 239.617188 L 513.621094 239.621094 L 464.933594 290.300781 C 458.960938 297.683594 453.238281 307.027344 447.765625 318.328125 C 438.769531 339.390625 436.355469 372.078125 440.527344 416.390625 L 445.570312 406.558594 C 445.527344 398.558594 445.769531 390.898438 446.296875 383.585938 L 447.300781 372.871094 C 448.109375 365.898438 449.207031 359.269531 450.585938 352.984375 C 453.347656 340.414062 457.246094 329.21875 462.285156 319.394531 C 466.617188 310.089844 471.894531 301.574219 478.117188 293.84375 C 510.96875 259.855469 528.894531 240.390625 531.894531 235.453125 C 532.390625 234.648438 532.875 233.863281 533.34375 233.097656 L 533.335938 233.097656 C 537.4375 231.136719 541.457031 229.851562 545.390625 229.242188 C 548.796875 228.523438 552.242188 227.988281 555.71875 227.640625 C 569.214844 226.90625 580.675781 226.035156 590.097656 225.019531 C 597.253906 223.914062 603.246094 222.695312 608.074219 221.359375 C 612.5 220.257812 617.457031 218.421875 622.941406 215.84375 C 626.679688 214.050781 630.261719 212.023438 633.683594 209.765625 C 643.949219 202.984375 652.792969 194.097656 660.214844 183.101562 C 663.226562 179.136719 667.984375 170.523438 674.480469 157.265625 L 680.265625 144.605469 C 680.78125 143.101562 680.613281 142.347656 679.761719 142.34375 L 679.65625 142.347656 L 678.582031 142.640625 C 667.582031 148.5 660.324219 152.105469 656.816406 153.457031 C 652.171875 155.453125 647.175781 157.328125 641.832031 159.085938 C 636.457031 160.992188 617.296875 164.691406 584.359375 170.179688 C 575.9375 172.347656 569.449219 174.875 564.890625 177.765625 C 560.160156 180.597656 556.027344 183.773438 552.5 187.289062 C 552.648438 183.667969 552.53125 179.46875 552.152344 174.691406 C 551.429688 161.65625 549.046875 149.84375 545.011719 139.257812 C 543.011719 134.09375 540.617188 129.367188 537.824219 125.074219 C 535.277344 121.15625 532.863281 118.082031 530.582031 115.847656 C 526.785156 112.023438 522.160156 108.664062 516.703125 105.777344 C 501.535156 101.667969 486.804688 96.464844 472.511719 90.164062 Z M 285.609375 177.875 L 285.445312 177.898438 C 285.03125 178.03125 284.808594 178.683594 284.773438 179.863281 C 284.886719 183.925781 285.328125 187.941406 286.097656 191.910156 C 286.867188 195.878906 287.960938 199.804688 289.382812 203.6875 L 291.765625 209.472656 C 293.515625 213.308594 295.59375 217.097656 298 220.839844 C 300.40625 224.585938 303.140625 228.285156 306.199219 231.941406 C 308.53125 235.003906 313.660156 239.769531 321.585938 246.238281 C 343.09375 260.929688 355.734375 269.929688 359.511719 273.230469 C 370.097656 282.132812 377.230469 288.550781 380.914062 292.484375 L 380.90625 292.488281 C 380.800781 293.9375 380.722656 295.433594 380.675781 296.972656 L 380.625 301.105469 C 380.636719 303.925781 380.738281 306.882812 380.933594 309.980469 C 381.125 312.800781 381.386719 315.601562 381.726562 318.378906 C 383.246094 329.902344 385.632812 340.25 388.898438 349.425781 C 389.613281 351.644531 390.90625 355.207031 392.773438 360.105469 C 401.777344 380.511719 407.097656 393.410156 408.738281 398.800781 C 410.664062 404.914062 411.445312 411.636719 411.074219 418.96875 L 418.972656 421.496094 C 419.542969 415.195312 419.136719 409.300781 417.746094 403.8125 C 416.882812 400.5 415.957031 397.511719 414.96875 394.847656 C 408.851562 380.058594 405.523438 371.75 404.988281 369.917969 C 403.816406 366.621094 401.472656 359.5625 397.960938 348.75 C 394.105469 336.101562 391.648438 324.46875 390.59375 313.84375 C 390.078125 309.253906 389.96875 303.425781 390.269531 296.359375 L 390.261719 296.359375 C 391.273438 294.171875 393.085938 290.875 395.707031 286.480469 C 398.644531 281.789062 403.460938 276.65625 410.152344 271.082031 C 414.515625 267.425781 420.515625 263.589844 428.148438 259.578125 C 451.761719 249.046875 464.617188 242.90625 466.722656 241.15625 C 471.589844 238.273438 476.140625 234.589844 480.367188 230.105469 C 485.839844 223.660156 488.832031 219.679688 489.347656 218.167969 C 490.980469 215.378906 492.371094 212.496094 493.519531 209.519531 C 495.976562 201.921875 497.15625 197.253906 497.066406 195.511719 L 497.527344 190.566406 C 497.367188 189.769531 496.945312 189.320312 496.261719 189.214844 L 496.195312 189.214844 L 477.792969 200.6875 C 476.25 201.683594 473 203.390625 468.042969 205.816406 L 426.714844 220.308594 C 425.355469 220.894531 424.007812 221.527344 422.675781 222.203125 C 415.625 225.789062 409.679688 230.066406 404.847656 235.039062 C 399.316406 240.804688 394.746094 247.707031 391.136719 255.746094 L 388.605469 261.988281 C 388.511719 262.25 388.414062 262.515625 388.320312 262.78125 C 388.355469 260.363281 388.304688 257.921875 388.175781 255.457031 C 388.148438 246.191406 385.195312 237.488281 379.316406 229.339844 C 375.511719 223.945312 369.171875 219.304688 360.296875 215.40625 C 356.078125 213.585938 344.089844 209.867188 324.328125 204.253906 C 319.542969 202.582031 314.292969 200.253906 308.574219 197.273438 C 305.578125 195.664062 302.234375 193.277344 298.546875 190.113281 C 294.863281 186.945312 290.832031 183.003906 286.457031 178.28125 C 286.1875 178.042969 285.90625 177.90625 285.609375 177.875 Z M 183.1875 399.769531 L 182.546875 399.785156 C 181.347656 399.835938 180.179688 399.988281 179.042969 400.234375 C 178.433594 400.238281 176.800781 400.828125 174.140625 402.003906 C 172.054688 403.082031 170.101562 404.542969 168.269531 406.394531 C 164.195312 410.601562 162.195312 415.121094 162.273438 419.953125 C 162.371094 422.195312 162.824219 424.15625 163.632812 425.832031 C 165.378906 428.988281 166.789062 430.992188 167.863281 431.84375 C 169.316406 433.265625 171.753906 434.714844 175.179688 436.191406 C 178.308594 437.105469 180.664062 437.5625 182.25 437.5625 C 182.550781 437.5625 182.824219 437.542969 183.070312 437.511719 C 185.085938 437.285156 187.28125 436.40625 189.664062 434.867188 C 190.375 434.394531 191.0625 433.867188 191.730469 433.285156 C 192.878906 432.171875 193.890625 431.019531 194.765625 429.824219 C 197.667969 425.851562 199.0625 421.414062 198.957031 416.511719 C 198.953125 414.566406 198.613281 412.640625 197.945312 410.734375 C 197.367188 409.019531 196.097656 407.019531 194.140625 404.730469 C 191.191406 401.660156 187.539062 400.007812 183.1875 399.769531 Z M 738.34375 420.21875 L 737.972656 420.226562 C 736.644531 420.285156 735.367188 420.5625 734.148438 421.066406 C 733.535156 421.316406 732.9375 421.625 732.355469 421.988281 C 732.046875 422.097656 731.199219 422.765625 729.816406 423.992188 C 728.917969 424.792969 728.113281 425.839844 727.410156 427.136719 C 726.648438 428.558594 726.171875 430.03125 725.976562 431.554688 C 725.925781 432.492188 725.925781 433.082031 725.972656 433.332031 L 726.769531 436.640625 C 727.210938 437.800781 727.738281 438.675781 728.347656 439.265625 C 730.355469 441.28125 732.867188 442.292969 735.882812 442.300781 C 739.394531 442.167969 742.515625 441.183594 745.242188 439.351562 C 747.8125 437.621094 749.398438 435.167969 750.003906 431.996094 C 750.1875 429.128906 749.226562 426.550781 747.125 424.257812 C 744.890625 421.753906 741.960938 420.410156 738.34375 420.21875 Z M 104.46875 476.980469 L 104.183594 477.046875 C 103.574219 477.601562 103.191406 478.375 103.035156 479.367188 L 101.457031 489.25 C 100.472656 495.867188 99.859375 501.636719 99.617188 506.558594 C 99.101562 514.878906 99.832031 522.113281 101.808594 528.265625 C 103.351562 532.355469 105.542969 536.4375 108.386719 540.503906 C 120.027344 554.207031 126.992188 563.257812 129.285156 567.652344 C 131.292969 571.167969 133.308594 575.007812 135.332031 579.179688 C 136.328125 581.726562 137.355469 584.308594 138.417969 586.921875 L 138.414062 586.921875 L 138.460938 588.507812 L 140.070312 603.867188 L 142.855469 619.394531 L 143.144531 620.53125 C 142.171875 619.183594 141.242188 617.972656 140.351562 616.902344 C 138.382812 614.242188 135.0625 611.042969 130.394531 607.304688 L 127.929688 605.644531 C 119.292969 601.367188 112.609375 597.8125 107.875 594.984375 C 105.402344 593.253906 103.421875 591.710938 101.925781 590.355469 C 98.207031 586.980469 95.089844 583.992188 92.570312 581.398438 L 91.902344 581.179688 L 91.578125 581.246094 C 90.753906 581.589844 90.25 583.320312 90.0625 586.433594 C 90.265625 588.21875 90.625 589.992188 91.136719 591.761719 C 92.675781 597.066406 95.605469 602.300781 99.917969 607.46875 C 103.113281 611.195312 106.175781 614.1875 109.109375 616.445312 C 123.726562 626.761719 132.183594 633.046875 134.480469 635.296875 C 137.699219 638.378906 140.117188 640.796875 141.730469 642.546875 C 147.652344 649.316406 152.234375 654.46875 155.46875 657.996094 L 155.464844 657.996094 C 157.3125 662.070312 159.316406 666.125 161.480469 670.160156 C 160.625 670.035156 159.398438 669.871094 157.789062 669.671875 C 148.265625 669.210938 142.351562 668.785156 140.050781 668.386719 C 137.082031 668.09375 129.765625 666.417969 118.101562 663.363281 C 116.738281 663.082031 115.5625 662.941406 114.570312 662.941406 L 114.464844 662.945312 C 112.101562 664.886719 112.671875 668.625 116.171875 674.152344 C 119.796875 680.003906 124.351562 684.535156 129.832031 687.75 C 133.964844 690.058594 137.757812 691.625 141.214844 692.445312 L 143.921875 693.152344 C 151.550781 694.519531 157.824219 695.726562 162.75 696.777344 C 167.671875 697.828125 171.242188 698.722656 173.460938 699.460938 C 177.085938 700.703125 180.609375 702.339844 184.027344 704.378906 L 184.023438 704.378906 C 186.742188 707.898438 189.699219 711.632812 192.898438 715.582031 C 205.394531 730.671875 217.191406 738.832031 228.296875 740.058594 L 208.390625 719.960938 C 203.335938 714.148438 198.589844 707.925781 194.164062 701.285156 C 189.738281 694.644531 185.625 687.589844 181.828125 680.125 C 178.027344 672.65625 174.546875 664.777344 171.378906 656.480469 L 166.863281 643.730469 C 165.464844 639.375 164.152344 635.046875 162.925781 630.746094 L 162.921875 630.746094 C 162.550781 628.269531 162.253906 625.828125 162.035156 623.429688 L 161.605469 616.40625 C 161.46875 611.800781 161.628906 607.339844 162.085938 603.03125 C 162.546875 598.71875 163.300781 594.554688 164.355469 590.535156 C 166.308594 582.804688 169.191406 576.007812 172.996094 570.148438 C 176.0625 564.714844 183.148438 556.777344 194.253906 546.34375 C 196.179688 543.878906 197.507812 541.746094 198.238281 539.953125 C 199.269531 537.160156 200.1875 534.386719 200.980469 531.640625 L 202.085938 527.535156 C 202.765625 524.808594 203.324219 522.105469 203.761719 519.429688 L 204.332031 515.425781 C 204.652344 512.773438 204.855469 510.140625 204.9375 507.53125 L 204.972656 503.632812 C 204.851562 503.195312 204.632812 502.976562 204.320312 502.976562 C 204.289062 502.976562 204.257812 502.980469 204.226562 502.984375 L 204.070312 502.992188 C 203.625 503.039062 203.027344 503.289062 202.269531 503.730469 C 198.5625 507.1875 192.550781 511.9375 184.238281 517.972656 C 179.511719 521.261719 174.851562 524.148438 170.257812 526.625 C 167.234375 528.910156 164.851562 530.996094 163.117188 532.878906 C 157.785156 539.964844 153.558594 548.800781 150.441406 559.378906 C 150.070312 552.476562 149.949219 545.578125 150.082031 538.675781 L 150.628906 525.730469 C 151.195312 517.105469 152.148438 508.480469 153.496094 499.855469 L 153.492188 499.859375 L 148.050781 514.199219 L 144.730469 525.503906 C 143.335938 522.078125 141.164062 518.726562 138.207031 515.449219 C 123.410156 504.789062 115.386719 498.121094 114.148438 495.453125 C 112.054688 492.722656 109.039062 486.65625 105.109375 477.257812 C 104.929688 477.09375 104.71875 477.003906 104.46875 476.980469 Z M 700.117188 501.664062 L 699.621094 501.769531 C 697.421875 502.589844 694.585938 510.550781 691.109375 525.648438 C 690.484375 528.894531 690.058594 532 689.828125 534.96875 C 689.601562 537.941406 689.570312 540.773438 689.738281 543.46875 L 690.136719 547.410156 C 691.339844 553.878906 692.789062 558.660156 694.484375 561.753906 C 707.503906 581.648438 714.929688 594.21875 716.75 599.46875 C 719.265625 606.550781 721.09375 612.964844 722.226562 618.707031 C 722.878906 621.875 723.441406 625.167969 723.914062 628.589844 C 723.914062 628.597656 723.914062 628.605469 723.914062 628.613281 L 723.90625 628.613281 C 723.085938 630.992188 722.25 633.324219 721.394531 635.617188 C 720.363281 639.910156 714.296875 653.199219 703.195312 675.476562 C 701.457031 678.847656 699.691406 682.136719 697.890625 685.34375 C 699.847656 680.785156 701.203125 677.433594 701.957031 675.289062 C 703.097656 671.984375 703.765625 669.410156 703.96875 667.5625 C 704.515625 664.148438 704.445312 661.050781 703.757812 658.269531 L 703.292969 656.191406 C 700.882812 649.28125 699.105469 643.917969 697.964844 640.105469 C 697.09375 636.214844 696.648438 633.222656 696.628906 631.128906 C 696.511719 626.132812 696.652344 622.15625 697.046875 619.1875 L 702.378906 588.503906 L 701.921875 588.382812 L 701.3125 588.535156 C 699.160156 588.898438 693.65625 598.195312 684.792969 616.425781 C 684.480469 616.523438 682.953125 620.929688 680.207031 629.648438 C 679.160156 633.300781 678.363281 636.78125 677.804688 640.09375 C 676.59375 647.125 676.324219 655.207031 676.992188 664.332031 C 677.832031 672.039062 679.65625 683.308594 682.472656 698.140625 C 683.066406 702.054688 683.457031 705.402344 683.644531 708.1875 L 683.632812 708.191406 C 666.378906 732.933594 646.792969 751.285156 624.878906 763.242188 C 625.003906 763.480469 625.269531 763.597656 625.675781 763.597656 C 625.738281 763.597656 625.804688 763.597656 625.875 763.589844 L 657.222656 747.191406 L 670.273438 738.445312 C 672.976562 736.527344 675.601562 734.585938 678.15625 732.628906 L 678.144531 732.628906 C 686.507812 727.84375 693.035156 724.644531 697.722656 723.035156 C 704.253906 720.574219 708.59375 719.070312 710.746094 718.515625 C 716.730469 716.8125 726.070312 714.640625 738.765625 711.996094 C 740.558594 711.511719 742.351562 710.964844 744.152344 710.359375 C 753.128906 707.246094 759.433594 704.152344 763.0625 701.078125 C 772.703125 694.214844 780.554688 685.683594 786.613281 675.488281 C 789.972656 670.03125 793.089844 663.3125 795.964844 655.332031 C 798.019531 649.460938 798.191406 646.519531 796.480469 646.503906 L 796.394531 646.503906 C 796.191406 646.515625 795.960938 646.566406 795.703125 646.65625 C 782.992188 658.832031 774.640625 666.445312 770.644531 669.492188 C 764.808594 674.316406 759.648438 678.128906 755.167969 680.925781 C 748.753906 684.449219 743.453125 686.957031 739.257812 688.453125 L 715.210938 695.984375 L 719.234375 690.648438 C 723.957031 683.824219 727.949219 676.816406 731.222656 669.632812 C 733.425781 664.636719 735.414062 659.523438 737.191406 654.300781 L 737.183594 654.304688 C 743.730469 645.722656 751.121094 637.191406 759.355469 628.714844 C 767.660156 619.898438 782.199219 607.585938 802.972656 591.773438 C 805.464844 589.59375 807.964844 587.097656 810.472656 584.289062 C 811.246094 583.398438 811.964844 582.433594 812.625 581.386719 C 815.304688 576.894531 816.988281 571.746094 817.675781 565.933594 C 818.125 560.929688 818.582031 551.105469 819.054688 536.464844 C 819.046875 533.195312 818.527344 531.34375 817.496094 530.910156 L 817.429688 530.914062 L 793.042969 552.167969 L 765.425781 570.550781 L 759.964844 576.148438 C 756.441406 580.09375 753.152344 584.476562 750.097656 589.292969 C 749.523438 590.195312 748.957031 591.117188 748.398438 592.050781 C 750.707031 561.601562 751.574219 544.597656 751 541.039062 C 751.214844 537.417969 750.625 531.046875 749.226562 521.925781 C 748.523438 518.800781 747.609375 516.421875 746.492188 514.789062 L 744.210938 535.109375 C 742.210938 550.941406 739.800781 565.796875 736.96875 579.675781 L 735.46875 576.550781 C 733.003906 572.101562 728.257812 564.929688 721.234375 555.039062 C 719.097656 551.3125 716.410156 546.148438 713.179688 539.542969 C 711.367188 535.605469 707.511719 523.332031 701.609375 502.71875 C 701.242188 502.097656 700.742188 501.746094 700.117188 501.664062 Z M 700.117188 501.664062 " fill-opacity="1" fill-rule="nonzero"/></g></svg>