<svg xmlns="http://www.w3.org/2000/svg" xmlns:xlink="http://www.w3.org/1999/xlink" width="1200" zoomAndPan="magnify" viewBox="0 0 900 899.99999" height="1200" preserveAspectRatio="xMidYMid meet" version="1.0"><rect x="-90" width="1080" fill="#ffffff" y="-89.999999" height="1079.999988" fill-opacity="1"/><rect x="-90" width="1080" fill="#ffffff" y="-89.999999" height="1079.999988" fill-opacity="1"/><path fill="#ffa59b" d="M 188.039062 584.105469 C 186.523438 600.507812 180.535156 616.667969 174.339844 631.800781 C 168.054688 647.164062 160.636719 662.164062 152.160156 676.429688 C 150.335938 679.496094 151.921875 684.34375 155.679688 685.074219 C 164.132812 686.71875 172.722656 687.71875 181.351562 687.765625 C 187.914062 687.804688 198.734375 688.757812 199.695312 679.824219 C 201.550781 662.546875 170.050781 669.382812 161.347656 671.480469 C 156.3125 672.691406 155.746094 679.679688 159.945312 682.238281 C 171.082031 689.007812 183.976562 689.457031 195.792969 684.238281 C 202.703125 681.191406 196.726562 671.046875 189.855469 674.074219 C 181.9375 677.566406 173.15625 676.488281 165.882812 672.074219 C 165.410156 675.660156 164.949219 679.246094 164.480469 682.832031 C 169.234375 681.691406 174.011719 680.882812 178.902344 680.613281 C 181.292969 680.488281 183.695312 680.429688 186.089844 680.535156 C 187.019531 680.535156 187.945312 680.59375 188.867188 680.71875 C 192.054688 676.679688 192.035156 675.046875 188.816406 675.816406 C 186.722656 675.296875 183.550781 676.007812 181.363281 676 C 178.875 675.988281 176.382812 675.890625 173.90625 675.738281 C 168.824219 675.402344 163.816406 674.699219 158.820312 673.730469 C 159.992188 676.613281 161.164062 679.488281 162.335938 682.371094 C 171.339844 667.210938 179.015625 651.25 185.695312 634.933594 C 192.34375 618.6875 198.1875 601.6875 199.820312 584.113281 C 200.519531 576.578125 188.75 576.625 188.058594 584.113281 Z M 188.039062 584.105469 " fill-opacity="1" fill-rule="nonzero"/><path fill="#ffa59b" d="M 322.289062 590.21875 C 322.886719 618.667969 319.050781 646.855469 310.828125 674.105469 C 309.605469 678.140625 312.863281 681.101562 316.496094 681.554688 C 325.578125 682.691406 334.65625 683.929688 343.757812 684.957031 C 349.636719 685.621094 357.863281 683.21875 356.652344 675.574219 C 355.449219 668.039062 345.449219 665.566406 339.066406 664.671875 C 331.167969 663.558594 323.636719 664.960938 316.4375 668.277344 C 312.566406 670.054688 312.613281 676.640625 316.4375 678.441406 C 327.769531 683.777344 339.632812 685.4375 351.992188 683.429688 C 359.445312 682.21875 356.277344 670.875 348.867188 672.085938 C 339.882812 673.546875 330.59375 672.152344 322.378906 668.277344 L 322.378906 678.441406 C 326.230469 676.660156 330.429688 675.871094 334.667969 676.015625 C 337.011719 676.09375 339.289062 676.507812 341.535156 677.199219 C 342.402344 677.46875 343.285156 677.941406 344.160156 678.132812 L 345.457031 678.765625 C 348.117188 675.230469 348.484375 673.46875 346.550781 673.480469 C 345.074219 672.777344 341.96875 672.980469 340.363281 672.777344 C 337.808594 672.460938 335.253906 672.144531 332.695312 671.824219 C 327.304688 671.152344 321.90625 670.480469 316.515625 669.804688 C 318.410156 672.285156 320.292969 674.765625 322.183594 677.257812 C 330.6875 649.085938 334.6875 619.667969 334.070312 590.25 C 333.917969 582.683594 322.148438 582.664062 322.308594 590.25 Z M 322.289062 590.21875 " fill-opacity="1" fill-rule="nonzero"/><path fill="#ffa59b" d="M 539.40625 603.792969 C 530.644531 630.878906 526.683594 659.414062 527.625 687.863281 L 533.507812 681.976562 C 522.035156 680.585938 509.964844 679.96875 499.894531 686.621094 C 496.511719 688.851562 495.65625 694.765625 499.894531 696.785156 C 507.734375 700.523438 517.074219 700.449219 525.503906 699.121094 C 531.488281 698.179688 542.222656 694.59375 539.175781 686.296875 C 536.589844 679.246094 525.222656 682.285156 527.835938 689.417969 C 528.347656 690.804688 528.347656 686.707031 528.355469 686.699219 C 528.5 685.851562 529.328125 686.132812 528.914062 685.996094 C 528.671875 685.921875 527.691406 686.554688 527.300781 686.6875 C 525.003906 687.4375 522.582031 687.804688 520.167969 687.988281 C 515.664062 688.324219 509.78125 688.507812 505.832031 686.621094 L 505.832031 696.785156 C 514.097656 691.332031 524.167969 692.613281 533.507812 693.746094 C 536.601562 694.121094 539.484375 690.746094 539.386719 687.863281 C 538.472656 660.367188 542.277344 633.097656 550.742188 606.917969 C 553.078125 599.699219 541.730469 596.601562 539.40625 603.792969 Z M 539.40625 603.792969 " fill-opacity="1" fill-rule="nonzero"/><path fill="#ffa59b" d="M 645.050781 627.570312 C 643.957031 651.828125 642.859375 676.074219 641.777344 700.332031 C 645.121094 698.949219 648.472656 697.554688 651.816406 696.167969 C 645.601562 691.207031 638.382812 688.21875 630.351562 688.0625 C 624.007812 687.949219 610.933594 689.824219 610.421875 698.0625 C 609.835938 707.65625 622.636719 707.496094 629.148438 707.945312 C 636.894531 708.484375 647.75 710.28125 652.679688 702.785156 C 656.851562 696.4375 646.675781 690.535156 642.523438 696.84375 C 643.207031 695.804688 643.003906 696.640625 642.160156 696.457031 C 641.179688 696.246094 639.910156 696.503906 638.882812 696.503906 C 636.566406 696.503906 634.242188 696.449219 631.925781 696.332031 C 629.839844 696.226562 627.757812 696.082031 625.679688 695.878906 C 624.527344 695.773438 623.367188 695.679688 622.222656 695.515625 C 621.492188 695.410156 620.03125 694.707031 620.644531 695.34375 L 622.15625 697.9375 L 622.175781 698.0625 L 621.367188 701.035156 L 621.960938 700.246094 L 619.847656 702.359375 C 626.976562 698.003906 637.097656 699.398438 643.476562 704.484375 C 647.425781 707.640625 653.265625 705.746094 653.515625 700.324219 C 654.613281 676.066406 655.707031 651.816406 656.792969 627.5625 C 657.140625 619.984375 645.367188 620.003906 645.03125 627.5625 Z M 645.050781 627.570312 " fill-opacity="1" fill-rule="nonzero"/><path fill="#ec4e65" d="M 115.179688 546.953125 C 62.886719 497.546875 20.214844 434.449219 17.640625 362.535156 C 15.855469 312.675781 32.851562 258.59375 74.523438 231.210938 C 90.800781 220.519531 109.769531 214.558594 128.878906 210.773438 C 157.023438 205.207031 186.636719 204.1875 214.03125 212.683594 C 241.433594 221.183594 266.398438 240.113281 277.898438 266.410156 C 294.347656 236.894531 321.511719 217.859375 351.914062 209.042969 C 376.808594 201.820312 403.984375 206.5625 427.648438 217.144531 C 447.738281 226.125 466.140625 239.433594 479.417969 256.988281 C 498.992188 282.878906 506.265625 316.558594 504.777344 348.988281 C 503.296875 381.417969 493.679688 412.921875 482.226562 443.292969 C 474.242188 464.472656 465.277344 485.394531 453.285156 504.59375 C 445 517.851562 435.308594 530.207031 424.738281 541.714844 C 389.628906 579.960938 345.304688 611.59375 295.148438 624.9375 C 283.15625 628.128906 269.230469 630.367188 245.613281 621.523438 C 221.996094 612.679688 155.484375 585.046875 115.179688 546.964844 Z M 115.179688 546.953125 " fill-opacity="1" fill-rule="nonzero"/><path fill="#ffffff" d="M 75.003906 345.71875 C 73.140625 351.113281 56.304688 366.675781 43.84375 339.054688 C 31.382812 311.433594 54.25 254.34375 93.347656 245.527344 C 132.433594 236.710938 102.246094 276.667969 90.167969 295.511719 C 78.089844 314.355469 79.472656 332.835938 75.015625 345.71875 Z M 75.003906 345.71875 " fill-opacity="1" fill-rule="nonzero"/><path fill="#ffffff" d="M 399.324219 228.953125 C 392.566406 219.90625 379.152344 223.730469 372.332031 227.914062 C 371.574219 228.386719 370.785156 228.941406 370.507812 230.03125 C 370.132812 231.480469 370.832031 233.441406 371.851562 234.710938 C 372.878906 235.972656 374.15625 236.671875 375.386719 237.238281 C 384.160156 241.269531 393.269531 240.433594 399.945312 234.972656 C 400.746094 234.328125 401.570312 233.316406 401.273438 231.902344 C 401.128906 231.203125 400.726562 230.578125 400.3125 230.046875 C 397.851562 226.90625 394.144531 226.011719 391.914062 228.019531 " fill-opacity="1" fill-rule="nonzero"/><path fill="#ffffff" d="M 404.40625 225.980469 C 401.859375 222.675781 398.976562 220.300781 395.046875 218.808594 C 392.117188 217.703125 388.78125 217.359375 385.667969 217.597656 C 382.480469 217.847656 379.316406 218.472656 376.308594 219.578125 C 373.300781 220.695312 369.988281 222.03125 367.539062 224.183594 C 363.070312 228.097656 364.125 234.757812 367.699219 238.863281 C 370.546875 242.144531 375.292969 243.882812 379.421875 244.816406 C 388.011719 246.757812 396.84375 245.007812 403.734375 239.441406 C 405.980469 237.625 407.453125 234.847656 407.171875 231.902344 C 406.894531 228.960938 405.175781 226.164062 402.808594 224.222656 C 400.628906 222.433594 398.132812 221.25 395.285156 221.089844 C 392.441406 220.925781 389.964844 222.050781 387.773438 223.855469 C 385.390625 225.828125 385.582031 230.171875 387.773438 232.183594 C 390.308594 234.507812 393.546875 234.277344 396.09375 232.183594 C 395.039062 233.058594 395.46875 232.664062 395.804688 232.480469 C 394.664062 233.097656 394.96875 232.816406 395.410156 232.722656 C 395.230469 232.761719 393.980469 232.75 394.929688 232.835938 C 394.75 232.816406 393.546875 232.460938 394.488281 232.777344 C 394.632812 232.828125 395.191406 232.914062 395.25 233.019531 C 395.296875 233.105469 394.21875 232.414062 394.789062 232.875 C 394.929688 232.992188 395.75 233.472656 395.105469 233.027344 C 394.414062 232.558594 395.410156 233.355469 395.546875 233.480469 C 396.566406 234.433594 395.480469 233.480469 395.574219 233.441406 L 395.710938 233.664062 C 396.09375 234.347656 396.015625 233.914062 395.480469 232.367188 C 395.488281 231.902344 395.652344 231.316406 395.875 230.933594 C 395.921875 230.855469 396.632812 229.769531 396.074219 230.597656 C 396.035156 230.664062 395.527344 231.097656 396.015625 230.671875 C 396.566406 230.203125 395.765625 230.847656 395.625 230.941406 C 395.019531 231.355469 394.402344 231.742188 393.757812 232.097656 C 393.507812 232.230469 391.710938 233.046875 392.992188 232.539062 C 392.394531 232.777344 391.789062 232.992188 391.175781 233.183594 C 390.636719 233.347656 390.089844 233.480469 389.542969 233.605469 C 389.222656 233.671875 388.90625 233.722656 388.589844 233.789062 C 387.886719 233.953125 389.617188 233.742188 388.464844 233.796875 C 387.226562 233.867188 386.003906 233.921875 384.765625 233.835938 C 384.429688 233.816406 384.09375 233.769531 383.765625 233.75 C 382.871094 233.671875 384.699219 233.960938 383.8125 233.75 C 383.054688 233.558594 382.285156 233.453125 381.535156 233.25 C 380.855469 233.066406 380.171875 232.855469 379.5 232.625 C 379.152344 232.511719 378.828125 232.375 378.480469 232.25 C 378.585938 232.289062 379.230469 232.597656 378.617188 232.308594 C 378.039062 232.027344 377.464844 231.769531 376.914062 231.441406 C 376.753906 231.347656 376.011719 230.722656 376.519531 231.203125 C 377.175781 231.816406 375.734375 230.097656 376.664062 231.414062 C 376.484375 231.15625 376.347656 230.875 376.183594 230.605469 C 376.328125 230.847656 376.484375 231.683594 376.261719 230.683594 C 376.195312 230.355469 376.308594 229.972656 376.222656 230.566406 C 376.15625 231.019531 376.242188 231.460938 376.058594 231.933594 C 375.878906 232.402344 375.53125 232.652344 375.261719 233.027344 C 374.859375 233.585938 375.117188 233.144531 375.4375 232.960938 C 375.847656 232.730469 376.253906 232.480469 376.675781 232.25 C 377.433594 231.847656 378.210938 231.5 378.980469 231.125 C 379.671875 230.796875 377.847656 231.558594 378.566406 231.296875 C 378.796875 231.222656 379.019531 231.117188 379.25 231.03125 C 379.777344 230.835938 380.308594 230.644531 380.835938 230.480469 C 381.75 230.191406 382.671875 229.941406 383.601562 229.742188 C 384.042969 229.644531 384.488281 229.566406 384.929688 229.480469 C 385.984375 229.269531 384.601562 229.578125 384.507812 229.519531 C 384.632812 229.585938 385.503906 229.414062 385.660156 229.40625 C 386.8125 229.316406 387.945312 229.355469 389.089844 229.40625 C 389.308594 229.414062 389.886719 229.566406 389.0625 229.386719 C 388.082031 229.164062 389.175781 229.414062 389.398438 229.460938 C 389.945312 229.566406 390.492188 229.710938 391.03125 229.886719 C 391.269531 229.960938 391.5 230.066406 391.742188 230.125 C 392.414062 230.308594 390.625 229.539062 391.539062 230.046875 C 392.039062 230.328125 392.53125 230.597656 393.019531 230.894531 C 393.210938 231.011719 393.855469 231.546875 393.203125 231 C 392.480469 230.40625 393.367188 231.164062 393.507812 231.296875 C 393.808594 231.578125 395.171875 233.171875 394.238281 231.953125 C 395.21875 233.222656 396.140625 234.210938 397.757812 234.652344 C 399.160156 235.039062 401.042969 234.867188 402.292969 234.058594 C 404.695312 232.511719 406.414062 228.617188 404.40625 226.011719 Z M 404.40625 225.980469 " fill-opacity="1" fill-rule="nonzero"/><path fill="#d83d5b" d="M 302.765625 613.765625 C 322.039062 610.503906 387.542969 577.097656 400.089844 533.945312 C 405.761719 514.441406 369.574219 513.035156 310.25 554.65625 C 268.347656 584.054688 151.59375 479.597656 108.453125 490.617188 C 65.308594 501.632812 219.882812 627.78125 302.765625 613.765625 Z M 302.765625 613.765625 " fill-opacity="1" fill-rule="nonzero"/><path fill="#d83d5b" d="M 201.875 423.285156 C 201.875 423.285156 197.820312 414.113281 215.105469 408.433594 C 232.394531 402.75 253.589844 403.027344 249.660156 417.980469 C 245.730469 432.929688 201.40625 439.121094 201.867188 423.285156 Z M 201.875 423.285156 " fill-opacity="1" fill-rule="nonzero"/><path fill="#d83d5b" d="M 389.367188 396.703125 C 389.367188 396.703125 385.46875 387.464844 402.847656 382.070312 C 420.230469 376.675781 441.417969 377.320312 437.238281 392.195312 C 433.058594 407.078125 388.628906 412.519531 389.367188 396.691406 Z M 389.367188 396.703125 " fill-opacity="1" fill-rule="nonzero"/><path fill="#ffcfca" d="M 608.578125 627.6875 C 608.578125 627.6875 592.839844 642.308594 562.746094 639.195312 C 515.046875 634.261719 505.96875 603.996094 505.96875 603.996094 C 505.96875 603.996094 467.042969 616.773438 445.800781 589.035156 C 424.554688 561.300781 433.730469 530.035156 433.730469 530.035156 C 417.625 517.882812 407.75 497.863281 407.902344 477.683594 C 408.046875 457.503906 418.214844 437.632812 434.480469 425.710938 C 434 394.183594 464.140625 365.675781 495.5625 367.925781 C 501.394531 341.449219 520.976562 318.402344 546.160156 308.386719 C 571.335938 298.367188 601.390625 301.65625 623.808594 316.894531 C 633.097656 309.28125 640.074219 302.992188 658.675781 303.484375 C 688.914062 304.28125 701.136719 325.21875 701.136719 325.21875 C 726.28125 315.105469 756.339844 318.277344 778.8125 333.429688 C 801.285156 348.582031 815.515625 375.261719 815.59375 402.375 C 846.773438 406.863281 870.171875 441.140625 863.003906 471.839844 C 876.367188 486.953125 882.074219 508.527344 877.925781 528.273438 C 873.773438 548.023438 859.871094 565.480469 841.554688 573.921875 C 841.554688 573.921875 843.871094 606.429688 817.21875 629.011719 C 790.5625 651.597656 755.253906 630.832031 755.253906 630.832031 C 755.253906 630.832031 726.648438 659.875 692.289062 653.144531 C 662.597656 647.328125 649.953125 632.148438 649.953125 632.148438 C 649.953125 632.148438 632.648438 642.269531 608.578125 627.695312 Z M 608.578125 627.6875 " fill-opacity="1" fill-rule="nonzero"/><path fill="#ffa59b" d="M 810.78125 460.773438 C 811.816406 450.003906 808.320312 439.429688 800.875 431.535156 C 792.476562 422.621094 780.8125 418.902344 768.773438 419.816406 L 774.652344 425.699219 C 775.660156 413.921875 772.097656 402.335938 763.699219 393.980469 C 754.117188 384.464844 741.453125 380.050781 728.097656 381.90625 C 724.945312 382.347656 723.226562 386.367188 723.996094 389.144531 C 724.929688 392.539062 728.070312 393.695312 731.230469 393.25 C 740.589844 391.953125 749.6875 396.355469 756.070312 402.992188 C 761.929688 409.085938 763.613281 417.375 762.902344 425.691406 C 762.640625 428.699219 765.8125 431.796875 768.78125 431.574219 C 777.898438 430.882812 786.144531 433.035156 792.5625 439.851562 C 798 445.621094 799.757812 453.042969 799.019531 460.773438 C 798.710938 463.9375 801.941406 466.65625 804.898438 466.65625 C 808.332031 466.65625 810.472656 463.945312 810.78125 460.773438 Z M 810.78125 460.773438 " fill-opacity="1" fill-rule="nonzero"/><path fill="#ffa59b" d="M 539.789062 359.746094 C 532.191406 362.464844 524.675781 365.753906 518.152344 370.570312 C 516.875 371.511719 515.882812 372.503906 515.453125 374.089844 C 515.066406 375.492188 515.242188 377.378906 516.046875 378.628906 C 517.625 381.070312 521.449219 382.695312 524.089844 380.742188 C 527.085938 378.523438 530.304688 376.617188 533.648438 374.964844 C 534.515625 374.542969 535.390625 374.128906 536.265625 373.734375 C 536.589844 373.589844 536.925781 373.4375 537.253906 373.292969 C 537.472656 373.195312 537.695312 373.101562 537.917969 373.003906 C 537.070312 373.359375 536.9375 373.417969 537.511719 373.175781 C 539.300781 372.445312 541.097656 371.753906 542.914062 371.109375 C 544.375 370.589844 545.621094 369.78125 546.429688 368.40625 C 547.167969 367.148438 547.476562 365.285156 547.023438 363.871094 C 546.101562 361.023438 542.894531 358.648438 539.789062 359.765625 Z M 539.789062 359.746094 " fill-opacity="1" fill-rule="nonzero"/><path fill="#ffffff" d="M 780.386719 402.027344 C 782.433594 405.355469 795.972656 413.25 800.203125 392.964844 C 804.429688 372.675781 780.714844 337.960938 753.3125 337.871094 C 725.917969 337.785156 751.984375 359.976562 762.832031 370.761719 C 773.683594 381.550781 775.496094 394.085938 780.378906 402.027344 Z M 780.386719 402.027344 " fill-opacity="1" fill-rule="nonzero"/><path fill="#ffffff" d="M 563.417969 325.046875 C 568.703125 316.566406 585.929688 317.855469 595.375 320.375 C 596.433594 320.652344 597.546875 321.019531 598.21875 321.875 C 599.113281 323.027344 598.890625 324.757812 598.054688 325.953125 C 597.21875 327.144531 595.914062 327.914062 594.605469 328.558594 C 585.363281 333.152344 574.207031 333.730469 564.53125 330.132812 C 563.378906 329.710938 562.082031 328.988281 561.996094 327.769531 C 561.957031 327.164062 562.234375 326.585938 562.570312 326.085938 C 564.542969 323.125 568.703125 321.855469 571.988281 323.210938 " fill-opacity="1" fill-rule="nonzero"/><path fill="#ffffff" d="M 568.492188 328.019531 C 568.460938 328.066406 568.914062 327.402344 568.914062 327.402344 C 569 327.5 567.914062 328.46875 568.703125 327.730469 C 569.011719 327.441406 569.367188 327.132812 569.644531 326.828125 C 570.078125 326.34375 569.230469 327.238281 569.191406 327.164062 C 569.191406 327.144531 569.738281 326.789062 569.828125 326.730469 C 570.324219 326.414062 570.84375 326.144531 571.363281 325.875 C 572.546875 325.257812 570.644531 326.066406 571.640625 325.757812 C 572.179688 325.59375 572.699219 325.402344 573.246094 325.25 C 574.3125 324.953125 575.390625 324.816406 576.457031 324.578125 C 577.28125 324.394531 575.378906 324.644531 576.234375 324.613281 C 576.542969 324.605469 576.839844 324.546875 577.148438 324.527344 C 577.6875 324.480469 578.222656 324.441406 578.761719 324.421875 C 580.011719 324.363281 581.261719 324.363281 582.511719 324.402344 C 583.59375 324.441406 584.691406 324.507812 585.765625 324.605469 C 586.371094 324.664062 586.988281 324.730469 587.59375 324.796875 C 587.898438 324.828125 588.734375 324.988281 587.371094 324.769531 C 587.660156 324.816406 587.957031 324.855469 588.246094 324.902344 C 590.378906 325.238281 592.492188 326.007812 594.605469 326.296875 L 594.867188 326.382812 C 594.28125 326.308594 593.894531 325.933594 593.714844 325.277344 C 593.203125 324.59375 592.898438 324.421875 592.90625 323.671875 C 592.914062 323.105469 593.109375 323.039062 593.222656 322.585938 C 593.253906 322.480469 594.136719 321.632812 593.183594 322.632812 C 593.253906 322.566406 593.875 322.164062 593.308594 322.558594 C 593.011719 322.769531 592.683594 322.941406 592.367188 323.125 C 591.589844 323.558594 590.773438 323.941406 589.957031 324.289062 C 590.589844 324.027344 588.996094 324.625 588.765625 324.703125 C 588.082031 324.941406 587.390625 325.152344 586.699219 325.355469 C 585.113281 325.808594 583.488281 326.171875 581.867188 326.394531 C 582.777344 326.269531 580.90625 326.480469 580.664062 326.488281 C 579.839844 326.558594 579.011719 326.585938 578.195312 326.59375 C 576.648438 326.613281 575.101562 326.539062 573.5625 326.375 C 572.335938 326.25 573.027344 326.296875 573.285156 326.34375 C 572.777344 326.269531 572.265625 326.171875 571.765625 326.078125 C 570.855469 325.894531 569.953125 325.683594 569.058594 325.433594 C 568.261719 325.210938 567.480469 324.953125 566.695312 324.691406 C 565.078125 324.152344 566.65625 324.632812 566.644531 324.691406 L 566.234375 324.453125 C 567.328125 325.113281 567.761719 326.078125 567.511719 327.355469 C 567.472656 326.902344 568.039062 329.308594 567.339844 329.5 C 567.230469 329.527344 568.5 328.480469 567.808594 328.988281 C 567.117188 329.5 568.210938 328.769531 568.222656 328.789062 C 568.597656 328.59375 568.5 328.625 567.914062 328.875 L 568.375 328.71875 C 568.683594 328.652344 569.007812 328.566406 569.316406 328.488281 C 568.835938 328.605469 568.511719 328.566406 569.191406 328.566406 C 570.289062 328.566406 569.308594 328.539062 569.066406 328.488281 C 569.539062 328.59375 570 328.730469 570.449219 328.902344 C 573.34375 329.980469 577.023438 327.699219 577.6875 324.796875 C 578.445312 321.460938 576.667969 318.710938 573.582031 317.558594 C 569.007812 315.855469 563.753906 317.144531 560.09375 320.191406 C 557.96875 321.960938 556.460938 324.402344 556.203125 327.191406 C 555.894531 330.480469 557.96875 333.304688 560.726562 334.855469 C 564.832031 337.152344 570.210938 337.910156 574.8125 338.257812 C 579.425781 338.605469 584.183594 338.121094 588.660156 337.007812 C 590.964844 336.429688 593.164062 335.613281 595.347656 334.671875 C 597.527344 333.730469 599.824219 332.671875 601.535156 330.941406 C 605.933594 326.480469 605.761719 319.007812 599.941406 315.828125 C 597.046875 314.25 593.300781 313.789062 590.082031 313.347656 C 586.488281 312.847656 582.882812 312.5 579.253906 312.636719 C 571.324219 312.925781 562.9375 315.058594 558.363281 322.085938 C 556.683594 324.671875 557.757812 328.699219 560.476562 330.132812 C 563.40625 331.679688 566.734375 330.777344 568.519531 328.019531 Z M 568.492188 328.019531 " fill-opacity="1" fill-rule="nonzero"/><path fill="#ffbdc5" d="M 465.640625 509.085938 C 468.523438 512.757812 472.5 522.660156 458.695312 526.398438 C 444.886719 530.140625 427.0625 515.429688 420.96875 492.347656 C 414.878906 469.253906 427.285156 464.65625 436.785156 465.628906 C 446.289062 466.609375 454.023438 494.277344 465.640625 509.085938 Z M 465.640625 509.085938 " fill-opacity="1" fill-rule="nonzero"/><path fill="#ffa59b" d="M 648.175781 331.304688 C 635.828125 333.949219 625.605469 343.699219 621.847656 355.667969 C 620.925781 358.609375 622.933594 362.214844 625.949219 362.910156 C 629.148438 363.640625 632.195312 361.945312 633.183594 358.804688 C 633.378906 358.1875 633.589844 357.582031 633.820312 356.976562 C 633.972656 356.582031 634.5 355.613281 633.714844 357.199219 C 633.859375 356.910156 633.972656 356.609375 634.117188 356.324219 C 634.644531 355.21875 635.25 354.140625 635.921875 353.101562 C 636.269531 352.5625 636.652344 352.042969 637.019531 351.515625 C 637.433594 350.929688 636.144531 352.59375 636.789062 351.8125 C 636.992188 351.5625 637.191406 351.3125 637.402344 351.074219 C 638.238281 350.09375 639.132812 349.167969 640.085938 348.304688 C 640.566406 347.871094 641.054688 347.457031 641.554688 347.054688 C 642.324219 346.410156 640.671875 347.699219 641.257812 347.285156 C 641.515625 347.101562 641.777344 346.902344 642.035156 346.71875 C 643.042969 346.015625 644.101562 345.371094 645.1875 344.796875 C 645.753906 344.496094 646.328125 344.21875 646.917969 343.949219 C 648 343.441406 645.570312 344.46875 646.695312 344.046875 C 646.992188 343.929688 647.289062 343.816406 647.597656 343.707031 C 648.808594 343.277344 650.046875 342.929688 651.308594 342.660156 C 654.316406 342.015625 656.351562 338.324219 655.410156 335.421875 C 654.382812 332.25 651.402344 330.625 648.175781 331.316406 Z M 648.175781 331.304688 " fill-opacity="1" fill-rule="nonzero"/><path fill="#ffa59b" d="M 634.375 361.917969 C 629.667969 354.988281 622.722656 349.824219 614.59375 347.632812 C 611.625 346.832031 608.070312 348.632812 607.359375 351.738281 C 606.65625 354.832031 608.289062 358.121094 611.460938 358.976562 C 612.691406 359.3125 613.902344 359.714844 615.074219 360.207031 L 613.671875 359.609375 C 615.949219 360.574219 618.082031 361.820312 620.050781 363.3125 L 618.859375 362.390625 C 620.808594 363.898438 622.566406 365.640625 624.085938 367.589844 L 623.164062 366.398438 C 623.527344 366.871094 623.875 367.351562 624.210938 367.851562 C 625.074219 369.128906 626.199219 370.136719 627.726562 370.550781 C 629.128906 370.9375 631.015625 370.761719 632.261719 369.957031 C 634.789062 368.320312 636.222656 364.628906 634.375 361.910156 Z M 634.375 361.917969 " fill-opacity="1" fill-rule="nonzero"/><path fill="#ffbdc5" d="M 810.089844 628.847656 C 818.910156 625.167969 842.25 604.5625 822.722656 578.027344 C 807.195312 556.933594 751.390625 572.652344 744.597656 582.894531 C 744.597656 582.894531 728.273438 582.789062 714.050781 595.460938 C 714.050781 595.460938 688.578125 571.597656 659.003906 578.96875 C 629.429688 586.34375 626.515625 597.785156 617.542969 598.265625 C 608.578125 598.746094 602.9375 581.835938 580.539062 581.363281 C 558.152344 580.894531 549.601562 599.054688 549.601562 599.054688 C 549.601562 599.054688 522.820312 589.710938 519.1875 574 C 515.558594 558.289062 491.410156 549.742188 477.421875 560.222656 C 463.429688 570.703125 461.210938 593.835938 477.949219 601.921875 C 494.6875 610.003906 505.429688 603.027344 506.648438 605.007812 C 507.871094 606.988281 520.792969 631.464844 548.332031 637.511719 C 585.710938 645.722656 602.621094 629.011719 602.621094 629.011719 C 602.621094 629.011719 624.796875 640.261719 647.65625 631.925781 C 647.65625 631.925781 650.953125 632.628906 659.359375 637.773438 C 677.691406 648.972656 706.535156 654.164062 726.011719 644.945312 C 745.472656 635.734375 748.871094 629.65625 753.445312 626.886719 C 754.886719 626.011719 756.78125 625.011719 758.222656 625.886719 C 765.792969 630.503906 781.65625 640.695312 810.070312 628.839844 Z M 810.089844 628.847656 " fill-opacity="1" fill-rule="nonzero"/><path fill="#ffa59b" d="M 803.316406 543.042969 C 800.316406 546.722656 797.078125 550.367188 793.300781 553.28125 C 791.535156 554.644531 789.601562 555.820312 787.632812 556.847656 C 786.988281 557.183594 786.335938 557.511719 785.671875 557.820312 C 785.355469 557.964844 785.039062 558.109375 784.722656 558.25 C 783.820312 558.65625 786.019531 557.761719 784.347656 558.40625 C 776.074219 561.617188 767.832031 562.195312 759.097656 560.117188 C 751.734375 558.367188 748.59375 569.710938 755.972656 571.460938 C 766.398438 573.941406 777.4375 573.722656 787.480469 569.75 C 797.242188 565.894531 805.035156 559.464844 811.636719 551.359375 C 813.644531 548.898438 814.039062 545.445312 811.636719 543.03125 C 809.570312 540.964844 805.332031 540.550781 803.316406 543.03125 Z M 803.316406 543.042969 " fill-opacity="1" fill-rule="nonzero"/><path fill="#ffa59b" d="M 453.699219 456.964844 C 446.144531 482.183594 458.203125 511.390625 481.410156 523.84375 C 488.078125 527.417969 494.023438 517.265625 487.347656 513.679688 C 468.640625 503.644531 458.945312 480.460938 465.035156 460.089844 C 467.214844 452.820312 455.867188 449.714844 453.699219 456.964844 Z M 453.699219 456.964844 " fill-opacity="1" fill-rule="nonzero"/><path fill="#ffa59b" d="M 601.34375 542.457031 C 588.804688 542.511719 577.898438 534.839844 573.027344 523.398438 C 571.804688 520.542969 567.394531 519.746094 564.984375 521.285156 C 553.003906 528.910156 537.753906 528.726562 525.90625 520.910156 C 519.574219 516.726562 513.675781 526.917969 519.96875 531.070312 C 535.121094 541.070312 555.605469 541.1875 570.914062 531.445312 L 562.871094 529.332031 C 569.296875 544.425781 585.054688 554.289062 601.34375 554.214844 C 608.90625 554.175781 608.921875 542.40625 601.34375 542.445312 Z M 601.34375 542.457031 " fill-opacity="1" fill-rule="nonzero"/><path fill="#000000" d="M 217.519531 397.566406 C 233.09375 397.972656 248.757812 395.355469 263.324219 389.820312 C 266.292969 388.695312 268.328125 385.847656 267.425781 382.578125 C 266.648438 379.734375 263.179688 377.328125 260.191406 378.472656 C 246.507812 383.675781 232.152344 386.183594 217.519531 385.800781 C 214.339844 385.714844 211.636719 388.558594 211.636719 391.683594 C 211.636719 394.808594 214.328125 397.480469 217.519531 397.566406 Z M 217.519531 397.566406 " fill-opacity="1" fill-rule="nonzero"/><path fill="#000000" d="M 277.351562 416.199219 C 306.773438 420.449219 338.617188 421.875 362.878906 401.742188 C 368.710938 396.90625 360.351562 388.617188 354.554688 393.414062 C 334.050781 410.421875 305.109375 408.414062 280.472656 404.847656 C 277.304688 404.382812 274.191406 405.632812 273.238281 408.953125 C 272.449219 411.710938 274.210938 415.738281 277.34375 416.191406 Z M 277.351562 416.199219 " fill-opacity="1" fill-rule="nonzero"/><path fill="#000000" d="M 367.132812 370.582031 C 383.046875 376.878906 401.742188 375.082031 416.347656 366.273438 C 422.824219 362.371094 416.914062 352.1875 410.410156 356.109375 C 398.167969 363.496094 383.554688 364.496094 370.257812 359.234375 C 367.308594 358.0625 363.800781 360.515625 363.019531 363.339844 C 362.097656 366.6875 364.164062 369.40625 367.125 370.582031 Z M 367.132812 370.582031 " fill-opacity="1" fill-rule="nonzero"/><path fill="#000000" d="M 549.6875 410.058594 C 537.859375 396.136719 518.09375 392.03125 500.855469 396.085938 C 497.761719 396.816406 495.925781 400.347656 496.753906 403.328125 C 497.628906 406.488281 500.886719 408.164062 503.988281 407.433594 C 511.167969 405.742188 518.410156 405.855469 525.40625 407.960938 C 531.640625 409.84375 537.023438 413.25 541.375 418.375 C 543.433594 420.796875 547.574219 420.488281 549.695312 418.375 C 552.097656 415.96875 551.761719 412.480469 549.695312 410.046875 Z M 549.6875 410.058594 " fill-opacity="1" fill-rule="nonzero"/><path fill="#000000" d="M 547.726562 446.484375 C 558.84375 456.8125 571.765625 462.992188 586.582031 466.183594 C 600.996094 469.300781 617.640625 471.378906 632.023438 467.070312 C 639.257812 464.90625 636.171875 453.542969 628.898438 455.726562 C 616.542969 459.417969 602.101562 457.511719 589.714844 454.839844 C 576.878906 452.070312 565.703125 447.128906 556.046875 438.160156 C 550.503906 433.015625 542.171875 441.3125 547.726562 446.484375 Z M 547.726562 446.484375 " fill-opacity="1" fill-rule="nonzero"/><path fill="#000000" d="M 697.878906 445.179688 C 684.304688 434.738281 665.824219 431.402344 649.367188 435.863281 C 646.300781 436.6875 644.417969 440.042969 645.261719 443.101562 C 646.109375 446.160156 649.421875 448.042969 652.5 447.207031 C 666.066406 443.535156 680.507812 446.535156 691.953125 455.339844 C 694.46875 457.28125 698.53125 455.726562 699.992188 453.226562 C 701.769531 450.1875 700.40625 447.121094 697.878906 445.179688 Z M 697.878906 445.179688 " fill-opacity="1" fill-rule="nonzero"/><path fill="#ffa59b" d="M 137.757812 505.421875 C 161.761719 526.753906 191.730469 540.195312 222.09375 549.808594 C 254.886719 560.203125 288.976562 566.222656 323.117188 570.085938 C 340.949219 572.105469 358.859375 573.441406 376.789062 574.210938 C 384.363281 574.539062 384.34375 562.769531 376.789062 562.445312 C 345.226562 561.089844 313.679688 558.03125 282.578125 552.386719 C 250.304688 546.542969 217.875 538.226562 188.144531 524.09375 C 173.058594 516.921875 158.589844 508.210938 146.070312 497.085938 C 140.429688 492.066406 132.078125 500.363281 137.75 505.410156 Z M 137.757812 505.421875 " fill-opacity="1" fill-rule="nonzero"/><path fill="#ffa59b" d="M 714.042969 536.628906 C 703.828125 547.597656 690.039062 554.820312 676.480469 560.808594 C 660.109375 568.039062 642.792969 573.289062 625.421875 577.480469 C 588.707031 586.335938 550.378906 588.652344 512.714844 586.769531 C 487.960938 585.527344 463.546875 581.574219 439.34375 576.355469 C 431.960938 574.769531 428.8125 586.105469 436.21875 587.699219 C 514.953125 604.667969 600.699219 604.882812 676.125 573.644531 C 692.769531 566.75 709.898438 558.320312 722.351562 544.945312 C 727.511719 539.40625 719.210938 531.070312 714.03125 536.621094 Z M 714.042969 536.628906 " fill-opacity="1" fill-rule="nonzero"/><path fill="#ffa59b" d="M 407.625 566.242188 C 397.707031 563.222656 386.609375 560.25 376.398438 563.683594 C 373.695312 564.585938 371.054688 565.75 369.613281 568.386719 C 368.296875 570.777344 368.394531 574.816406 370.613281 576.777344 C 371.488281 577.546875 370.171875 574.152344 370.1875 575.066406 C 370.1875 575.382812 370.296875 575.855469 370.324219 576.085938 C 370.382812 576.546875 370.429688 576.988281 370.546875 577.433594 C 370.777344 578.363281 371.1875 579.277344 371.648438 580.105469 C 373.667969 583.738281 377.367188 586.34375 381.058594 588.066406 C 387.707031 591.160156 394.835938 592.585938 402.070312 593.535156 C 407.203125 594.21875 418.703125 597.054688 418.742188 588.632812 C 418.75 586.230469 417.394531 584.566406 415.65625 583.191406 C 415.109375 582.757812 414.53125 582.335938 414.003906 581.875 C 413.839844 581.738281 413.6875 581.574219 413.523438 581.449219 C 413.390625 581.324219 413.265625 581.199219 413.140625 581.058594 C 413.695312 581.625 414.089844 582.277344 414.320312 583.039062 L 414.320312 586.164062 L 414.359375 586.054688 L 412.851562 588.652344 C 411.246094 590.132812 413.160156 588.460938 413.378906 588.257812 C 413.851562 587.796875 414.320312 587.230469 414.675781 586.679688 C 415.234375 585.816406 415.648438 584.835938 415.886719 583.835938 C 416.570312 581.019531 415.492188 578.113281 413.417969 576.164062 C 410.335938 573.25 405.894531 571.335938 401.984375 569.914062 C 398.074219 568.492188 394.183594 567.816406 390.183594 567.597656 C 385.285156 567.328125 379.875 568.242188 378.394531 573.75 C 375.800781 583.414062 388.207031 588.046875 395.488281 589.421875 C 399.554688 590.191406 404.164062 590.738281 408.257812 589.796875 C 413.648438 588.554688 417.039062 583.027344 414.300781 577.835938 C 412.179688 573.796875 407.113281 571.355469 402.867188 570.261719 C 398.382812 569.097656 393.566406 569.191406 389.148438 570.585938 C 386.351562 571.472656 383.851562 574.757812 385.042969 577.828125 C 386.859375 582.5 390.550781 584.277344 395.191406 585.269531 C 399.878906 586.269531 404.617188 587.585938 409.375 588.199219 C 412.351562 588.585938 415.523438 587.546875 417.117188 584.824219 C 418.820312 581.921875 418.070312 578.132812 415.707031 575.828125 C 412.292969 572.492188 406.472656 571.328125 401.867188 571.789062 C 397.9375 572.183594 395.34375 575.222656 396.199219 579.238281 C 397.277344 584.289062 403.148438 586.769531 407.777344 587.296875 C 413.707031 587.980469 419.472656 583.539062 418.730469 577.25 C 417.609375 567.710938 406.828125 565.5 398.996094 565.316406 L 398.996094 577.085938 C 400.273438 576.953125 401.570312 576.894531 402.859375 577.027344 C 401.972656 576.933594 403.664062 577.191406 403.839844 577.230469 C 404.570312 577.402344 405.300781 577.613281 406 577.875 C 406.375 578.019531 406.402344 578.019531 406.085938 577.894531 C 406.386719 578.027344 406.671875 578.171875 406.953125 578.328125 C 407.519531 578.625 408.074219 578.960938 408.613281 579.316406 C 408.929688 579.546875 408.96875 579.558594 408.71875 579.355469 C 408.96875 579.558594 409.21875 579.769531 409.449219 579.988281 C 410.777344 581.183594 409.488281 580.34375 409.59375 579.230469 C 409.863281 578.238281 410.132812 577.25 410.402344 576.257812 C 410.113281 576.875 410.101562 576.902344 410.382812 576.375 C 410.921875 576 411.015625 575.921875 410.652344 576.164062 C 410.535156 576.191406 409.132812 576.914062 409.804688 576.644531 C 410.402344 576.402344 408.671875 576.960938 408.480469 577.007812 C 407.933594 577.152344 407.382812 577.269531 406.835938 577.375 C 404.558594 577.816406 402.242188 578.046875 399.984375 578.613281 C 396.902344 579.382812 395.046875 582.84375 395.882812 585.855469 C 396.746094 588.988281 400.023438 590.738281 403.117188 589.960938 C 406.210938 589.179688 409.375 589.054688 412.398438 588.132812 C 417.050781 586.71875 421.921875 583.335938 421.316406 577.855469 C 420.808594 573.183594 416.003906 569.605469 412.035156 567.742188 C 407.980469 565.828125 403.511719 564.835938 399.015625 565.316406 C 395.855469 565.65625 393.132812 567.78125 393.132812 571.203125 C 393.132812 574.625 395.824219 577.007812 399.015625 577.085938 C 399.871094 577.105469 400.726562 577.132812 401.582031 577.191406 C 402.0625 577.222656 402.542969 577.257812 403.023438 577.316406 C 402.386719 577.25 402.761719 577.269531 403.175781 577.347656 C 404.109375 577.527344 405 577.75 405.894531 578.046875 C 405.328125 577.855469 405.597656 577.863281 405.992188 578.105469 C 406.105469 578.171875 407.289062 578.933594 406.742188 578.519531 C 406.269531 578.164062 407.066406 578.84375 407.144531 578.941406 C 407.363281 579.191406 407.382812 579.203125 407.203125 578.980469 C 406.960938 578.664062 407.019531 578.777344 407.375 579.328125 C 407.289062 578.828125 407.007812 578.152344 407.203125 577.605469 L 408.539062 575.796875 C 408.71875 575.703125 408.910156 575.652344 409.113281 575.664062 C 409.113281 575.480469 410.015625 576.078125 409.027344 575.652344 C 408.460938 575.414062 407.808594 575.296875 407.210938 575.085938 C 406.914062 574.980469 406.125 574.710938 406.875 574.941406 C 406.328125 574.605469 406.222656 574.558594 406.539062 574.777344 C 407.007812 575.097656 407.347656 575.539062 407.546875 576.105469 L 401.878906 583.554688 C 402.578125 583.488281 403.261719 583.46875 403.964844 583.449219 C 404.664062 583.429688 404.625 583.429688 405.5 583.632812 C 405.980469 583.75 406.855469 584.027344 407.105469 584.09375 C 408.171875 584.375 407.382812 584.488281 407.078125 583.863281 L 406.269531 580.894531 L 406.375 580.289062 L 407.882812 577.691406 L 407.539062 578.046875 C 408.402344 577.546875 409.265625 577.039062 410.132812 576.539062 C 410.488281 576.539062 410.84375 576.578125 411.1875 576.652344 C 410.671875 576.546875 410.152344 576.433594 409.632812 576.328125 C 408.855469 576.164062 408.074219 576 407.296875 575.828125 C 405.480469 575.441406 403.65625 575.058594 401.839844 574.664062 C 400.121094 574.296875 398.371094 573.980469 396.660156 573.558594 C 396.152344 573.433594 395.632812 573.316406 395.144531 573.117188 C 395.75 573.375 395.75 573.355469 395.164062 573.039062 C 395.796875 573.382812 396.199219 573.941406 396.390625 574.703125 L 392.289062 581.941406 C 395.296875 580.988281 397.671875 580.921875 400.695312 581.875 C 401.109375 582.007812 401.523438 582.152344 401.925781 582.308594 C 401.511719 582.152344 401.636719 582.21875 402.300781 582.519531 C 402.6875 582.71875 403.058594 582.933594 403.433594 583.164062 C 404.03125 583.59375 404.144531 583.652344 403.800781 583.335938 C 404.300781 583.84375 404.386719 583.902344 404.050781 583.507812 C 403.339844 580.769531 403.878906 579.039062 405.664062 578.316406 C 404.972656 578.460938 404.972656 578.480469 405.664062 578.363281 C 405.183594 578.402344 404.703125 578.421875 404.222656 578.433594 C 400.6875 578.527344 397.902344 578.113281 394.441406 576.988281 C 392.75 576.441406 391.65625 575.816406 390.003906 575.039062 C 389.417969 574.632812 389.3125 574.585938 389.65625 574.902344 C 389.148438 574.414062 389.070312 574.335938 389.425781 574.683594 C 389.867188 575.394531 389.972656 576.125 389.734375 576.863281 C 389.15625 578.277344 388.253906 579.09375 387.035156 579.316406 C 387.675781 579.585938 389.109375 579.296875 389.828125 579.335938 C 390.289062 579.355469 390.761719 579.382812 391.222656 579.433594 C 391.972656 579.527344 392.144531 579.539062 391.742188 579.460938 C 393.585938 579.683594 395.421875 580.152344 397.191406 580.699219 C 398.71875 581.171875 399.726562 581.558594 400.976562 582.171875 C 401.8125 582.585938 402.628906 583.027344 403.433594 583.507812 C 404.144531 583.929688 405.011719 584.789062 405.78125 585.039062 C 403.878906 582.546875 403.886719 580.652344 405.800781 579.34375 C 405.347656 579.644531 404.914062 579.980469 404.519531 580.34375 C 403.417969 581.46875 402.761719 583.027344 402.761719 584.613281 C 402.761719 586.535156 403.675781 588.238281 404.992188 589.574219 C 405.617188 590.21875 406.347656 590.757812 407.058594 591.304688 C 407.394531 591.566406 407.710938 591.84375 408.058594 592.09375 C 408.710938 592.574219 408.71875 593.210938 407.777344 591.546875 C 407.507812 590.554688 407.242188 589.566406 406.972656 588.574219 L 406.972656 588.640625 C 407.941406 586.949219 408.914062 585.257812 409.882812 583.566406 L 409.835938 583.605469 C 410.824219 583.335938 411.8125 583.066406 412.804688 582.796875 C 409.554688 583 405.933594 582.308594 402.703125 581.863281 C 403.503906 581.96875 402.472656 581.824219 402.378906 581.816406 C 401.976562 581.757812 401.570312 581.691406 401.167969 581.632812 C 400.496094 581.527344 399.8125 581.414062 399.140625 581.289062 C 397.726562 581.027344 396.316406 580.738281 394.921875 580.414062 C 392.742188 579.894531 390.578125 579.289062 388.464844 578.507812 C 388.042969 578.355469 387.628906 578.183594 387.214844 578.027344 C 386.417969 577.738281 388.300781 578.546875 386.996094 577.914062 C 386.234375 577.546875 385.488281 577.171875 384.757812 576.75 C 384.199219 576.421875 383.679688 576.066406 383.140625 575.710938 C 382.054688 574.980469 383.832031 576.363281 383.363281 575.882812 C 383.160156 575.671875 382.910156 575.492188 382.699219 575.289062 C 382.421875 575.019531 382.074219 574.441406 381.75 574.257812 C 382.816406 574.835938 382.546875 575.480469 382.144531 574.730469 C 382.035156 574.546875 381.921875 574.347656 381.804688 574.171875 C 381.078125 573.066406 382.296875 575.757812 381.921875 574.433594 C 381.5 572.933594 382.054688 575.953125 381.941406 574.882812 C 381.757812 573.257812 381.433594 571.328125 380.242188 570.078125 C 378.730469 568.480469 376.953125 575.230469 378.894531 575.25 C 379.230469 575.25 379.117188 575.203125 378.847656 575.257812 C 379.875 575.027344 380.863281 574.597656 381.894531 574.367188 C 384.882812 573.703125 389.109375 573.875 392.164062 574.414062 C 396.355469 575.144531 400.4375 576.347656 404.492188 577.578125 C 407.527344 578.5 410.902344 576.472656 411.726562 573.472656 C 412.59375 570.328125 410.671875 567.164062 407.625 566.230469 Z M 407.625 566.242188 " fill-opacity="1" fill-rule="nonzero"/><path fill="#ffa59b" d="M 407.203125 590.796875 C 413.917969 592.046875 420.875 593.324219 427.734375 592.746094 C 434.085938 592.210938 445.972656 590.007812 445.972656 581.644531 C 445.972656 577.289062 442.417969 574.433594 439.09375 572.269531 C 436.304688 570.453125 433.191406 569.078125 430.050781 568.03125 C 423.949219 565.992188 417.234375 565.367188 410.832031 565.789062 C 407.105469 566.039062 402.867188 566.308594 400.128906 569.191406 C 396.535156 572.980469 397.007812 578.757812 401.207031 581.816406 C 406.828125 585.902344 414.945312 587.613281 421.769531 587.730469 C 425.554688 587.796875 430.617188 587.804688 433.527344 585.027344 C 436.996094 581.71875 436.835938 576.375 433.875 572.816406 C 431.519531 569.980469 427.667969 568.671875 424.207031 567.742188 C 420.597656 566.769531 416.753906 566.28125 413.015625 566.375 C 408.929688 566.480469 404.195312 566.847656 401.011719 569.710938 C 396.691406 573.597656 398.398438 579.75 402.628906 582.816406 C 409.515625 587.824219 419.050781 587.46875 426.503906 584.152344 C 429.484375 582.824219 429.972656 578.652344 428.617188 576.105469 C 426.140625 571.460938 421.046875 570.941406 416.378906 570.480469 C 414.128906 570.261719 411.882812 570.039062 409.632812 569.816406 C 407.460938 569.605469 405.164062 569.15625 402.984375 569.269531 C 399.792969 569.441406 396.84375 571.375 395.996094 574.578125 C 395.152344 577.777344 396.746094 580.988281 399.449219 582.777344 C 403.570312 585.5 409.191406 585.59375 413.851562 584.59375 C 416.839844 583.949219 418.925781 580.25 417.953125 577.355469 C 414.601562 567.308594 394.308594 567.230469 395.34375 579.796875 C 396.171875 589.863281 407.921875 591.613281 415.859375 590.910156 L 414.292969 579.355469 C 412.429688 579.769531 410.488281 579.75 408.488281 579.230469 C 407.039062 578.84375 406.882812 578.808594 405.703125 578.171875 C 405.144531 577.863281 404.578125 577.539062 404.058594 577.164062 C 404.300781 577.382812 404.269531 577.363281 403.972656 577.097656 C 402.628906 575.796875 402.484375 577.316406 403.53125 581.632812 C 403.769531 581.46875 404.835938 580.625 403.761719 581.316406 C 404.195312 581.039062 404.636719 580.808594 405.085938 580.566406 C 406.136719 580 404.40625 580.71875 405.691406 580.335938 C 406.230469 580.171875 406.769531 579.980469 407.308594 579.816406 C 409.34375 579.203125 411.429688 578.738281 413.4375 577.988281 C 416.417969 576.882812 418.445312 574.007812 417.539062 570.75 C 416.753906 567.886719 413.304688 565.53125 410.304688 566.644531 C 406.941406 567.894531 403.425781 568.539062 400.128906 569.980469 C 395.902344 571.828125 391.570312 575.972656 392.921875 581.058594 C 394.191406 585.824219 399.515625 588.59375 403.808594 590.113281 C 408.171875 591.660156 412.929688 591.699219 417.40625 590.710938 C 423.777344 589.304688 422.507812 578.558594 415.839844 579.152344 C 414.050781 579.316406 412.253906 579.441406 410.46875 579.34375 C 410.074219 579.328125 409.671875 579.308594 409.285156 579.257812 C 410.132812 579.363281 409.199219 579.210938 408.84375 579.125 C 408.488281 579.039062 408.113281 578.933594 407.75 578.808594 C 406.941406 578.527344 408.652344 579.441406 407.375 578.605469 C 407.007812 578.363281 406.691406 578.335938 407.222656 578.546875 L 406.816406 578.152344 L 407 578.441406 C 406.632812 577.722656 406.585938 577.769531 406.863281 578.585938 C 407.164062 579.191406 407.066406 579.757812 406.566406 580.296875 C 406.546875 580.835938 406.347656 581.230469 405.953125 581.460938 C 405.855469 581.546875 405.75 581.605469 405.625 581.632812 C 405.558594 581.980469 404.953125 581.539062 405.953125 581.75 C 405.617188 581.671875 406.730469 581.980469 406.625 581.949219 C 407.132812 582.09375 407.652344 582.289062 408.171875 582.394531 C 408.507812 582.5 408.535156 582.519531 408.25 582.433594 C 407.394531 582.238281 406.847656 581.585938 406.605469 580.480469 L 410.707031 573.242188 C 409.902344 573.414062 408.699219 573.539062 407.433594 573.367188 C 408.230469 573.480469 406.125 573.019531 406.269531 573.046875 L 405.605469 572.835938 C 406.433594 573.136719 406.988281 573.796875 407.257812 574.808594 L 407.257812 577.933594 L 407.375 577.441406 L 405.867188 580.039062 C 403.289062 580.691406 402.683594 581.019531 404.058594 581.027344 C 404.589844 581.078125 405.117188 581.132812 405.644531 581.183594 C 406.441406 581.257812 407.230469 581.335938 408.027344 581.414062 C 409.746094 581.585938 411.46875 581.75 413.1875 581.921875 C 414.90625 582.09375 416.636719 582.210938 418.347656 582.433594 C 417.164062 582.289062 418.789062 582.546875 419.03125 582.59375 C 420.257812 582.835938 418.722656 582.546875 418.453125 582.039062 C 419.15625 579.355469 419.855469 576.671875 420.566406 573.992188 C 420.902344 573.835938 419.386719 574.367188 419.117188 574.441406 C 418.789062 574.527344 418.460938 574.605469 418.136719 574.683594 C 418.105469 574.683594 417.011719 574.875 417.695312 574.789062 C 417.03125 574.875 416.339844 574.894531 415.667969 574.882812 C 415.214844 574.882812 414.761719 574.867188 414.3125 574.835938 C 414.195312 574.835938 413.292969 574.691406 413.859375 574.789062 C 412.496094 574.558594 410.957031 574.085938 410.160156 573.652344 C 409.902344 573.511719 409.585938 573.261719 409.304688 573.171875 C 408.441406 572.894531 409.390625 573.144531 409.304688 573.171875 L 409.21875 575.683594 C 409.777344 576.960938 409.621094 577.914062 408.757812 578.539062 C 408.785156 578.769531 407.902344 578.683594 408.84375 578.585938 C 411.46875 578.316406 414.78125 577.988281 417.40625 578.316406 C 419.125 578.527344 420.855469 578.980469 422.507812 579.507812 C 423.210938 579.730469 423.949219 579.953125 424.621094 580.257812 C 423.910156 579.933594 424.84375 580.414062 424.910156 580.453125 C 425.457031 580.84375 425.179688 580.796875 425.167969 580.652344 C 425.054688 579.335938 423.765625 579.933594 424.527344 578.007812 L 425.5625 576.847656 C 426.839844 575.902344 427.070312 575.527344 426.273438 575.742188 C 426.121094 575.652344 425.121094 575.855469 424.640625 575.882812 C 422.960938 575.992188 421.277344 575.972656 419.597656 575.847656 C 416.90625 575.632812 413.515625 574.808594 410.671875 573.605469 C 410.527344 573.546875 409.535156 573.058594 409.125 572.855469 C 408.804688 572.691406 408.488281 572.492188 408.171875 572.347656 C 405.75 571.316406 412.140625 571.125 409.035156 576.75 C 408.816406 577.152344 408.304688 577.472656 408.046875 577.816406 C 407.835938 578.097656 408.324219 577.757812 408.527344 577.757812 C 407.671875 577.769531 408.738281 577.730469 408.863281 577.722656 C 409.304688 577.683594 409.738281 577.632812 410.179688 577.605469 C 413.285156 577.363281 416.378906 577.421875 419.472656 577.691406 C 419.527344 577.691406 420.613281 577.828125 419.882812 577.730469 C 420.316406 577.789062 420.757812 577.863281 421.191406 577.941406 C 422.054688 578.097656 422.921875 578.277344 423.777344 578.480469 C 425.46875 578.894531 427.160156 579.402344 428.773438 580.058594 C 428.636719 580 428.253906 579.828125 428.867188 580.105469 C 429.367188 580.328125 429.859375 580.566406 430.339844 580.808594 C 431.019531 581.152344 431.683594 581.527344 432.328125 581.921875 C 433.066406 582.375 433.828125 582.835938 434.507812 583.375 C 435.046875 583.796875 434.691406 583.488281 434.558594 583.421875 C 435.09375 584.027344 435.132812 583.96875 434.671875 583.269531 C 434.34375 582.507812 434.269531 582.5 434.433594 583.21875 L 434.433594 580.09375 C 434.691406 579.527344 435.054688 579.066406 435.546875 578.722656 C 435.882812 578.480469 435.796875 578.507812 435.296875 578.828125 C 435.039062 578.933594 434.078125 579.453125 434.125 579.433594 C 433.347656 579.777344 431.980469 580.183594 430.933594 580.441406 C 428.609375 581.019531 427.175781 581.113281 424.621094 581.125 C 419.511719 581.144531 415.347656 580.394531 410.351562 579.460938 C 407.230469 578.882812 404.011719 580.328125 403.117188 583.566406 C 402.328125 586.429688 404.089844 590.21875 407.21875 590.804688 Z M 407.203125 590.796875 " fill-opacity="1" fill-rule="nonzero"/><path fill="#e96474" d="M 572.316406 239.132812 C 570.835938 217.464844 541.421875 224.367188 538.234375 241.546875 C 538.464844 231.703125 543.183594 219.800781 531.265625 215.367188 C 525.894531 213.367188 517.535156 215.339844 513.519531 223.769531 C 508.359375 234.617188 509.859375 247.5 515.597656 257.816406 C 518.105469 262.324219 521.082031 265.9375 524.878906 269.378906 C 525.992188 270.390625 531.566406 273.898438 531.566406 273.898438 C 546.4375 272.476562 573.613281 258.066406 572.316406 239.132812 Z M 572.316406 239.132812 " fill-opacity="1" fill-rule="nonzero"/><path fill="#e96474" d="M 578.195312 239.132812 C 577.675781 232.894531 575.523438 227.125 570.34375 223.300781 C 566.308594 220.320312 561.101562 219.289062 556.164062 219.859375 C 545.277344 221.105469 534.8125 228.875 532.554688 239.988281 C 536.40625 240.507812 540.25 241.027344 544.105469 241.558594 C 544.304688 235.414062 545.816406 229.394531 544.804688 223.242188 C 543.691406 216.453125 538.570312 211.300781 532.027344 209.445312 C 525.644531 207.636719 518.738281 209.617188 513.78125 213.847656 C 507.515625 219.195312 504.988281 228.164062 504.535156 236.117188 C 503.679688 251.390625 511.609375 267.648438 524.3125 276.207031 C 525.703125 277.148438 527.105469 278.195312 528.597656 278.984375 C 531.59375 280.570312 535.6875 279.339844 538.820312 278.554688 C 544.691406 277.0625 550.425781 274.601562 555.671875 271.582031 C 567.269531 264.917969 578.925781 253.59375 578.195312 239.144531 C 577.8125 231.605469 566.050781 231.558594 566.433594 239.144531 C 566.644531 243.277344 565.703125 246.105469 563.226562 249.816406 C 561.148438 252.921875 557.699219 256.132812 554.425781 258.441406 C 550.8125 260.988281 546.4375 263.410156 542.652344 264.929688 C 540.578125 265.757812 538.453125 266.46875 536.292969 267.042969 C 535.398438 267.285156 534.503906 267.496094 533.601562 267.679688 C 533.121094 267.773438 532.652344 267.863281 532.171875 267.949219 C 530.875 268.167969 532.929688 267.882812 531.554688 268.023438 L 534.523438 268.832031 C 533.632812 268.273438 532.746094 267.707031 531.871094 267.132812 C 531.152344 266.660156 530.429688 266.1875 529.730469 265.707031 C 529.355469 265.449219 527.710938 263.949219 529.027344 265.238281 C 525.511719 261.804688 522.503906 258.382812 520.199219 253.996094 C 515.863281 245.757812 514.5 234.921875 518.796875 226.367188 C 520.363281 223.242188 522.648438 221.328125 525.675781 220.675781 C 526.414062 220.539062 526.519531 220.511719 526.011719 220.597656 C 526.425781 220.570312 526.835938 220.550781 527.25 220.558594 C 527.65625 220.558594 528.058594 220.589844 528.460938 220.625 C 527.875 220.558594 527.933594 220.597656 528.625 220.722656 C 530.039062 221.144531 531.382812 221.847656 532.160156 222.730469 C 531.890625 222.433594 532.871094 223.828125 533.007812 224.15625 C 532.726562 223.5 533.304688 225.492188 533.351562 225.742188 C 533.226562 225.050781 533.4375 227.175781 533.449219 227.453125 C 533.46875 228.375 533.429688 229.296875 533.371094 230.210938 C 533.132812 234.011719 532.46875 237.757812 532.332031 241.566406 C 532.113281 248.09375 542.546875 249.710938 543.882812 243.132812 C 544.066406 242.230469 544.296875 241.34375 544.605469 240.480469 C 545.171875 238.902344 544.085938 241.363281 544.871094 239.902344 C 545.085938 239.507812 545.296875 239.113281 545.535156 238.730469 C 545.777344 238.347656 546.015625 237.972656 546.277344 237.605469 C 545.796875 238.277344 546.257812 237.613281 546.527344 237.316406 C 547.199219 236.585938 547.878906 235.882812 548.621094 235.230469 C 548.945312 234.941406 549.167969 234.769531 548.6875 235.132812 C 549.109375 234.808594 549.5625 234.5 550.011719 234.210938 C 550.773438 233.730469 551.5625 233.316406 552.359375 232.894531 C 553.320312 232.394531 552.050781 232.980469 552.664062 232.742188 C 553.078125 232.578125 553.492188 232.433594 553.914062 232.289062 C 554.828125 231.992188 555.75 231.777344 556.691406 231.578125 C 557.632812 231.375 555.308594 231.664062 556.902344 231.539062 C 557.324219 231.511719 557.738281 231.472656 558.160156 231.460938 C 558.585938 231.453125 558.988281 231.460938 559.402344 231.460938 C 559.429688 231.460938 560.9375 231.605469 560.082031 231.492188 C 559.226562 231.375 560.5625 231.597656 560.726562 231.636719 C 561.1875 231.761719 561.640625 231.894531 562.101562 232.027344 C 563.15625 232.335938 561.621094 231.742188 562.214844 232.066406 C 562.5625 232.261719 562.910156 232.433594 563.246094 232.636719 C 563.390625 232.722656 564.40625 233.511719 563.800781 233 C 563.195312 232.492188 564.167969 233.386719 564.273438 233.5 C 564.273438 233.5 565.203125 234.625 564.761719 234.027344 C 564.320312 233.433594 565.078125 234.566406 565.15625 234.703125 C 565.214844 234.796875 565.925781 236.296875 565.492188 235.242188 C 565.675781 235.683594 565.808594 236.144531 565.945312 236.605469 C 566.269531 237.730469 566.375 238.578125 566.425781 239.132812 C 566.683594 242.296875 568.941406 245.019531 572.304688 245.019531 C 575.285156 245.019531 578.453125 242.316406 578.1875 239.132812 Z M 578.195312 239.132812 " fill-opacity="1" fill-rule="nonzero"/><path fill="#ffffff" d="M 569.988281 237.738281 C 570.085938 236.566406 569.625 234.992188 568.972656 234.027344 C 567.933594 232.511719 566.558594 231.386719 564.761719 230.875 C 563.425781 230.5 562.214844 230.539062 560.882812 230.808594 C 560.246094 230.941406 559.632812 231.210938 559.066406 231.53125 C 558.949219 231.597656 558.855469 231.664062 558.746094 231.742188 C 558.285156 232.066406 557.757812 232.421875 557.363281 232.847656 C 554.441406 235.882812 554.40625 240.335938 555.078125 244.230469 C 555.789062 248.34375 558.882812 252.296875 563.417969 252.132812 C 566.242188 252.027344 569.058594 250.324219 570.296875 247.738281 C 570.71875 246.863281 571.074219 245.988281 571.21875 245.039062 C 571.375 244.007812 571.515625 242.980469 571.527344 241.933594 C 571.527344 241 571.382812 240.066406 571.25 239.144531 C 571.113281 238.222656 570.738281 237.363281 570.324219 236.460938 C 569.96875 235.683594 569.433594 234.953125 568.808594 234.375 C 568.335938 233.933594 567.769531 233.472656 567.195312 233.152344 C 566.761719 232.921875 566.15625 232.683594 565.695312 232.519531 C 565.550781 232.472656 565.417969 232.421875 565.273438 232.394531 C 563.707031 232.085938 562.160156 232.164062 560.738281 232.992188 C 559.515625 233.703125 558.355469 235.105469 558.035156 236.507812 C 557.691406 238.019531 557.769531 239.710938 558.632812 241.046875 C 559.429688 242.277344 560.660156 243.460938 562.148438 243.75 C 562.292969 243.777344 562.4375 243.816406 562.570312 243.875 L 561.167969 243.277344 C 561.292969 243.335938 561.417969 243.402344 561.535156 243.488281 L 560.34375 242.566406 C 560.476562 242.671875 560.601562 242.796875 560.71875 242.933594 L 559.796875 241.738281 C 559.949219 241.953125 560.074219 242.164062 560.179688 242.402344 L 559.582031 241 C 559.746094 241.414062 559.84375 241.835938 559.910156 242.269531 L 559.699219 240.703125 C 559.8125 241.613281 559.785156 242.546875 559.679688 243.46875 L 559.890625 241.902344 C 559.832031 242.355469 559.726562 242.777344 559.554688 243.199219 L 560.152344 241.796875 C 560.046875 242.027344 559.921875 242.230469 559.765625 242.433594 L 560.6875 241.238281 C 560.5625 241.382812 560.429688 241.519531 560.285156 241.644531 L 561.476562 240.71875 C 561.324219 240.835938 561.167969 240.933594 560.996094 241.019531 L 562.398438 240.421875 C 562.226562 240.488281 562.054688 240.539062 561.871094 240.566406 L 563.4375 240.355469 C 563.292969 240.363281 563.167969 240.355469 563.023438 240.355469 L 564.589844 240.566406 C 564.464844 240.539062 564.351562 240.507812 564.226562 240.46875 L 565.628906 241.066406 C 565.472656 241 565.339844 240.921875 565.195312 240.828125 L 566.386719 241.75 C 566.222656 241.613281 566.078125 241.46875 565.945312 241.296875 L 566.867188 242.488281 C 566.65625 242.203125 566.484375 241.894531 566.347656 241.558594 L 566.945312 242.960938 C 566.664062 242.257812 566.511719 241.507812 566.394531 240.757812 L 566.609375 242.324219 C 566.464844 241.277344 566.453125 240.21875 566.578125 239.164062 L 566.367188 240.730469 C 566.433594 240.257812 566.539062 239.816406 566.714844 239.375 L 566.117188 240.777344 C 566.214844 240.566406 566.320312 240.375 566.453125 240.191406 L 565.53125 241.382812 C 565.648438 241.238281 565.761719 241.113281 565.90625 241 L 564.714844 241.921875 C 564.847656 241.828125 564.972656 241.738281 565.128906 241.671875 L 563.726562 242.269531 C 563.832031 242.230469 563.925781 242.210938 564.042969 242.191406 L 562.476562 242.402344 C 562.621094 242.382812 562.765625 242.382812 562.910156 242.402344 L 561.34375 242.191406 C 561.484375 242.210938 561.621094 242.25 561.765625 242.296875 L 560.363281 241.703125 C 560.496094 241.757812 560.613281 241.828125 560.726562 241.902344 L 559.535156 240.980469 C 559.613281 241.046875 559.6875 241.113281 559.757812 241.191406 L 558.835938 240 C 558.890625 240.085938 558.941406 240.152344 558.988281 240.25 L 558.390625 238.847656 C 558.429688 238.941406 558.449219 239.027344 558.460938 239.132812 L 558.25 237.566406 C 558.25 237.632812 558.25 237.703125 558.25 237.777344 C 558.132812 239.210938 558.988281 240.960938 559.96875 241.941406 C 560.949219 242.921875 562.660156 243.730469 564.128906 243.664062 C 565.597656 243.59375 567.222656 243.09375 568.289062 241.941406 L 569.210938 240.75 C 569.738281 239.835938 570.007812 238.847656 570.019531 237.777344 Z M 569.988281 237.738281 " fill-opacity="1" fill-rule="nonzero"/><path fill="#ffa59b" d="M 436.507812 567.886719 C 434.613281 564.5 432.875 560.789062 430.109375 558.011719 C 428.4375 556.339844 426.34375 555.039062 424.054688 554.386719 C 422.941406 554.070312 421.699219 553.878906 420.539062 553.933594 C 418.742188 554.03125 417.425781 554.472656 415.800781 555.164062 L 414.609375 556.089844 C 414.035156 556.617188 413.628906 557.25 413.390625 557.984375 C 412.929688 559.078125 412.609375 560.675781 413.089844 561.808594 C 413.898438 563.710938 414.746094 565.355469 416.261719 566.816406 C 417.425781 567.933594 418.789062 568.894531 420.203125 569.683594 C 422.46875 570.953125 424.871094 571.902344 426.945312 573.5 L 425.753906 572.578125 C 426.976562 573.539062 428.0625 574.632812 429.011719 575.867188 L 428.089844 574.671875 C 428.6875 575.460938 429.195312 576.289062 429.589844 577.191406 L 428.992188 575.789062 C 429.167969 576.25 429.300781 576.703125 429.386719 577.183594 L 429.175781 575.617188 C 429.222656 576 429.234375 576.355469 429.214844 576.738281 L 429.425781 575.171875 C 429.386719 575.460938 429.332031 575.730469 429.253906 576.007812 C 428.40625 578.96875 430.289062 582.546875 433.355469 583.25 C 436.5 583.960938 439.679688 582.308594 440.589844 579.144531 C 442.214844 573.480469 438.46875 567.761719 434.191406 564.347656 C 432.433594 562.945312 430.636719 561.800781 428.628906 560.800781 C 427.128906 560.050781 425.613281 559.320312 424.257812 558.320312 L 425.449219 559.242188 C 424.84375 558.78125 424.304688 558.269531 423.824219 557.675781 L 424.746094 558.867188 C 424.421875 558.433594 424.152344 557.992188 423.929688 557.5 L 424.527344 558.90625 L 424.4375 558.695312 C 423.535156 560.90625 422.632812 563.125 421.738281 565.335938 L 421.980469 565.230469 L 420.578125 565.828125 C 420.914062 565.710938 421.238281 565.625 421.585938 565.558594 L 420.019531 565.769531 C 420.546875 565.703125 421.058594 565.703125 421.585938 565.769531 C 421.066406 565.703125 420.546875 565.625 420.019531 565.558594 C 420.644531 565.65625 421.230469 565.828125 421.816406 566.066406 L 420.414062 565.472656 C 420.988281 565.730469 421.519531 566.050781 422.039062 566.425781 L 420.847656 565.5 C 421.59375 566.097656 422.238281 566.78125 422.835938 567.53125 L 421.914062 566.335938 C 423.660156 568.644531 424.949219 571.316406 426.359375 573.835938 C 427.871094 576.519531 431.769531 577.652344 434.402344 575.953125 C 437.121094 574.203125 438.121094 570.777344 436.515625 567.90625 Z M 436.507812 567.886719 " fill-opacity="1" fill-rule="nonzero"/><path fill="#ffa59b" d="M 383.6875 572.394531 C 390.128906 570.375 396.574219 568.355469 403.011719 566.335938 C 405.816406 565.453125 407.613281 562.820312 407.222656 559.886719 C 406.867188 557.261719 404.359375 554.453125 401.445312 554.78125 C 396.957031 555.289062 392.710938 556.519531 388.792969 558.828125 C 384.871094 561.136719 381.757812 564.203125 379.164062 567.855469 C 378.328125 569.039062 378.203125 571.046875 378.566406 572.394531 C 378.933594 573.742188 380 575.242188 381.269531 575.914062 C 384.292969 577.519531 387.40625 576.488281 389.308594 573.796875 C 389.347656 573.742188 389.847656 573.125 389.839844 573.078125 C 389.878906 573.210938 388.859375 574.308594 389.570312 573.453125 C 389.914062 573.027344 390.28125 572.625 390.664062 572.230469 C 391.050781 571.835938 391.433594 571.453125 391.835938 571.085938 C 391.953125 570.980469 393.105469 570.117188 393.085938 570.019531 C 393.105469 570.097656 391.800781 570.980469 392.730469 570.308594 C 392.933594 570.164062 393.132812 570.019531 393.335938 569.875 C 393.828125 569.539062 394.335938 569.222656 394.84375 568.921875 C 395.796875 568.375 396.777344 567.894531 397.785156 567.460938 C 397.3125 567.664062 396.851562 567.855469 396.382812 568.058594 C 398.324219 567.261719 400.332031 566.710938 402.40625 566.414062 L 400.839844 566.625 C 401.042969 566.597656 401.234375 566.578125 401.4375 566.558594 L 399.871094 555.003906 C 393.433594 557.019531 386.984375 559.039062 380.546875 561.058594 C 377.617188 561.980469 375.4375 565.203125 376.445312 568.296875 C 377.453125 571.394531 380.539062 573.394531 383.679688 572.402344 Z M 383.6875 572.394531 " fill-opacity="1" fill-rule="nonzero"/><path fill="#e96474" d="M 401.226562 569.742188 C 405.730469 574.546875 410.910156 579.058594 416.753906 582.164062 C 417.058594 582.324219 417.367188 582.46875 417.664062 582.644531 C 417.789062 582.710938 417.914062 582.789062 418.03125 582.863281 C 417.617188 582.519531 417.578125 582.488281 417.886719 582.769531 C 417.570312 582.316406 417.519531 582.269531 417.734375 582.613281 C 417.570312 582.394531 417.484375 582.144531 417.484375 581.875 C 417.453125 581.519531 417.445312 581.507812 417.464844 581.855469 C 417.433594 582.289062 417.464844 582.199219 417.511719 581.585938 C 417.386719 581.988281 417.425781 581.921875 417.644531 581.394531 C 417.570312 581.558594 417.484375 581.699219 417.386719 581.855469 L 417.675781 581.46875 C 417.386719 581.75 417.433594 581.730469 417.839844 581.414062 C 417.683594 581.527344 417.519531 581.625 417.347656 581.71875 C 416.953125 581.914062 417.003906 581.894531 417.492188 581.683594 C 417.492188 581.710938 416.675781 581.914062 416.648438 581.921875 C 416.203125 582 416.261719 582 416.808594 581.921875 C 416.617188 581.941406 416.417969 581.949219 416.222656 581.960938 C 415.917969 581.96875 415.597656 581.96875 415.292969 581.960938 C 415.082031 581.960938 414.871094 581.941406 414.65625 581.921875 C 414.207031 581.875 414.234375 581.875 414.753906 581.941406 C 414.484375 581.96875 414.089844 581.816406 413.820312 581.738281 C 413.410156 581.632812 413.015625 581.488281 412.601562 581.363281 C 411.757812 581.105469 413.082031 581.652344 412.363281 581.269531 C 411.988281 581.066406 411.601562 580.882812 411.238281 580.664062 C 411.082031 580.566406 409.988281 579.769531 410.726562 580.355469 C 409.871094 579.683594 409.085938 579.203125 407.949219 579.203125 C 406.988281 579.203125 405.835938 579.625 405.175781 580.355469 C 403.878906 581.769531 403.453125 584.546875 405.175781 585.902344 C 408.066406 588.171875 411.265625 589.546875 414.964844 589.785156 C 418.472656 590.015625 422.449219 588.824219 424.285156 585.59375 C 425.238281 583.929688 425.535156 581.941406 425.0625 580.078125 C 424.59375 578.210938 423.074219 576.664062 421.363281 575.742188 C 420.078125 575.046875 418.800781 574.347656 417.570312 573.539062 C 416.953125 573.136719 416.339844 572.722656 415.742188 572.289062 C 415.464844 572.085938 415.1875 571.886719 414.90625 571.683594 C 414.820312 571.617188 414.246094 571.183594 414.621094 571.472656 C 414.957031 571.730469 414.390625 571.289062 414.332031 571.25 C 411.632812 569.105469 409.113281 566.730469 406.75 564.210938 C 405.347656 562.710938 402.609375 562.683594 401.207031 564.210938 C 399.734375 565.816406 399.707031 568.164062 401.207031 569.761719 Z M 401.226562 569.742188 " fill-opacity="1" fill-rule="nonzero"/><path fill="#e96474" d="M 418.761719 589.796875 C 418.761719 589.796875 418.835938 589.796875 418.875 589.796875 L 417.839844 589.652344 C 417.894531 589.660156 417.953125 589.679688 418.011719 589.699219 L 417.078125 589.304688 C 417.164062 589.34375 417.234375 589.390625 417.308594 589.441406 L 416.511719 588.824219 C 416.628906 588.910156 416.722656 589.015625 416.808594 589.132812 L 416.195312 588.335938 C 416.359375 588.546875 416.484375 588.785156 416.578125 589.027344 L 416.1875 588.09375 C 416.347656 588.480469 416.453125 588.894531 416.503906 589.304688 L 416.359375 588.269531 C 416.40625 588.671875 416.417969 589.066406 416.359375 589.46875 L 416.503906 588.429688 C 416.464844 588.710938 416.386719 588.980469 416.28125 589.238281 L 416.675781 588.304688 C 416.589844 588.507812 416.484375 588.699219 416.347656 588.882812 L 416.964844 588.085938 C 416.839844 588.25 416.695312 588.394531 416.53125 588.519531 L 417.328125 587.902344 C 417.234375 587.96875 417.136719 588.035156 417.03125 588.09375 C 416.183594 588.566406 415.484375 589.507812 415.226562 590.441406 C 415.0625 590.960938 415.042969 591.480469 415.15625 592.007812 C 415.175781 592.527344 415.339844 593.015625 415.617188 593.46875 C 416.15625 594.304688 416.28125 593.84375 418.375 593.691406 C 419.441406 593.613281 421.355469 593.277344 422.304688 592.746094 C 424.421875 591.566406 424.179688 591.375 424.246094 589.019531 C 424.265625 588.421875 424.152344 587.816406 424.066406 587.230469 C 424.027344 586.96875 423.976562 586.71875 423.902344 586.460938 C 423.738281 585.921875 423.507812 585.394531 423.265625 584.894531 C 423.027344 584.394531 422.679688 584 422.34375 583.585938 C 422.277344 583.5 422.210938 583.421875 422.132812 583.34375 C 421.875 583.09375 421.546875 582.863281 421.257812 582.664062 C 421.21875 582.632812 421.183594 582.605469 421.144531 582.585938 C 421.105469 582.566406 421.066406 582.546875 421.027344 582.527344 C 420.722656 582.375 420.347656 582.199219 420.019531 582.105469 C 419.816406 582.046875 419.578125 582.039062 419.394531 582.007812 C 419.230469 581.988281 418.960938 581.933594 418.75 581.933594 C 417.722656 581.960938 416.714844 582.34375 415.972656 583.085938 C 415.589844 583.441406 415.320312 583.863281 415.167969 584.34375 C 414.917969 584.816406 414.8125 585.316406 414.832031 585.855469 C 414.878906 586.875 415.207031 587.921875 415.984375 588.632812 C 416.761719 589.34375 417.703125 589.816406 418.761719 589.785156 Z M 418.761719 589.796875 " fill-opacity="1" fill-rule="nonzero"/></svg>