<svg xmlns="http://www.w3.org/2000/svg" xmlns:xlink="http://www.w3.org/1999/xlink" width="1200" zoomAndPan="magnify" viewBox="0 0 900 899.99999" height="1200" preserveAspectRatio="xMidYMid meet" version="1.0"><defs><clipPath id="a7517c97b2"><path d="M 491 192 L 787.5 192 L 787.5 774.75 L 491 774.75 Z M 491 192 " clip-rule="nonzero"/></clipPath><clipPath id="ce7625a7a2"><path d="M 264 103.5 L 362 103.5 L 362 201 L 264 201 Z M 264 103.5 " clip-rule="nonzero"/></clipPath></defs><rect x="-90" width="1080" fill="#ffffff" y="-89.999999" height="1079.999988" fill-opacity="1"/><rect x="-90" width="1080" fill="#ffffff" y="-89.999999" height="1079.999988" fill-opacity="1"/><path fill="#f67970" d="M 470.640625 257.375 C 365.59375 194.035156 199.453125 164.210938 171.679688 315.730469 C 139.519531 491.140625 367.085938 727.128906 470.640625 758.230469 Z M 470.640625 257.375 " fill-opacity="1" fill-rule="evenodd"/><path fill="#ffa7a1" d="M 277.59375 231.125 C 282.496094 236.84375 258.355469 244.019531 238.742188 260.847656 C 219.101562 277.695312 211.402344 297.878906 206.472656 292.136719 C 201.566406 286.421875 201.324219 257.003906 220.964844 240.152344 C 240.578125 223.292969 272.691406 225.410156 277.59375 231.125 Z M 277.59375 231.125 " fill-opacity="1" fill-rule="evenodd"/><path fill="#f67970" d="M 470.640625 737.449219 C 463.675781 742.160156 456.847656 746.472656 450.265625 750.289062 C 457.472656 753.675781 464.300781 756.355469 470.640625 758.25 Z M 470.640625 737.449219 " fill-opacity="1" fill-rule="evenodd"/><g clip-path="url(#a7517c97b2)"><path fill="#e15d7c" d="M 491.203125 748.746094 C 486.328125 791.710938 607.789062 779.355469 646.183594 726.585938 C 686.769531 729.808594 724.949219 689.6875 721.183594 639.59375 C 755.808594 620.140625 769.332031 584.574219 761.769531 532.914062 C 792.683594 492.632812 795.773438 455.542969 771.039062 421.675781 C 786.78125 355.46875 768.003906 315.214844 714.707031 300.90625 C 721.289062 254.664062 680.351562 221.886719 634.046875 225.457031 C 570.320312 164.964844 500.765625 191.488281 492.585938 279.09375 C 491.664062 592.1875 491.203125 748.746094 491.203125 748.746094 Z M 491.203125 748.746094 " fill-opacity="1" fill-rule="evenodd"/></g><path fill="#3f1d29" d="M 569.75 722.980469 C 571.972656 724.226562 572.757812 727.019531 571.539062 729.210938 C 570.292969 731.433594 567.5 732.214844 565.308594 731 C 554.988281 725.253906 546.613281 716.800781 541.492188 707.347656 C 536.398438 697.949219 534.476562 687.492188 536.917969 677.605469 C 540.601562 662.597656 553.414062 652.710938 566.097656 642.953125 C 578.535156 633.394531 590.777344 623.9375 591.539062 610.796875 C 592.867188 586.929688 576.664062 581.457031 561.195312 576.230469 C 546.644531 571.300781 532.636719 566.558594 529.222656 549.976562 C 527.460938 541.386719 529.578125 534.207031 531.847656 526.515625 C 532.203125 525.378906 532.527344 524.265625 532.90625 522.886719 C 533.609375 520.417969 536.128906 519.011719 538.570312 519.691406 C 541.007812 520.367188 542.445312 522.914062 541.765625 525.351562 C 541.4375 526.460938 541.03125 527.792969 540.65625 529.121094 C 538.703125 535.675781 536.890625 541.828125 538.214844 548.164062 C 540.546875 559.542969 552.117188 563.472656 564.144531 567.535156 C 582.839844 573.875 602.429688 580.484375 600.695312 611.3125 C 599.71875 628.652344 585.792969 639.351562 571.703125 650.214844 C 560.296875 658.992188 548.730469 667.878906 545.800781 679.773438 C 543.957031 687.359375 545.527344 695.515625 549.566406 702.988281 C 553.871094 710.953125 560.972656 718.105469 569.75 722.980469 Z M 731.828125 353.789062 C 732.34375 356.28125 730.71875 358.691406 728.222656 359.207031 C 725.726562 359.695312 723.320312 358.070312 722.832031 355.578125 C 722.367188 353.355469 721.015625 351.347656 719.117188 349.695312 C 717.191406 348.042969 714.730469 346.773438 712.019531 346.066406 C 709.308594 345.332031 706.378906 345.199219 703.566406 345.738281 C 700.394531 346.390625 697.363281 347.933594 694.949219 350.640625 L 694.976562 350.75 C 696.355469 359.910156 694.59375 370.988281 690.179688 380.28125 C 685.574219 389.925781 678.070312 397.785156 668.125 399.972656 C 667.445312 400.136719 666.878906 400.246094 666.472656 400.300781 C 663.976562 400.679688 661.625 398.945312 661.242188 396.453125 C 660.863281 393.929688 662.597656 391.578125 665.121094 391.222656 C 665.609375 391.140625 665.960938 391.085938 666.148438 391.035156 C 673.003906 389.515625 678.394531 383.636719 681.890625 376.324219 C 685.546875 368.660156 687.011719 359.554688 685.875 352.132812 C 685.765625 351.371094 685.65625 350.777344 685.574219 350.371094 C 682.351562 335.90625 671.648438 334.144531 661.460938 332.492188 C 652.492188 331.03125 643.820312 329.621094 638.160156 321.84375 C 631.632812 312.902344 630.84375 302.234375 630.035156 291.476562 C 629.410156 283.1875 628.789062 274.84375 625.347656 268.234375 C 624.375 266.390625 622.285156 264.929688 619.847656 263.929688 C 616.730469 262.628906 613.261719 262.140625 610.660156 262.574219 C 608.164062 262.957031 605.808594 261.25 605.402344 258.753906 C 605.023438 256.261719 606.730469 253.90625 609.222656 253.5 C 613.398438 252.847656 618.734375 253.527344 623.367188 255.449219 C 627.621094 257.210938 631.386719 260.054688 633.449219 264.011719 C 637.808594 272.328125 638.515625 281.59375 639.195312 290.800781 C 639.898438 300.253906 640.601562 309.683594 645.558594 316.457031 C 649 321.171875 655.855469 322.285156 662.957031 323.449219 C 674.304688 325.289062 686.171875 327.214844 692.136719 340.921875 C 695.117188 338.753906 698.394531 337.398438 701.78125 336.722656 C 705.984375 335.878906 710.34375 336.125 714.355469 337.183594 C 718.394531 338.265625 722.128906 340.1875 725.140625 342.765625 C 728.519531 345.691406 730.988281 349.484375 731.828125 353.789062 Z M 541.488281 383.402344 C 541.515625 385.921875 539.484375 387.976562 536.9375 388.003906 C 534.417969 388.03125 532.359375 386 532.335938 383.453125 C 532.308594 379.660156 531.683594 375.464844 531.089844 371.234375 C 529.734375 361.96875 528.382812 352.679688 532.441406 343.820312 C 534.882812 338.480469 541.816406 334.605469 549.785156 330.140625 C 559.835938 324.503906 571.839844 317.785156 574.628906 308.167969 C 575.492188 305.164062 575.628906 302.128906 575.171875 299.226562 C 574.410156 294.378906 571.972656 289.855469 568.535156 286.199219 C 565.039062 282.460938 560.542969 279.644531 555.691406 278.234375 C 552.441406 277.289062 549.054688 276.992188 545.722656 277.527344 C 543.226562 277.9375 540.875 276.230469 540.464844 273.707031 C 540.085938 271.214844 541.792969 268.859375 544.289062 268.480469 C 548.972656 267.71875 553.742188 268.125 558.242188 269.425781 C 564.660156 271.296875 570.625 275.035156 575.230469 279.9375 C 579.863281 284.894531 583.167969 291.097656 584.226562 297.789062 C 584.90625 301.960938 584.6875 306.347656 583.4375 310.734375 C 579.589844 323.953125 565.824219 331.679688 554.285156 338.152344 C 547.699219 341.835938 541.957031 345.058594 540.792969 347.605469 C 537.867188 353.996094 539.03125 361.964844 540.167969 369.953125 C 540.816406 374.378906 541.460938 378.824219 541.488281 383.402344 Z M 661.839844 440.585938 C 664.199219 441.535156 665.308594 444.21875 664.363281 446.570312 C 663.417969 448.902344 660.730469 450.039062 658.378906 449.09375 C 654.691406 447.605469 650.414062 446.597656 646.128906 445.597656 C 636.429688 443.320312 626.730469 441.078125 620.335938 433.054688 C 614.835938 426.199219 614.78125 417.394531 614.726562 408.699219 C 614.671875 401.035156 614.617188 393.445312 610.148438 389.679688 C 604.648438 385.019531 595.574219 386.59375 586.496094 388.164062 C 581.265625 389.054688 576.007812 389.976562 570.832031 389.871094 C 568.3125 389.816406 566.28125 387.726562 566.335938 385.183594 C 566.390625 382.664062 568.480469 380.660156 571.023438 380.714844 C 575.226562 380.796875 580.074219 379.957031 584.949219 379.089844 C 596.140625 377.167969 607.304688 375.242188 616.082031 382.695312 C 623.75 389.167969 623.804688 398.84375 623.886719 408.675781 C 623.941406 415.773438 623.992188 422.953125 627.460938 427.3125 C 631.902344 432.839844 640.0625 434.738281 648.21875 436.664062 C 652.847656 437.746094 657.480469 438.828125 661.839844 440.585938 Z M 707.714844 410.953125 C 705.222656 410.464844 703.597656 408.054688 704.058594 405.5625 C 704.546875 403.09375 706.957031 401.441406 709.421875 401.929688 C 727.519531 405.398438 737.789062 417.808594 740.933594 432.625 C 742.3125 439.152344 742.257812 446.140625 740.851562 453.023438 C 739.441406 459.878906 736.675781 466.621094 732.613281 472.6875 C 721.855469 488.78125 702.078125 500.160156 674.414062 496.039062 C 671.894531 495.660156 670.164062 493.332031 670.539062 490.8125 C 670.890625 488.316406 673.21875 486.554688 675.742188 486.9375 C 699.339844 490.457031 716.03125 481 725 467.589844 C 728.386719 462.527344 730.691406 456.890625 731.855469 451.203125 C 733.015625 445.539062 733.070312 439.800781 731.933594 434.488281 C 729.554688 423.117188 721.640625 413.632812 707.714844 410.953125 Z M 709.664062 591.671875 C 708.253906 593.785156 705.40625 594.351562 703.324219 592.941406 C 701.210938 591.535156 700.644531 588.691406 702.050781 586.578125 C 702.378906 586.117188 702.675781 585.632812 702.972656 585.144531 C 707.574219 577.425781 708.746094 568.265625 707.222656 560.003906 C 705.734375 551.878906 701.640625 544.699219 695.65625 540.6875 C 695.382812 540.496094 695.085938 540.304688 694.761719 540.117188 C 683.167969 533.207031 668.777344 537.785156 654.449219 542.339844 C 636.996094 547.867188 619.628906 553.367188 604.109375 541.445312 C 594.574219 534.132812 592.894531 517.089844 591.1875 499.484375 C 589.425781 481.5 587.609375 462.832031 577.855469 457.847656 C 572.519531 455.113281 565.960938 454.109375 559.542969 455.085938 C 553.6875 455.980469 548.027344 458.582031 543.636719 463.078125 C 541.847656 464.867188 538.949219 464.894531 537.132812 463.132812 C 535.34375 461.34375 535.316406 458.445312 537.078125 456.632812 C 542.960938 450.648438 550.464844 447.179688 558.1875 446.011719 C 566.421875 444.738281 574.984375 446.09375 582.03125 449.695312 C 596.257812 456.957031 598.3125 478.167969 600.316406 498.621094 C 601.835938 514.199219 603.296875 529.261719 609.667969 534.164062 C 621.425781 543.1875 636.519531 538.390625 651.664062 533.566406 C 667.945312 528.390625 684.3125 523.214844 699.484375 532.265625 C 699.917969 532.511719 700.355469 532.78125 700.757812 533.082031 C 708.859375 538.5 714.332031 547.898438 716.257812 558.355469 C 718.152344 568.679688 716.636719 580.136719 710.835938 589.859375 C 710.476562 590.453125 710.070312 591.078125 709.664062 591.671875 Z M 616.921875 707 C 616.976562 709.546875 614.996094 711.65625 612.453125 711.710938 C 609.929688 711.792969 607.820312 709.789062 607.738281 707.269531 L 607.710938 705.566406 C 607.25 690.285156 606.820312 675.605469 616.816406 664.847656 C 623.699219 657.421875 633.589844 655.90625 643.585938 654.363281 C 654.746094 652.628906 666.074219 650.867188 669.945312 639.136719 C 670.246094 638.191406 670.488281 637.214844 670.652344 636.214844 C 671.953125 629.035156 669.808594 621.070312 665.832031 614.378906 C 661.847656 607.6875 656.078125 602.378906 650.085938 600.398438 C 649.355469 600.183594 648.625 599.992188 647.863281 599.855469 C 645.371094 599.421875 643.691406 597.039062 644.125 594.546875 C 644.558594 592.023438 646.941406 590.371094 649.433594 590.804688 C 650.597656 590.996094 651.765625 591.296875 652.929688 591.671875 C 661.058594 594.351562 668.621094 601.179688 673.6875 609.65625 C 678.753906 618.136719 681.40625 628.351562 679.726562 637.777344 C 679.453125 639.183594 679.128906 640.5625 678.671875 641.949219 C 673.0625 659.042969 658.921875 661.238281 644.964844 663.402344 C 636.59375 664.703125 628.277344 665.976562 623.535156 671.09375 C 616.082031 679.085938 616.464844 691.929688 616.871094 705.3125 Z M 616.921875 707 " fill-opacity="1" fill-rule="nonzero"/><path fill="#3d8b8f" d="M 462.078125 671.589844 C 452.214844 666.277344 442.648438 660.859375 433.359375 655.390625 C 429.15625 663.625 414.226562 674.464844 388.625 686.601562 C 325.167969 716.695312 310.265625 645.910156 380.277344 640.058594 C 390.765625 639.191406 399.707031 638.949219 407.15625 639.269531 C 382.121094 623.148438 359.441406 606.433594 339.121094 589.125 C 337.46875 589.804688 335.871094 589.914062 334.355469 589.425781 C 327.605469 595.464844 309.183594 599.121094 279.785156 599.148438 C 209.527344 599.148438 226.40625 528.820312 292.195312 553.53125 C 297.832031 555.644531 302.925781 557.730469 307.476562 559.785156 C 290.191406 542.230469 275.179688 524.136719 262.394531 505.441406 C 262.121094 505.035156 261.824219 504.605469 261.550781 504.171875 C 261.335938 504.117188 261.117188 504.035156 260.898438 503.925781 C 253.472656 509.101562 234.726562 510.425781 205.546875 506.796875 C 135.835938 498.074219 161.332031 430.402344 223.535156 463.046875 C 231.445312 467.21875 238.191406 471.171875 243.804688 474.910156 C 232.125 453.1875 223.347656 430.753906 217.414062 407.621094 C 217.117188 407.429688 216.84375 407.214844 216.601562 406.996094 C 207.957031 409.730469 189.667969 405.535156 162.847656 393.476562 C 98.769531 364.679688 143.015625 307.46875 192.867188 356.957031 C 200.585938 364.597656 206.738281 371.449219 211.371094 377.464844 C 209.363281 363.867188 208.308594 350.023438 208.203125 335.960938 C 201.019531 331.757812 193.382812 316.265625 186.445312 288.988281 C 169.160156 220.882812 240.933594 211.886719 233.160156 281.699219 C 229.796875 312.09375 223.785156 330.214844 216.6875 335.527344 C 216.769531 346.011719 217.367188 356.359375 218.527344 366.574219 C 219.800781 362.425781 221.292969 357.957031 223.023438 353.191406 C 247.003906 287.144531 311.433594 320.035156 265.753906 373.425781 C 248.820312 393.203125 235.328125 404.554688 226.222656 407.75 C 231.914062 429.234375 240.175781 450.09375 250.957031 470.304688 C 250.792969 464.476562 250.875 457.921875 251.230469 450.609375 C 254.75 380.445312 326.007812 392.960938 298.019531 457.410156 C 287.613281 481.386719 278.023438 496.230469 270.246094 501.894531 C 284.363281 522.347656 301.269531 542.121094 320.964844 561.222656 C 319.746094 554.558594 318.796875 546.730469 318.121094 537.734375 C 312.917969 467.675781 385.183594 471.226562 365.398438 538.652344 C 358.898438 560.894531 352.097656 575.929688 345.757812 583.652344 C 363.589844 598.742188 383.257812 613.375 404.769531 627.566406 C 402.246094 623.691406 399.648438 619.414062 396.96875 614.671875 C 362.230469 553.613281 429.074219 525.894531 440.078125 595.246094 C 444.464844 622.746094 444.035156 641.003906 439.832031 649.347656 C 448.339844 654.332031 457.09375 659.261719 466.089844 664.136719 Z M 462.078125 671.589844 " fill-opacity="1" fill-rule="nonzero"/><path fill="#42898f" d="M 395.722656 548.980469 C 396.128906 551.6875 394.261719 554.210938 391.574219 554.589844 C 388.867188 554.996094 386.371094 553.15625 385.964844 550.441406 C 376.859375 491.222656 375.804688 433.195312 382.769531 376.382812 C 225.648438 281.429688 326.875 177.078125 383.3125 371.996094 C 383.773438 368.367188 384.285156 364.734375 384.828125 361.105469 C 393.988281 299.445312 412.683594 239.226562 440.914062 180.464844 C 442.078125 178.023438 445.035156 176.96875 447.46875 178.160156 C 449.9375 179.320312 450.964844 182.25 449.800781 184.714844 C 422 242.523438 403.605469 301.800781 394.582031 362.535156 C 391.929688 380.519531 390.085938 398.621094 389.054688 416.851562 C 452.046875 199.722656 564.921875 316.644531 388.753906 422.542969 C 386.835938 464.023438 389.140625 506.175781 395.722656 548.980469 Z M 395.722656 548.980469 " fill-opacity="1" fill-rule="nonzero"/><path fill="#e25e2e" d="M 428.425781 110.921875 C 440.945312 109.023438 453.324219 124.765625 456.0625 146.082031 C 456.632812 150.417969 456.742188 154.644531 456.472656 158.628906 C 457.015625 158.222656 457.582031 157.8125 458.152344 157.382812 C 475.574219 144.8125 495.894531 142.8125 503.53125 152.914062 C 511.175781 163.046875 503.234375 181.414062 485.8125 194.011719 C 483.132812 195.9375 480.390625 197.589844 477.65625 199.023438 C 478.472656 199.96875 479.226562 200.976562 479.988281 201.976562 C 492.828125 219.207031 494.863281 239.144531 484.539062 246.488281 C 474.214844 253.828125 455.4375 245.808594 442.597656 228.554688 C 442.191406 228.011719 441.785156 227.472656 441.40625 226.929688 C 440.648438 228.664062 439.808594 230.425781 438.859375 232.160156 C 428.589844 251.015625 411.140625 261.605469 399.871094 255.808594 C 388.628906 249.980469 387.8125 229.988281 398.082031 211.105469 C 398.972656 209.480469 399.898438 207.910156 400.898438 206.421875 C 396.644531 205.851562 392.226562 204.824219 387.8125 203.226562 C 367.574219 196.019531 354.835938 180.550781 359.363281 168.710938 C 363.894531 156.871094 383.941406 153.160156 404.179688 160.367188 C 407.40625 161.53125 410.464844 162.886719 413.257812 164.40625 C 412.121094 160.855469 411.226562 157.007812 410.710938 152.945312 C 407.96875 131.621094 415.878906 112.820312 428.425781 110.921875 Z M 428.425781 110.921875 " fill-opacity="1" fill-rule="evenodd"/><path fill="#ffe3c1" d="M 436.253906 173.476562 C 446.144531 173.476562 454.136719 181.46875 454.136719 191.328125 C 454.136719 201.1875 446.144531 209.179688 436.253906 209.179688 C 426.394531 209.179688 418.402344 201.1875 418.402344 191.328125 C 418.402344 181.46875 426.394531 173.476562 436.253906 173.476562 Z M 436.253906 173.476562 " fill-opacity="1" fill-rule="evenodd"/><g clip-path="url(#ce7625a7a2)"><path fill="#f1c376" d="M 313.195312 103.527344 C 313.195312 130.074219 291.46875 151.832031 264.910156 151.832031 C 291.460938 151.832031 313.195312 173.558594 313.195312 200.109375 C 313.195312 173.5625 334.925781 151.832031 361.480469 151.832031 C 334.925781 151.828125 313.195312 130.074219 313.195312 103.527344 Z M 313.195312 103.527344 " fill-opacity="1" fill-rule="evenodd"/></g><path fill="#f1c376" d="M 239.742188 615.566406 C 239.742188 642.140625 218.011719 663.871094 191.457031 663.871094 C 218.007812 663.871094 239.742188 685.59375 239.742188 712.148438 C 239.742188 685.601562 261.46875 663.871094 288.054688 663.871094 C 261.46875 663.871094 239.742188 642.144531 239.742188 615.566406 Z M 239.742188 615.566406 " fill-opacity="1" fill-rule="evenodd"/><path fill="#fcae88" d="M 120.824219 245.890625 C 126.324219 245.050781 131.773438 251.984375 132.992188 261.359375 C 133.234375 263.28125 133.289062 265.125 133.179688 266.886719 C 133.398438 266.695312 133.644531 266.53125 133.914062 266.34375 C 141.582031 260.816406 150.523438 259.921875 153.882812 264.363281 C 157.242188 268.832031 153.746094 276.910156 146.082031 282.460938 C 144.917969 283.300781 143.695312 284.03125 142.503906 284.65625 C 142.855469 285.089844 143.183594 285.519531 143.53125 285.953125 C 149.167969 293.542969 150.0625 302.316406 145.511719 305.539062 C 140.960938 308.789062 132.722656 305.238281 127.058594 297.65625 C 126.898438 297.414062 126.707031 297.167969 126.542969 296.949219 C 126.191406 297.710938 125.835938 298.46875 125.40625 299.253906 C 120.910156 307.542969 113.214844 312.203125 108.257812 309.65625 C 103.296875 307.085938 102.945312 298.28125 107.46875 289.992188 C 107.847656 289.257812 108.28125 288.585938 108.714844 287.933594 C 106.84375 287.660156 104.890625 287.199219 102.941406 286.523438 C 94.023438 283.328125 88.417969 276.527344 90.421875 271.328125 C 92.398438 266.125 101.234375 264.472656 110.144531 267.640625 C 111.578125 268.15625 112.90625 268.75 114.128906 269.429688 C 113.640625 267.859375 113.261719 266.179688 113.019531 264.390625 C 111.800781 254.992188 115.296875 246.730469 120.824219 245.890625 Z M 120.824219 245.890625 " fill-opacity="1" fill-rule="evenodd"/><path fill="#eff1c2" d="M 124.265625 273.414062 C 128.625 273.414062 132.121094 276.9375 132.121094 281.269531 C 132.121094 285.628906 128.625 289.148438 124.265625 289.148438 C 119.933594 289.148438 116.410156 285.628906 116.410156 281.269531 C 116.40625 276.9375 119.929688 273.414062 124.265625 273.414062 Z M 124.265625 273.414062 " fill-opacity="1" fill-rule="evenodd"/><path fill="#fccd87" d="M 166.042969 506.824219 C 172.273438 505.878906 178.425781 513.703125 179.78125 524.296875 C 180.050781 526.441406 180.105469 528.527344 179.972656 530.527344 C 180.242188 530.308594 180.542969 530.09375 180.8125 529.902344 C 189.457031 523.648438 199.5625 522.667969 203.355469 527.679688 C 207.152344 532.691406 203.195312 541.824219 194.550781 548.078125 C 193.222656 549.027344 191.871094 549.867188 190.511719 550.574219 C 190.890625 551.0625 191.300781 551.546875 191.648438 552.035156 C 198.042969 560.597656 199.046875 570.511719 193.925781 574.140625 C 188.777344 577.800781 179.460938 573.816406 173.089844 565.253906 C 172.871094 564.984375 172.679688 564.710938 172.492188 564.414062 C 172.109375 565.277344 171.703125 566.148438 171.21875 567.011719 C 166.125 576.382812 157.453125 581.667969 151.871094 578.769531 C 146.261719 575.871094 145.886719 565.957031 150.980469 556.582031 C 151.414062 555.765625 151.871094 554.984375 152.359375 554.25 C 150.273438 553.949219 148.082031 553.433594 145.886719 552.652344 C 135.835938 549.074219 129.496094 541.382812 131.742188 535.503906 C 133.992188 529.621094 143.960938 527.785156 154.011719 531.355469 C 155.613281 531.953125 157.128906 532.628906 158.507812 533.390625 C 157.9375 531.601562 157.507812 529.675781 157.238281 527.671875 C 155.882812 517.117188 159.8125 507.773438 166.042969 506.824219 Z M 166.042969 506.824219 " fill-opacity="1" fill-rule="evenodd"/><path fill="#e3983b" d="M 169.945312 537.898438 C 174.851562 537.898438 178.808594 541.855469 178.808594 546.757812 C 178.808594 551.660156 174.851562 555.644531 169.945312 555.644531 C 165.042969 555.644531 161.058594 551.660156 161.058594 546.757812 C 161.058594 541.855469 165.042969 537.898438 169.945312 537.898438 Z M 169.945312 537.898438 " fill-opacity="1" fill-rule="evenodd"/><path fill="#f1c376" d="M 710.179688 158.28125 C 710.179688 184.828125 688.449219 206.558594 661.867188 206.558594 C 688.445312 206.558594 710.179688 228.28125 710.179688 254.863281 C 710.179688 228.289062 731.910156 206.558594 758.464844 206.558594 C 731.910156 206.554688 710.179688 184.828125 710.179688 158.28125 Z M 710.179688 158.28125 " fill-opacity="1" fill-rule="evenodd"/><path fill="#f1c376" d="M 641.390625 112.0625 C 641.390625 133.542969 623.832031 151.128906 602.320312 151.128906 C 623.832031 151.128906 641.390625 168.710938 641.390625 190.191406 C 641.390625 168.710938 658.976562 151.128906 680.460938 151.128906 C 658.96875 151.128906 641.390625 133.542969 641.390625 112.0625 Z M 641.390625 112.0625 " fill-opacity="1" fill-rule="evenodd"/></svg>