<svg xmlns="http://www.w3.org/2000/svg" xmlns:xlink="http://www.w3.org/1999/xlink" width="1200" zoomAndPan="magnify" viewBox="0 0 900 899.99999" height="1200" preserveAspectRatio="xMidYMid meet" version="1.0"><defs><clipPath id="9f4438a06d"><path d="M 516 111.011719 L 584 111.011719 L 584 179 L 516 179 Z M 516 111.011719 " clip-rule="nonzero"/></clipPath></defs><rect x="-90" width="1080" fill="#ffffff" y="-89.999999" height="1079.999988" fill-opacity="1"/><rect x="-90" width="1080" fill="#ffffff" y="-89.999999" height="1079.999988" fill-opacity="1"/><path fill="#68fdc2" d="M 299.335938 398.5625 C 180.945312 412.0625 142.828125 538.375 163.238281 604.085938 L 206.003906 600.484375 C 220.257812 540.925781 226.410156 469.21875 309.839844 459.769531 C 407.824219 448.667969 432.882812 520.675781 442.335938 580.832031 L 487.652344 577.082031 C 476.851562 509.125 438.285156 382.808594 299.335938 398.5625 Z M 299.335938 398.5625 " fill-opacity="1" fill-rule="evenodd"/><path fill="#077ee4" d="M 294.085938 363.457031 C 136.378906 381.460938 98.113281 549.777344 124.523438 607.382812 L 163.238281 604.234375 C 163.085938 536.875 180.644531 422.113281 299.035156 408.761719 C 438.136719 393.011719 476.851562 509.273438 487.652344 577.230469 L 527.867188 573.929688 C 520.066406 517.675781 481.203125 342.15625 294.085938 363.457031 Z M 294.085938 363.457031 " fill-opacity="1" fill-rule="evenodd"/><path fill="#a40ffd" d="M 312.839844 485.121094 C 260.320312 491.273438 236.464844 526.226562 243.214844 597.484375 L 281.480469 594.332031 C 283.582031 563.429688 292.132812 532.074219 318.09375 528.777344 C 348.703125 524.875 363.859375 555.628906 371.363281 586.832031 L 409.777344 583.683594 C 399.722656 537.925781 374.8125 477.921875 312.839844 485.121094 Z M 312.839844 485.121094 " fill-opacity="1" fill-rule="evenodd"/><path fill="#d853ff" d="M 304.289062 447.015625 C 220.859375 456.46875 206.003906 541.226562 206.003906 600.632812 L 243.367188 597.484375 C 245.917969 552.328125 260.320312 499.671875 312.839844 493.523438 C 374.8125 486.320312 399.871094 538.078125 409.925781 583.683594 L 442.335938 580.980469 C 432.882812 520.675781 402.273438 435.914062 304.289062 447.015625 Z M 304.289062 447.015625 " fill-opacity="1" fill-rule="evenodd"/><path fill="#f10251" d="M 288.980469 342.753906 C 73.65625 367.207031 84.910156 583.832031 87.007812 610.535156 L 124.375 607.382812 C 123.472656 548.726562 136.078125 390.609375 293.933594 372.609375 C 480.902344 351.304688 519.914062 517.675781 527.71875 573.78125 L 564.78125 570.628906 C 564.933594 570.78125 554.277344 312.601562 288.980469 342.753906 Z M 288.980469 342.753906 " fill-opacity="1" fill-rule="evenodd"/><path fill="#68fdc2" d="M 399.871094 680.441406 C 398.070312 678.792969 394.46875 654.640625 391.320312 654.789062 C 388.019531 654.941406 385.316406 678.792969 383.816406 680.441406 C 380.816406 683.59375 358.605469 685.84375 358.757812 688.84375 C 358.90625 691.84375 380.664062 693.34375 383.816406 696.34375 C 385.46875 697.996094 389.066406 722.148438 392.371094 721.996094 C 395.671875 721.847656 398.371094 697.996094 399.871094 696.34375 C 402.875 693.34375 425.230469 690.945312 424.929688 687.941406 C 424.929688 684.941406 402.875 683.292969 399.871094 680.441406 Z M 399.871094 680.441406 " fill-opacity="1" fill-rule="nonzero"/><g clip-path="url(#9f4438a06d)"><path fill="#68fdc2" d="M 557.878906 136.933594 C 556.078125 135.28125 552.476562 111.128906 549.324219 111.28125 C 546.023438 111.429688 543.324219 135.28125 541.824219 136.933594 C 538.820312 140.082031 516.613281 142.332031 516.765625 145.332031 C 516.914062 148.332031 538.671875 149.832031 541.824219 152.835938 C 543.625 154.484375 547.226562 178.636719 550.375 178.488281 C 553.675781 178.335938 556.378906 154.484375 558.027344 152.835938 C 560.878906 149.832031 583.386719 147.433594 583.089844 144.433594 C 582.789062 141.433594 560.878906 139.78125 557.878906 136.933594 Z M 557.878906 136.933594 " fill-opacity="1" fill-rule="nonzero"/></g><path fill="#68fdc2" d="M 171.191406 301.050781 C 169.390625 299.398438 165.789062 275.246094 162.636719 275.398438 C 159.335938 275.546875 156.632812 299.398438 155.132812 301.050781 C 152.132812 304.199219 129.925781 306.449219 130.074219 309.453125 C 130.226562 312.453125 151.984375 313.953125 155.132812 316.953125 C 156.785156 318.601562 160.535156 342.753906 163.6875 342.605469 C 166.988281 342.453125 169.6875 318.601562 171.191406 316.953125 C 174.191406 313.953125 196.550781 311.550781 196.25 308.550781 C 195.949219 305.550781 174.191406 303.902344 171.191406 301.050781 Z M 171.191406 301.050781 " fill-opacity="1" fill-rule="nonzero"/><path fill="#f96506" d="M 536.570312 232.34375 C 536.570312 232.34375 618.652344 120.429688 748.746094 197.390625 C 878.84375 274.199219 790.613281 435.765625 731.640625 496.070312 C 653.761719 575.582031 505.210938 678.34375 462.445312 673.839844 C 419.53125 669.339844 239.765625 430.964844 231.660156 305.699219 C 223.410156 180.285156 314.640625 119.832031 393.871094 123.582031 C 473.097656 127.332031 536.570312 232.34375 536.570312 232.34375 Z M 536.570312 232.34375 " fill-opacity="1" fill-rule="evenodd"/><path fill="#ffffff" d="M 311.191406 229.492188 C 311.789062 230.542969 312.390625 231.441406 312.992188 232.492188 C 313.589844 233.542969 313.890625 234.441406 314.191406 235.34375 C 314.492188 236.242188 314.640625 237.144531 314.492188 237.894531 C 314.492188 238.644531 314.042969 239.394531 313.589844 239.84375 C 313.140625 240.292969 312.242188 240.445312 311.191406 239.992188 C 310.140625 239.542969 308.789062 238.792969 307.289062 237.742188 C 305.789062 236.691406 304.136719 235.492188 302.335938 233.992188 C 300.535156 232.492188 298.886719 230.992188 297.085938 229.492188 C 295.285156 227.992188 293.632812 226.34375 292.132812 224.84375 C 290.632812 223.34375 289.132812 221.992188 288.082031 220.792969 C 288.980469 222.292969 289.882812 223.941406 291.082031 225.890625 C 292.132812 227.691406 293.183594 229.640625 294.234375 231.742188 C 295.285156 233.691406 296.183594 235.792969 297.085938 237.742188 C 297.984375 239.695312 298.734375 241.644531 299.1875 243.292969 C 299.785156 244.945312 300.085938 246.445312 300.085938 247.792969 C 300.085938 249.144531 299.9375 250.042969 299.335938 250.644531 C 298.734375 251.246094 297.984375 251.246094 296.636719 251.09375 C 295.433594 250.792969 294.085938 250.34375 292.433594 249.59375 C 290.78125 248.84375 289.132812 247.792969 287.480469 246.746094 C 285.679688 245.542969 284.03125 244.496094 282.230469 243.144531 C 280.578125 241.945312 278.929688 240.742188 277.429688 239.542969 C 275.925781 238.34375 274.726562 237.445312 273.828125 236.691406 C 274.425781 237.445312 275.027344 238.195312 275.777344 239.09375 C 276.527344 239.992188 276.976562 240.59375 277.277344 241.042969 C 277.429688 241.195312 277.878906 241.792969 278.628906 242.695312 C 279.378906 243.59375 280.277344 244.792969 281.328125 246.292969 C 282.378906 247.792969 283.429688 249.292969 284.480469 250.945312 C 285.53125 252.59375 286.429688 254.394531 287.183594 256.046875 C 287.933594 257.695312 288.382812 259.195312 288.53125 260.695312 C 288.683594 262.195312 288.382812 263.246094 287.632812 264.144531 C 286.730469 264.445312 285.679688 264.445312 284.628906 264.144531 C 283.582031 263.847656 282.53125 263.394531 281.328125 262.644531 C 280.277344 261.894531 279.078125 261.144531 278.027344 260.097656 C 276.976562 259.195312 275.925781 258.144531 274.878906 257.09375 C 273.828125 256.046875 272.925781 255.144531 272.175781 254.246094 C 271.425781 253.34375 270.824219 252.59375 270.226562 251.996094 C 269.324219 250.945312 268.425781 249.59375 267.222656 247.945312 C 266.023438 246.292969 264.824219 244.496094 263.773438 242.542969 C 262.574219 240.59375 261.523438 238.492188 260.472656 236.394531 C 259.421875 234.292969 258.671875 232.191406 258.222656 230.242188 C 257.769531 228.292969 257.472656 226.492188 257.621094 224.84375 C 257.769531 223.191406 258.222656 221.839844 259.273438 220.941406 C 259.722656 220.492188 260.472656 220.191406 261.523438 220.339844 C 262.574219 220.339844 263.773438 220.640625 265.125 220.941406 C 266.472656 221.390625 267.824219 221.839844 269.324219 222.589844 C 270.824219 223.191406 272.328125 223.941406 273.675781 224.691406 C 275.175781 225.441406 276.527344 226.191406 277.726562 226.941406 C 278.929688 227.691406 279.980469 228.292969 280.878906 228.890625 C 280.429688 227.84375 279.980469 226.492188 279.527344 225.140625 C 279.078125 223.640625 278.476562 222.140625 278.027344 220.492188 C 277.578125 218.839844 277.128906 217.191406 276.679688 215.539062 C 276.226562 213.890625 276.078125 212.242188 275.925781 210.742188 C 275.777344 209.242188 275.777344 207.890625 275.925781 206.691406 C 276.078125 205.488281 276.527344 204.589844 277.128906 203.988281 C 278.328125 202.941406 279.679688 202.339844 281.179688 202.488281 C 282.679688 202.640625 284.332031 203.089844 286.132812 203.988281 C 287.78125 204.890625 289.582031 206.089844 291.382812 207.441406 C 293.183594 208.941406 294.835938 210.441406 296.484375 211.941406 C 298.136719 213.441406 299.484375 214.941406 300.835938 216.441406 C 302.1875 217.941406 303.238281 219.140625 303.988281 220.042969 C 304.289062 220.339844 304.738281 220.941406 305.339844 221.542969 C 305.9375 222.140625 306.539062 222.890625 307.140625 223.792969 C 307.738281 224.691406 308.488281 225.59375 309.238281 226.492188 C 309.839844 227.390625 310.441406 228.441406 311.191406 229.492188 Z M 311.191406 229.492188 " fill-opacity="1" fill-rule="nonzero"/><path fill="#ffffff" d="M 339.550781 211.640625 C 339.851562 212.390625 340 213.289062 340 214.339844 C 339.851562 215.242188 339.402344 216.589844 338.351562 218.242188 C 337.300781 220.042969 336.097656 221.691406 334.75 223.492188 C 333.398438 225.292969 332.046875 226.941406 330.546875 228.441406 C 329.195312 229.941406 328.144531 230.84375 327.246094 231.292969 C 326.644531 231.59375 326.046875 231.742188 325.144531 231.894531 C 324.246094 232.042969 323.34375 232.042969 322.445312 232.042969 C 321.542969 232.042969 320.644531 231.894531 319.742188 231.742188 C 318.84375 231.59375 318.242188 231.292969 317.792969 230.84375 C 317.492188 230.691406 317.042969 230.09375 316.59375 229.34375 C 316.140625 228.59375 315.542969 227.542969 314.941406 226.492188 C 314.339844 225.441406 313.742188 224.242188 312.992188 222.890625 C 312.390625 221.691406 311.789062 220.339844 311.191406 219.292969 C 310.589844 218.089844 310.140625 217.042969 309.691406 216.140625 C 309.238281 215.242188 308.941406 214.640625 308.789062 214.191406 C 308.039062 212.691406 307.4375 210.890625 306.539062 208.789062 C 305.789062 206.691406 305.039062 204.589844 304.4375 202.488281 C 303.835938 200.390625 303.386719 198.140625 303.085938 196.039062 C 302.789062 193.9375 302.789062 191.988281 303.085938 190.1875 C 303.238281 189.738281 303.539062 188.988281 304.289062 188.089844 C 304.886719 187.1875 305.789062 186.289062 306.6875 185.386719 C 307.589844 184.488281 308.640625 183.4375 309.839844 182.386719 C 311.039062 181.335938 312.089844 180.4375 313.140625 179.535156 C 314.191406 178.636719 315.242188 177.886719 316.140625 177.285156 C 317.042969 176.6875 317.792969 176.085938 318.242188 175.9375 C 318.84375 175.636719 319.441406 175.488281 320.042969 175.488281 C 320.644531 175.488281 321.242188 175.636719 321.84375 175.9375 C 322.445312 176.238281 322.894531 176.535156 323.34375 176.988281 C 323.792969 177.4375 324.246094 178.035156 324.394531 178.636719 C 324.695312 179.238281 324.695312 179.6875 324.84375 180.136719 C 324.84375 180.585938 324.84375 181.1875 324.84375 181.636719 C 324.695312 182.386719 324.09375 183.4375 323.195312 184.9375 C 322.292969 186.289062 321.242188 187.789062 320.042969 189.289062 C 318.84375 190.789062 317.792969 192.136719 316.742188 193.488281 C 315.691406 194.839844 314.941406 195.738281 314.492188 196.1875 C 314.792969 197.238281 315.089844 198.289062 315.242188 199.339844 C 315.542969 200.390625 315.84375 201.4375 316.140625 202.488281 C 317.042969 201.140625 318.09375 199.789062 319.441406 198.4375 C 320.644531 197.089844 321.996094 196.039062 323.34375 195.289062 C 326.046875 193.789062 328.144531 194.539062 329.347656 197.390625 C 329.648438 198.140625 329.796875 198.738281 329.796875 199.488281 C 329.796875 200.238281 329.648438 200.839844 329.496094 201.4375 C 329.347656 202.039062 328.898438 202.640625 328.597656 203.238281 C 328.144531 203.839844 327.847656 204.441406 327.394531 205.039062 C 326.496094 206.390625 325.445312 207.738281 324.246094 208.941406 C 323.042969 210.140625 321.996094 211.492188 320.792969 212.691406 C 320.792969 212.992188 320.945312 213.441406 321.09375 213.890625 C 321.242188 214.339844 321.242188 214.789062 321.542969 215.089844 C 321.84375 215.691406 322.144531 216.292969 322.445312 216.742188 C 322.746094 217.339844 323.042969 217.792969 323.496094 218.390625 C 323.945312 217.941406 324.546875 217.339844 325.445312 216.441406 C 326.347656 215.539062 327.246094 214.492188 328.144531 213.589844 C 329.046875 212.539062 330.097656 211.640625 330.996094 210.890625 C 331.898438 209.992188 332.648438 209.539062 333.097656 209.242188 C 333.699219 208.941406 334.296875 208.789062 334.898438 208.789062 C 335.5 208.789062 336.097656 208.941406 336.699219 209.242188 C 337.300781 209.539062 337.75 209.839844 338.199219 210.289062 C 338.949219 210.589844 339.25 211.191406 339.550781 211.640625 Z M 339.550781 211.640625 " fill-opacity="1" fill-rule="nonzero"/><path fill="#ffffff" d="M 374.664062 181.636719 C 374.8125 182.6875 375.113281 184.039062 375.414062 185.835938 C 375.714844 187.636719 376.011719 189.738281 376.3125 191.988281 C 376.613281 194.238281 376.765625 196.488281 376.765625 198.890625 C 376.765625 201.289062 376.765625 203.539062 376.464844 205.488281 C 376.164062 207.589844 375.714844 209.242188 374.964844 210.742188 C 374.214844 212.242188 373.164062 213.140625 371.960938 213.441406 C 370.761719 213.742188 369.410156 213.742188 368.210938 213.289062 C 367.011719 212.839844 365.808594 212.089844 364.757812 211.191406 C 363.710938 210.289062 362.660156 209.242188 361.757812 208.191406 C 360.859375 206.988281 360.109375 205.941406 359.359375 205.039062 C 358.007812 202.941406 356.65625 200.988281 355.304688 199.039062 C 353.957031 197.089844 352.605469 194.988281 351.253906 192.886719 L 351.703125 194.839844 C 352.15625 196.789062 352.605469 198.738281 352.90625 200.6875 C 353.355469 202.640625 353.503906 204.589844 353.65625 206.539062 C 353.804688 207.289062 353.804688 208.191406 353.957031 209.242188 C 354.105469 210.289062 354.105469 211.339844 354.105469 212.390625 C 354.105469 213.441406 353.957031 214.492188 353.804688 215.390625 C 353.65625 216.292969 353.207031 217.191406 352.605469 217.792969 C 352.304688 218.089844 352.003906 218.390625 351.703125 218.542969 C 351.40625 218.691406 351.105469 218.839844 350.65625 218.992188 L 350.503906 218.992188 C 349.605469 219.292969 348.703125 219.140625 347.804688 218.691406 C 347.054688 218.242188 346.152344 217.492188 345.550781 216.441406 C 344.800781 215.390625 344.203125 214.339844 343.601562 212.992188 C 343 211.640625 342.550781 210.441406 342.101562 209.089844 C 341.652344 207.738281 341.351562 206.539062 341.050781 205.488281 C 340.75 204.441406 340.601562 203.539062 340.449219 202.789062 C 340.300781 201.738281 340 200.238281 339.550781 198.140625 C 339.25 196.1875 338.949219 193.789062 338.648438 191.386719 C 338.351562 188.839844 338.199219 186.289062 338.050781 183.585938 C 337.898438 180.886719 338.050781 178.335938 338.199219 176.085938 C 338.5 173.835938 338.949219 171.886719 339.699219 170.234375 C 340.449219 168.585938 341.5 167.6875 342.851562 167.234375 C 344.203125 166.9375 345.402344 167.085938 346.753906 167.835938 C 347.953125 168.585938 349.152344 169.636719 350.355469 170.984375 C 351.40625 172.1875 352.457031 173.6875 353.355469 175.035156 C 354.253906 176.535156 355.007812 177.738281 355.605469 178.636719 C 356.808594 180.585938 357.855469 182.539062 359.058594 184.335938 C 360.257812 186.289062 361.308594 188.238281 362.359375 190.1875 C 362.359375 190.339844 362.507812 190.488281 362.808594 190.789062 C 362.960938 191.089844 363.257812 191.539062 363.558594 191.988281 C 363.859375 192.4375 364.160156 193.039062 364.609375 193.636719 C 364.460938 193.039062 364.460938 192.589844 364.308594 192.4375 C 364.308594 192.136719 364.160156 191.988281 364.160156 191.839844 C 364.160156 191.6875 364.007812 191.386719 364.007812 191.089844 C 364.007812 190.789062 363.859375 190.339844 363.710938 189.589844 C 363.410156 188.089844 362.957031 186.585938 362.660156 185.085938 C 362.359375 183.585938 362.058594 182.085938 361.609375 180.738281 C 361.457031 180.136719 361.308594 179.238281 361.007812 178.035156 C 360.859375 176.835938 360.558594 175.636719 360.40625 174.4375 C 360.257812 173.085938 360.109375 171.734375 359.957031 170.386719 C 359.957031 169.035156 359.957031 167.6875 360.109375 166.636719 C 360.257812 165.433594 360.558594 164.535156 361.007812 163.636719 C 361.457031 162.734375 362.207031 162.285156 363.109375 161.984375 C 364.160156 161.683594 365.210938 161.835938 366.109375 162.433594 C 367.011719 163.035156 367.910156 163.933594 368.660156 165.136719 C 369.410156 166.335938 370.160156 167.6875 370.761719 169.1875 C 371.363281 170.6875 371.960938 172.335938 372.5625 173.835938 C 373.011719 175.335938 373.460938 176.835938 373.761719 178.1875 C 374.214844 179.835938 374.511719 180.886719 374.664062 181.636719 Z M 374.664062 181.636719 " fill-opacity="1" fill-rule="nonzero"/><path fill="#ffffff" d="M 409.925781 161.984375 C 409.925781 163.183594 409.476562 164.234375 408.726562 165.285156 C 407.976562 166.335938 406.925781 167.234375 405.722656 167.984375 C 404.523438 168.734375 403.324219 169.484375 402.125 169.9375 C 400.921875 170.535156 399.871094 170.835938 398.972656 171.136719 C 398.671875 174.738281 398.523438 178.335938 398.371094 181.9375 C 398.222656 185.539062 398.222656 189.136719 398.222656 192.589844 C 398.222656 194.539062 398.371094 196.339844 398.523438 198.289062 C 398.671875 200.089844 398.671875 202.039062 398.820312 203.839844 C 398.820312 204.738281 398.820312 205.640625 398.671875 206.539062 C 398.523438 207.589844 398.371094 208.488281 397.921875 209.390625 C 397.621094 210.289062 397.019531 211.039062 396.421875 211.640625 C 395.820312 212.242188 395.070312 212.691406 394.019531 212.691406 C 392.96875 212.691406 392.070312 212.390625 391.320312 211.789062 C 390.570312 211.191406 390.117188 210.289062 389.667969 209.390625 C 389.21875 208.488281 389.066406 207.441406 388.917969 206.390625 C 388.769531 205.339844 388.617188 204.289062 388.617188 203.390625 C 388.46875 200.539062 388.316406 197.839844 388.316406 194.988281 C 388.167969 192.136719 388.167969 189.289062 388.019531 186.585938 C 388.019531 184.1875 387.867188 181.9375 387.867188 179.535156 C 387.867188 177.285156 387.867188 174.886719 387.71875 172.484375 C 387.117188 172.636719 386.515625 172.785156 385.917969 172.785156 C 385.316406 172.9375 384.714844 172.9375 383.964844 172.9375 C 383.515625 172.9375 382.765625 172.9375 381.867188 172.9375 C 380.964844 172.9375 380.214844 172.636719 379.464844 172.484375 C 378.714844 172.1875 377.964844 171.886719 377.363281 171.285156 C 376.765625 170.835938 376.464844 170.085938 376.464844 169.335938 C 376.464844 167.984375 376.914062 166.636719 377.964844 165.585938 C 379.015625 164.535156 380.214844 163.484375 381.867188 162.734375 C 383.367188 161.835938 385.167969 161.085938 387.117188 160.484375 C 389.066406 159.886719 390.867188 159.285156 392.820312 158.984375 C 394.621094 158.535156 396.421875 158.234375 397.921875 158.085938 C 399.421875 157.785156 400.773438 157.785156 401.523438 157.632812 C 402.273438 157.632812 403.171875 157.632812 404.074219 157.632812 C 404.972656 157.632812 405.875 157.785156 406.773438 158.085938 C 407.523438 158.382812 408.273438 158.835938 408.875 159.433594 C 409.625 159.886719 409.925781 160.785156 409.925781 161.984375 Z M 409.925781 161.984375 " fill-opacity="1" fill-rule="nonzero"/><path fill="#ffffff" d="M 438.136719 205.941406 C 437.984375 206.839844 437.6875 207.890625 437.234375 209.242188 C 436.785156 210.441406 436.335938 211.640625 435.585938 212.691406 C 434.984375 213.742188 434.085938 214.640625 433.183594 215.242188 C 432.285156 215.839844 431.234375 216.140625 430.03125 215.839844 C 428.53125 215.539062 427.480469 214.640625 426.882812 213.289062 C 426.433594 211.941406 426.132812 210.289062 426.132812 208.488281 C 426.132812 206.691406 426.28125 204.890625 426.582031 203.089844 C 426.882812 201.289062 427.183594 199.9375 427.332031 198.890625 C 424.179688 198.738281 421.179688 198.589844 418.027344 198.289062 C 417.730469 199.339844 417.277344 200.539062 416.679688 202.039062 C 416.078125 203.539062 415.328125 204.890625 414.425781 206.238281 C 413.527344 207.589844 412.476562 208.640625 411.425781 209.539062 C 410.226562 210.441406 409.027344 210.742188 407.824219 210.441406 C 406.773438 210.140625 406.175781 209.691406 405.722656 208.640625 C 405.273438 207.738281 405.125 206.691406 405.125 205.488281 C 405.125 204.289062 405.125 203.238281 405.273438 202.039062 C 405.425781 200.839844 405.574219 199.9375 405.722656 199.039062 C 406.324219 196.488281 407.074219 193.9375 407.976562 191.539062 C 408.875 189.136719 409.925781 186.738281 410.976562 184.335938 C 411.578125 183.136719 412.175781 181.636719 412.925781 179.835938 C 413.675781 178.1875 414.578125 176.386719 415.628906 174.738281 C 416.679688 172.9375 417.730469 171.285156 418.929688 169.636719 C 420.128906 167.984375 421.480469 166.484375 422.832031 165.285156 C 424.179688 164.085938 425.679688 163.183594 427.183594 162.585938 C 428.683594 161.984375 430.332031 161.835938 431.984375 162.285156 C 433.632812 162.585938 434.835938 163.335938 435.886719 164.386719 C 436.9375 165.433594 437.6875 166.636719 438.285156 168.136719 C 438.886719 169.636719 439.335938 171.285156 439.636719 172.9375 C 439.9375 174.738281 440.085938 176.386719 440.085938 178.1875 C 440.085938 179.988281 440.085938 181.636719 440.085938 183.289062 C 439.9375 184.9375 439.9375 186.4375 439.9375 187.636719 C 439.785156 190.789062 439.636719 193.789062 439.335938 196.9375 C 439.1875 199.789062 438.734375 202.941406 438.136719 205.941406 Z M 429.582031 186.585938 C 429.734375 185.988281 429.882812 185.085938 430.03125 183.886719 C 430.183594 182.6875 430.332031 181.335938 430.484375 179.988281 C 430.484375 178.636719 430.484375 177.4375 430.183594 176.386719 C 429.882812 175.335938 429.433594 174.738281 428.683594 174.585938 C 428.234375 174.4375 427.78125 174.738281 427.332031 175.1875 C 426.882812 175.785156 426.28125 176.386719 425.832031 177.285156 C 425.382812 178.1875 424.78125 179.085938 424.332031 180.285156 C 423.882812 181.335938 423.429688 182.386719 422.980469 183.4375 C 422.53125 184.488281 422.230469 185.386719 422.082031 186.136719 C 421.929688 186.886719 421.628906 187.488281 421.480469 187.9375 C 424.03125 188.238281 426.582031 188.539062 429.132812 188.539062 Z M 429.582031 186.585938 " fill-opacity="1" fill-rule="nonzero"/><path fill="#ffffff" d="M 465.746094 227.390625 C 465.144531 228.292969 464.09375 228.890625 462.894531 229.191406 C 461.542969 229.492188 460.195312 229.492188 458.542969 229.34375 C 456.894531 229.191406 455.242188 228.742188 453.589844 228.140625 C 451.941406 227.542969 450.289062 226.941406 448.640625 226.191406 C 446.988281 225.441406 445.640625 224.84375 444.289062 224.09375 C 442.9375 223.34375 441.886719 222.742188 441.289062 222.140625 C 440.6875 221.691406 439.9375 220.941406 439.335938 220.339844 C 438.734375 219.589844 438.285156 218.839844 438.136719 218.089844 C 437.984375 217.640625 438.136719 216.890625 438.4375 215.992188 C 438.738281 215.089844 439.1875 213.890625 439.785156 212.691406 C 440.386719 211.492188 440.988281 210.140625 441.738281 208.789062 C 442.488281 207.441406 443.238281 206.089844 443.988281 204.738281 C 444.738281 203.390625 445.488281 202.339844 446.089844 201.289062 C 446.6875 200.238281 447.289062 199.339844 447.589844 198.890625 C 448.191406 197.988281 449.089844 196.789062 449.992188 195.4375 C 450.890625 194.089844 452.089844 192.738281 453.140625 191.238281 C 454.34375 189.738281 455.542969 188.386719 456.742188 186.886719 C 457.941406 185.386719 459.292969 184.039062 460.492188 182.835938 C 461.695312 181.636719 462.894531 180.585938 463.945312 179.6875 C 464.996094 178.785156 466.046875 178.1875 466.796875 177.886719 C 468.148438 177.4375 469.347656 177.585938 470.398438 178.335938 C 471.148438 178.9375 471.449219 179.535156 471.597656 180.4375 C 471.75 181.335938 471.75 182.238281 471.449219 183.289062 C 471.148438 184.335938 470.847656 185.386719 470.246094 186.585938 C 469.648438 187.789062 469.195312 188.839844 468.597656 189.886719 C 467.996094 190.9375 467.398438 191.839844 466.796875 192.738281 C 466.195312 193.636719 465.746094 194.238281 465.445312 194.6875 C 463.496094 197.6875 461.394531 200.539062 459.292969 203.390625 C 457.191406 206.238281 455.09375 209.089844 453.140625 212.089844 L 451.640625 214.339844 C 453.589844 215.089844 455.542969 215.839844 457.792969 216.742188 C 459.894531 217.640625 461.84375 218.839844 463.496094 220.191406 C 464.09375 220.640625 464.695312 221.089844 465.144531 221.691406 C 465.746094 222.292969 466.046875 222.890625 466.347656 223.492188 C 466.644531 224.09375 466.796875 224.691406 466.796875 225.441406 C 466.644531 225.890625 466.347656 226.640625 465.746094 227.390625 Z M 465.746094 227.390625 " fill-opacity="1" fill-rule="nonzero"/><path fill="#ffffff" d="M 642.507812 206.539062 C 642.507812 210.441406 642.507812 214.339844 642.359375 218.242188 C 642.210938 222.140625 642.058594 226.042969 641.757812 229.792969 C 641.757812 230.542969 641.609375 231.441406 641.609375 232.644531 C 641.609375 233.84375 641.460938 235.191406 641.460938 236.542969 C 641.308594 237.894531 641.160156 239.242188 641.007812 240.742188 C 640.859375 242.09375 640.410156 243.445312 639.957031 244.644531 C 639.507812 245.84375 638.910156 246.746094 638.15625 247.496094 C 637.40625 248.246094 636.507812 248.695312 635.457031 248.695312 C 634.558594 248.695312 633.65625 248.542969 632.90625 248.09375 C 632.15625 247.644531 631.554688 247.195312 631.105469 246.445312 C 630.65625 245.84375 630.203125 245.09375 629.90625 244.195312 C 629.605469 243.292969 629.453125 242.394531 629.453125 241.492188 C 629.453125 239.992188 629.453125 238.34375 629.605469 236.84375 C 629.605469 235.34375 629.753906 233.691406 629.90625 232.191406 L 623.300781 233.09375 C 623.152344 234.292969 623.003906 235.792969 622.851562 237.445312 C 622.703125 239.09375 622.402344 240.742188 621.953125 242.394531 C 621.503906 243.894531 620.75 245.394531 619.851562 246.445312 C 618.949219 247.644531 617.601562 248.246094 615.949219 248.246094 C 614.898438 248.246094 614.148438 248.09375 613.398438 247.644531 C 612.800781 247.195312 612.199219 246.59375 611.75 245.84375 C 611.296875 245.09375 611 244.195312 610.847656 243.292969 C 610.699219 242.394531 610.546875 241.492188 610.546875 240.59375 C 610.546875 237.742188 610.546875 235.042969 610.847656 232.191406 C 611 229.34375 611.148438 226.640625 611.148438 223.792969 C 611.148438 220.792969 611.148438 217.941406 611.148438 214.941406 C 611.148438 211.941406 611.148438 209.089844 611.148438 206.089844 C 611.148438 205.039062 611.148438 203.988281 611.148438 202.640625 C 611.148438 201.289062 611.296875 200.089844 611.597656 199.039062 C 611.898438 197.839844 612.347656 196.9375 613.097656 196.039062 C 613.699219 195.289062 614.75 194.839844 616.25 194.6875 C 618.199219 194.6875 619.550781 195.140625 620.601562 196.039062 C 621.652344 197.089844 622.253906 198.289062 622.703125 199.9375 C 623.152344 201.4375 623.300781 203.089844 623.300781 204.890625 C 623.300781 206.691406 623.300781 208.191406 623.300781 209.539062 C 623.300781 211.339844 623.300781 213.289062 623.300781 215.089844 C 623.300781 216.890625 623.152344 218.691406 623.152344 220.492188 L 630.355469 219.140625 C 630.355469 216.890625 630.355469 214.640625 630.355469 212.390625 C 630.355469 210.140625 630.503906 207.890625 630.503906 205.640625 C 630.503906 204.589844 630.503906 203.390625 630.65625 202.191406 C 630.65625 200.988281 630.804688 199.789062 631.105469 198.890625 C 631.40625 197.839844 631.855469 196.9375 632.605469 196.339844 C 633.355469 195.589844 634.40625 195.289062 635.90625 195.140625 C 637.109375 195.140625 638.15625 195.4375 638.910156 196.1875 C 639.660156 196.9375 640.257812 197.839844 640.859375 198.890625 C 641.308594 199.9375 641.609375 201.140625 641.910156 202.339844 C 642.058594 203.539062 642.210938 204.589844 642.210938 205.640625 Z M 642.507812 206.539062 " fill-opacity="1" fill-rule="nonzero"/><path fill="#ffffff" d="M 675.222656 243.144531 C 675.070312 244.042969 674.621094 244.792969 674.019531 245.542969 C 673.421875 246.144531 672.21875 246.894531 670.269531 247.496094 C 668.46875 248.09375 666.367188 248.695312 664.265625 249.144531 C 662.167969 249.59375 660.066406 249.894531 658.113281 250.195312 C 656.164062 250.496094 654.664062 250.496094 653.914062 250.195312 C 653.3125 250.042969 652.5625 249.746094 651.8125 249.292969 C 651.0625 248.84375 650.3125 248.246094 649.5625 247.644531 C 648.8125 247.042969 648.210938 246.292969 647.761719 245.542969 C 647.160156 244.792969 646.859375 244.042969 646.710938 243.445312 C 646.5625 243.144531 646.5625 242.394531 646.710938 241.492188 C 646.710938 240.445312 646.859375 239.394531 647.160156 238.042969 C 647.3125 236.691406 647.613281 235.34375 647.761719 233.992188 C 648.0625 232.492188 648.210938 231.144531 648.511719 229.792969 C 648.8125 228.441406 648.960938 227.390625 649.261719 226.34375 C 649.410156 225.292969 649.710938 224.691406 649.710938 224.09375 C 650.164062 222.441406 650.613281 220.492188 651.210938 218.390625 C 651.8125 216.292969 652.5625 214.039062 653.464844 211.941406 C 654.214844 209.839844 655.265625 207.738281 656.316406 205.941406 C 657.363281 203.988281 658.566406 202.488281 659.914062 201.4375 C 660.367188 201.140625 660.964844 200.839844 662.015625 200.539062 C 663.066406 200.238281 664.265625 200.089844 665.617188 199.9375 C 666.96875 199.789062 668.320312 199.789062 669.820312 199.789062 C 671.320312 199.789062 672.820312 199.789062 674.171875 199.789062 C 675.519531 199.789062 676.722656 199.9375 677.921875 200.089844 C 678.972656 200.238281 679.871094 200.238281 680.472656 200.390625 C 681.074219 200.539062 681.671875 200.839844 682.273438 201.289062 C 682.722656 201.738281 683.175781 202.191406 683.472656 202.789062 C 683.773438 203.390625 683.925781 203.988281 684.074219 204.738281 C 684.222656 205.339844 684.074219 206.089844 683.925781 206.839844 C 683.773438 207.441406 683.625 207.890625 683.324219 208.339844 C 683.023438 208.789062 682.722656 209.089844 682.273438 209.539062 C 681.671875 209.992188 680.625 210.589844 679.121094 211.039062 C 677.472656 211.492188 675.820312 211.941406 674.019531 212.390625 C 672.21875 212.839844 670.417969 213.140625 668.917969 213.441406 C 667.269531 213.742188 666.066406 213.890625 665.46875 214.039062 C 665.019531 215.089844 664.566406 215.992188 664.117188 217.042969 C 663.667969 218.089844 663.21875 219.140625 662.917969 220.191406 C 664.417969 219.742188 666.066406 219.441406 668.019531 219.292969 C 669.820312 218.992188 671.46875 219.140625 672.96875 219.441406 C 675.972656 220.191406 677.171875 222.140625 676.421875 225.292969 C 676.273438 226.042969 675.972656 226.640625 675.519531 227.242188 C 675.070312 227.691406 674.621094 228.140625 674.019531 228.59375 C 673.421875 228.890625 672.820312 229.191406 672.21875 229.34375 C 671.621094 229.492188 670.871094 229.792969 670.269531 229.941406 C 668.617188 230.394531 667.117188 230.691406 665.46875 230.84375 C 663.816406 230.992188 662.167969 231.292969 660.515625 231.441406 C 660.367188 231.742188 660.214844 232.191406 659.914062 232.644531 C 659.765625 233.09375 659.617188 233.394531 659.464844 233.84375 C 659.316406 234.441406 659.164062 235.191406 659.164062 235.792969 C 659.164062 236.394531 659.015625 237.144531 659.015625 237.742188 C 659.617188 237.742188 660.515625 237.59375 661.714844 237.445312 C 662.917969 237.292969 664.265625 237.144531 665.617188 237.144531 C 666.96875 236.992188 668.320312 236.992188 669.519531 236.992188 C 670.71875 236.992188 671.621094 236.992188 672.21875 237.144531 C 672.820312 237.292969 673.421875 237.59375 673.871094 238.042969 C 674.320312 238.492188 674.769531 238.945312 675.070312 239.542969 C 675.371094 240.144531 675.519531 240.742188 675.671875 241.492188 C 675.371094 241.792969 675.371094 242.542969 675.222656 243.144531 Z M 675.222656 243.144531 " fill-opacity="1" fill-rule="nonzero"/><path fill="#ffffff" d="M 708.082031 259.046875 C 707.632812 259.945312 707.183594 260.847656 706.433594 262.046875 C 705.683594 263.097656 704.933594 264.144531 704.03125 265.046875 C 703.132812 265.945312 702.230469 266.546875 701.179688 266.996094 C 700.128906 267.445312 699.078125 267.296875 698.03125 266.847656 C 696.527344 266.097656 695.628906 265.046875 695.480469 263.546875 C 695.328125 262.046875 695.328125 260.394531 695.777344 258.746094 C 696.230469 256.945312 696.679688 255.296875 697.429688 253.644531 C 698.179688 251.996094 698.628906 250.644531 699.078125 249.59375 C 695.929688 248.695312 692.925781 247.792969 689.925781 246.894531 C 689.476562 247.792969 688.726562 248.996094 687.824219 250.34375 C 686.925781 251.695312 685.875 252.894531 684.675781 253.945312 C 683.472656 254.996094 682.273438 255.894531 680.921875 256.34375 C 679.574219 256.945312 678.371094 256.945312 677.023438 256.34375 C 676.121094 255.894531 675.519531 255.144531 675.222656 254.09375 C 675.070312 253.046875 675.070312 251.996094 675.222656 250.792969 C 675.371094 249.59375 675.671875 248.542969 676.121094 247.34375 C 676.570312 246.292969 676.871094 245.246094 677.320312 244.644531 C 678.371094 242.242188 679.722656 239.992188 681.074219 237.742188 C 682.574219 235.644531 684.074219 233.394531 685.574219 231.292969 C 686.324219 230.242188 687.375 228.890625 688.425781 227.390625 C 689.625 225.890625 690.828125 224.390625 692.175781 223.042969 C 693.527344 221.542969 695.027344 220.191406 696.527344 218.839844 C 698.03125 217.492188 699.679688 216.441406 701.332031 215.539062 C 702.980469 214.640625 704.632812 214.039062 706.28125 213.890625 C 707.933594 213.589844 709.582031 213.890625 711.085938 214.640625 C 712.585938 215.390625 713.785156 216.292969 714.535156 217.640625 C 715.285156 218.839844 715.886719 220.339844 716.1875 221.839844 C 716.484375 223.492188 716.636719 225.140625 716.484375 226.941406 C 716.335938 228.742188 716.1875 230.394531 715.886719 232.191406 C 715.585938 233.992188 715.136719 235.644531 714.835938 237.144531 C 714.386719 238.792969 714.085938 240.144531 713.785156 241.34375 C 713.035156 244.34375 712.285156 247.34375 711.382812 250.34375 C 710.484375 253.34375 709.433594 256.195312 708.082031 259.046875 Z M 703.429688 238.042969 C 703.730469 237.59375 704.03125 236.691406 704.480469 235.492188 C 704.933594 234.292969 705.382812 233.09375 705.683594 231.742188 C 705.984375 230.542969 706.132812 229.34375 706.132812 228.140625 C 706.132812 227.09375 705.683594 226.34375 705.082031 225.890625 C 704.632812 225.742188 704.183594 225.742188 703.582031 226.191406 C 702.980469 226.640625 702.230469 227.09375 701.628906 227.84375 C 701.03125 228.59375 700.28125 229.492188 699.53125 230.394531 C 698.78125 231.292969 698.179688 232.34375 697.578125 233.242188 C 696.980469 234.144531 696.527344 234.894531 696.078125 235.644531 C 695.628906 236.394531 695.328125 236.992188 695.179688 237.292969 C 697.730469 238.195312 700.28125 239.09375 702.679688 239.695312 Z M 703.429688 238.042969 " fill-opacity="1" fill-rule="nonzero"/><path fill="#ffffff" d="M 736.441406 281.398438 C 735.691406 282.296875 734.792969 282.898438 733.441406 283.199219 C 732.09375 283.5 730.589844 283.5 728.941406 283.347656 C 727.289062 283.199219 725.640625 282.75 723.839844 282.148438 C 722.039062 281.546875 720.386719 280.949219 718.738281 280.199219 C 717.085938 279.449219 715.585938 278.699219 714.234375 277.949219 C 712.886719 277.199219 711.835938 276.597656 711.085938 275.996094 C 710.332031 275.546875 709.734375 274.796875 709.132812 274.199219 C 708.535156 273.449219 708.082031 272.699219 707.78125 271.796875 C 707.632812 271.347656 707.78125 270.597656 708.082031 269.695312 C 708.382812 268.796875 708.832031 267.597656 709.433594 266.398438 C 710.035156 265.195312 710.632812 263.847656 711.535156 262.496094 C 712.285156 261.144531 713.035156 259.796875 713.785156 258.597656 C 714.535156 257.246094 715.285156 256.195312 715.886719 255.144531 C 716.484375 254.09375 717.085938 253.34375 717.535156 252.746094 C 718.136719 251.84375 719.039062 250.644531 720.085938 249.445312 C 721.136719 248.09375 722.1875 246.746094 723.390625 245.394531 C 724.589844 243.894531 725.789062 242.542969 727.140625 241.042969 C 728.492188 239.542969 729.691406 238.195312 730.890625 236.992188 C 732.09375 235.792969 733.292969 234.742188 734.492188 233.84375 C 735.691406 232.941406 736.59375 232.34375 737.492188 232.042969 C 738.84375 231.59375 740.042969 231.742188 741.09375 232.492188 C 741.84375 233.09375 742.296875 233.691406 742.296875 234.59375 C 742.445312 235.492188 742.296875 236.394531 742.144531 237.445312 C 741.84375 238.492188 741.394531 239.542969 740.945312 240.742188 C 740.34375 241.945312 739.746094 242.992188 739.144531 244.042969 C 738.542969 245.09375 737.945312 245.996094 737.34375 246.894531 C 736.742188 247.792969 736.292969 248.394531 735.992188 248.84375 C 733.890625 251.84375 731.792969 254.695312 729.539062 257.394531 C 727.289062 260.246094 725.1875 263.097656 723.089844 265.945312 L 721.589844 268.195312 C 723.539062 268.945312 725.640625 269.695312 727.890625 270.746094 C 730.140625 271.648438 732.09375 272.847656 733.742188 274.199219 C 734.34375 274.648438 734.941406 275.097656 735.542969 275.699219 C 736.144531 276.296875 736.59375 276.898438 736.894531 277.496094 C 737.195312 278.097656 737.34375 278.699219 737.34375 279.449219 C 737.34375 279.75 737.042969 280.5 736.441406 281.398438 Z M 736.441406 281.398438 " fill-opacity="1" fill-rule="nonzero"/><path fill="#ffffff" d="M 779.960938 274.046875 C 779.207031 274.796875 778.160156 275.246094 776.808594 275.246094 C 775.609375 275.246094 774.257812 275.097656 772.90625 274.648438 C 771.554688 274.199219 770.207031 273.746094 769.003906 273.148438 C 767.804688 272.546875 766.753906 271.945312 766.152344 271.496094 C 763.453125 273.746094 760.753906 275.996094 758.203125 278.398438 C 755.648438 280.796875 753.097656 283.199219 750.546875 285.75 C 749.199219 287.097656 747.996094 288.449219 746.648438 289.800781 C 745.445312 291.148438 744.097656 292.5 742.894531 293.851562 C 742.296875 294.449219 741.546875 295.050781 740.796875 295.648438 C 740.042969 296.25 739.144531 296.699219 738.242188 297 C 737.34375 297.300781 736.441406 297.449219 735.542969 297.449219 C 734.644531 297.449219 733.890625 297 733.292969 296.25 C 732.542969 295.351562 732.09375 294.449219 732.09375 293.398438 C 732.09375 292.347656 732.242188 291.449219 732.691406 290.398438 C 733.140625 289.5 733.59375 288.449219 734.34375 287.699219 C 734.941406 286.800781 735.691406 286.046875 736.292969 285.449219 C 738.242188 283.347656 740.042969 281.398438 741.996094 279.449219 C 743.945312 277.496094 745.898438 275.398438 747.847656 273.449219 C 749.496094 271.796875 751.148438 270.148438 752.648438 268.496094 C 754.300781 266.847656 755.949219 265.347656 757.601562 263.546875 C 757.152344 263.097656 756.550781 262.796875 756.101562 262.347656 C 755.648438 261.894531 755.199219 261.445312 754.75 260.996094 C 754.449219 260.546875 754 260.097656 753.398438 259.347656 C 752.949219 258.59375 752.5 257.84375 752.050781 257.09375 C 751.75 256.34375 751.597656 255.445312 751.449219 254.695312 C 751.449219 253.945312 751.75 253.195312 752.347656 252.59375 C 753.25 251.546875 754.601562 251.09375 755.949219 251.246094 C 757.449219 251.246094 758.953125 251.695312 760.601562 252.296875 C 762.253906 252.894531 763.902344 253.796875 765.703125 254.996094 C 767.503906 256.046875 769.15625 257.246094 770.65625 258.445312 C 772.15625 259.644531 773.507812 260.847656 774.855469 261.894531 C 776.058594 262.945312 776.957031 263.847656 777.558594 264.597656 C 778.160156 265.195312 778.757812 265.945312 779.359375 266.695312 C 779.957031 267.445312 780.410156 268.195312 780.859375 269.097656 C 781.160156 269.996094 781.308594 270.746094 781.308594 271.648438 C 781.160156 272.398438 780.710938 273.148438 779.960938 274.046875 Z M 779.960938 274.046875 " fill-opacity="1" fill-rule="nonzero"/><path fill="#ffffff" d="M 791.8125 312 C 788.511719 313.953125 785.210938 315.753906 781.910156 317.402344 C 778.457031 319.203125 775.15625 320.851562 771.707031 322.503906 C 771.105469 322.804688 770.207031 323.253906 769.304688 323.703125 C 768.253906 324.304688 767.203125 324.753906 766.003906 325.351562 C 764.804688 325.953125 763.453125 326.402344 762.253906 326.851562 C 760.902344 327.304688 759.703125 327.601562 758.5 327.753906 C 757.300781 327.902344 756.25 327.753906 755.351562 327.453125 C 754.449219 327.152344 753.699219 326.554688 753.097656 325.503906 C 752.648438 324.601562 752.5 323.851562 752.5 322.953125 C 752.5 322.054688 752.648438 321.300781 753.097656 320.550781 C 753.398438 319.800781 753.847656 319.050781 754.449219 318.453125 C 755.050781 317.851562 755.800781 317.253906 756.550781 316.800781 C 757.902344 316.050781 759.101562 315.300781 760.601562 314.703125 C 761.953125 314.101562 763.304688 313.351562 764.652344 312.75 L 760.902344 307.050781 C 759.851562 307.5 758.5 308.101562 757 308.703125 C 755.5 309.453125 754 309.902344 752.5 310.203125 C 751 310.5 749.496094 310.5 748.148438 310.203125 C 746.796875 309.902344 745.746094 309 744.996094 307.5 C 744.546875 306.601562 744.394531 305.699219 744.394531 304.800781 C 744.546875 303.902344 744.847656 303.152344 745.296875 302.402344 C 745.746094 301.652344 746.347656 301.050781 747.097656 300.300781 C 747.847656 299.699219 748.449219 299.101562 749.199219 298.800781 C 751.597656 297.449219 754 296.25 756.402344 295.050781 C 758.800781 293.851562 761.351562 292.648438 763.753906 291.449219 C 766.304688 290.097656 768.855469 288.75 771.257812 287.25 C 773.808594 285.75 776.207031 284.398438 778.910156 283.046875 C 779.808594 282.597656 780.710938 282.148438 781.910156 281.546875 C 782.960938 280.949219 784.160156 280.5 785.210938 280.199219 C 786.261719 279.898438 787.3125 279.898438 788.363281 280.199219 C 789.414062 280.5 790.164062 281.25 790.761719 282.449219 C 791.664062 284.25 791.964844 285.75 791.511719 287.097656 C 791.0625 288.449219 790.3125 289.800781 789.113281 290.847656 C 787.910156 292.050781 786.710938 292.949219 785.210938 293.851562 C 783.710938 294.75 782.359375 295.5 781.160156 296.101562 C 779.507812 297 778.007812 297.898438 776.507812 298.648438 C 775.007812 299.398438 773.355469 300.300781 771.855469 301.050781 L 776.207031 307.050781 C 778.160156 306 780.109375 304.949219 782.058594 303.902344 C 784.011719 302.851562 785.960938 301.800781 787.910156 300.902344 C 788.8125 300.449219 789.863281 299.851562 790.914062 299.398438 C 791.964844 298.800781 793.011719 298.5 794.0625 298.199219 C 795.113281 298.050781 796.015625 298.050781 796.914062 298.351562 C 797.816406 298.648438 798.566406 299.550781 799.316406 300.902344 C 799.917969 302.101562 800.066406 303.152344 799.765625 304.199219 C 799.464844 305.25 799.015625 306.300781 798.265625 307.199219 C 797.515625 308.101562 796.765625 309 795.863281 309.75 C 794.964844 310.5 794.0625 311.101562 793.164062 311.550781 Z M 791.8125 312 " fill-opacity="1" fill-rule="nonzero"/><path fill="#ffffff" d="M 657.066406 505.671875 C 650.914062 504.621094 649.261719 514.222656 655.414062 515.273438 C 661.714844 516.324219 663.21875 506.722656 657.066406 505.671875 Z M 657.066406 505.671875 " fill-opacity="1" fill-rule="evenodd"/><path fill="#ffffff" d="M 415.777344 525.625 C 409.625 524.574219 407.976562 534.175781 414.128906 535.226562 C 420.429688 536.125 421.929688 526.675781 415.777344 525.625 Z M 415.777344 525.625 " fill-opacity="1" fill-rule="evenodd"/><path fill="#ffffff" d="M 626.152344 282.148438 C 620 281.097656 618.351562 290.699219 624.503906 291.75 C 630.804688 292.648438 632.304688 283.199219 626.152344 282.148438 Z M 626.152344 282.148438 " fill-opacity="1" fill-rule="evenodd"/><path fill="#ffffff" d="M 531.621094 333.453125 C 525.46875 332.402344 523.816406 342.003906 529.96875 343.054688 C 536.269531 343.957031 537.921875 334.355469 531.621094 333.453125 Z M 531.621094 333.453125 " fill-opacity="1" fill-rule="evenodd"/><path fill="#ffffff" d="M 306.386719 288.449219 C 300.238281 287.398438 298.585938 297 304.738281 298.050781 C 311.039062 298.949219 312.691406 289.347656 306.386719 288.449219 Z M 306.386719 288.449219 " fill-opacity="1" fill-rule="evenodd"/><path fill="#ffffff" d="M 699.980469 333.453125 C 693.828125 332.402344 692.175781 342.003906 698.328125 343.054688 C 704.632812 343.957031 706.132812 334.355469 699.980469 333.453125 Z M 699.980469 333.453125 " fill-opacity="1" fill-rule="evenodd"/><path fill="#ffffff" d="M 570.332031 558.777344 C 564.179688 557.730469 562.53125 567.328125 568.683594 568.378906 C 574.984375 569.429688 576.484375 559.828125 570.332031 558.777344 Z M 570.332031 558.777344 " fill-opacity="1" fill-rule="evenodd"/><path fill="#ffffff" d="M 406.175781 252.59375 C 400.023438 251.546875 398.371094 261.144531 404.523438 262.195312 C 410.675781 263.246094 412.328125 253.644531 406.175781 252.59375 Z M 406.175781 252.59375 " fill-opacity="1" fill-rule="evenodd"/><path fill="#ffffff" d="M 786.710938 370.957031 C 788.8125 364.359375 778.910156 359.855469 776.65625 366.609375 C 771.257812 383.710938 764.503906 400.960938 754.898438 416.261719 C 751.148438 422.113281 759.550781 429.164062 763.304688 423.164062 C 773.507812 406.960938 781.007812 389.109375 786.710938 370.957031 Z M 786.710938 370.957031 " fill-opacity="1" fill-rule="evenodd"/><path fill="#ffffff" d="M 749.046875 435.464844 C 746.347656 434.265625 743.347656 435.464844 741.996094 438.015625 C 741.695312 438.464844 741.394531 438.765625 740.945312 439.066406 C 738.996094 441.316406 739.445312 444.917969 741.695312 446.714844 C 742.746094 447.617188 744.246094 448.066406 745.746094 447.917969 C 747.246094 447.765625 748.296875 447.015625 749.347656 445.964844 C 750.25 444.917969 751.148438 443.867188 751.75 442.667969 C 753.097656 439.964844 751.75 436.515625 749.046875 435.464844 Z M 749.046875 435.464844 " fill-opacity="1" fill-rule="evenodd"/><path fill="#ffffff" d="M 267.824219 388.808594 C 270.675781 395.261719 281.03125 391.960938 278.328125 385.660156 C 271.125 369.15625 264.824219 351.757812 262.121094 333.902344 C 261.074219 327.003906 250.117188 327.304688 251.167969 334.203125 C 254.019531 353.105469 260.171875 371.410156 267.824219 388.808594 Z M 267.824219 388.808594 " fill-opacity="1" fill-rule="evenodd"/><path fill="#ffffff" d="M 253.871094 315.601562 C 256.71875 314.703125 258.222656 311.851562 257.472656 309 C 257.472656 308.550781 257.472656 307.953125 257.472656 307.5 C 257.621094 304.5 254.621094 302.101562 251.769531 302.25 C 250.269531 302.25 248.917969 303 247.867188 304.050781 C 246.816406 305.101562 246.515625 306.449219 246.367188 307.953125 C 246.367188 309.300781 246.367188 310.652344 246.816406 312 C 247.867188 314.851562 251.019531 316.351562 253.871094 315.601562 Z M 253.871094 315.601562 " fill-opacity="1" fill-rule="evenodd"/><path fill="#ffffff" d="M 558.628906 607.683594 C 563.882812 603.183594 557.878906 594.03125 552.476562 598.683594 C 538.820312 610.382812 523.96875 621.335938 507.609375 629.285156 C 501.308594 632.285156 504.761719 642.636719 511.0625 639.636719 C 528.46875 631.238281 544.074219 620.136719 558.628906 607.683594 Z M 558.628906 607.683594 " fill-opacity="1" fill-rule="evenodd"/><path fill="#ffffff" d="M 492.457031 642.339844 C 490.804688 639.9375 487.652344 639.339844 485.101562 640.6875 C 484.652344 640.839844 484.203125 640.988281 483.601562 641.136719 C 480.75 641.886719 479.25 645.339844 480.152344 648.039062 C 480.601562 649.390625 481.652344 650.589844 483.003906 651.1875 C 484.351562 651.789062 485.703125 651.789062 487.054688 651.488281 C 488.402344 651.039062 489.605469 650.738281 490.804688 649.988281 C 493.507812 648.339844 494.105469 644.738281 492.457031 642.339844 Z M 492.457031 642.339844 " fill-opacity="1" fill-rule="evenodd"/><path fill="#ffffff" d="M 152.28125 469.820312 C 151.234375 468.769531 148.980469 454.066406 147.03125 454.21875 C 145.082031 454.367188 143.28125 468.917969 142.378906 469.820312 C 140.578125 471.769531 126.925781 473.121094 127.074219 474.917969 C 127.222656 476.71875 140.578125 477.621094 142.378906 479.421875 C 143.429688 480.46875 145.679688 495.171875 147.632812 495.023438 C 149.582031 494.871094 151.234375 480.320312 152.28125 479.421875 C 154.082031 477.621094 167.738281 476.121094 167.589844 474.320312 C 167.589844 472.519531 154.082031 471.621094 152.28125 469.820312 Z M 152.28125 469.820312 " fill-opacity="1" fill-rule="nonzero"/><path fill="#ffffff" d="M 584.136719 288.300781 C 583.089844 287.25 580.835938 272.546875 578.886719 272.699219 C 576.9375 272.847656 575.136719 287.398438 574.234375 288.300781 C 572.433594 290.25 558.78125 291.597656 558.929688 293.398438 C 559.078125 295.199219 572.433594 296.101562 574.234375 297.898438 C 575.285156 298.949219 577.535156 313.652344 579.488281 313.5 C 581.4375 313.351562 583.089844 298.800781 584.136719 297.898438 C 585.9375 296.101562 599.59375 294.601562 599.445312 292.800781 C 599.292969 291 585.9375 290.097656 584.136719 288.300781 Z M 584.136719 288.300781 " fill-opacity="1" fill-rule="nonzero"/><path fill="#ffffff" d="M 365.058594 457.96875 C 364.007812 456.917969 361.757812 442.214844 359.808594 442.367188 C 357.855469 442.515625 356.054688 457.066406 355.15625 457.96875 C 353.355469 459.917969 339.699219 461.269531 339.851562 463.070312 C 340 464.867188 353.207031 465.769531 355.15625 467.570312 C 356.207031 468.617188 358.457031 483.320312 360.40625 483.171875 C 362.359375 483.019531 364.007812 468.46875 365.058594 467.570312 C 366.859375 465.769531 380.515625 464.269531 380.363281 462.46875 C 380.363281 460.667969 366.859375 459.769531 365.058594 457.96875 Z M 365.058594 457.96875 " fill-opacity="1" fill-rule="nonzero"/><path fill="#3e5385" d="M 255.820312 500.722656 C 254.769531 499.671875 252.519531 484.972656 250.570312 485.121094 C 248.617188 485.269531 246.816406 499.824219 245.917969 500.722656 C 244.117188 502.671875 230.460938 504.023438 230.609375 505.824219 C 230.761719 507.625 244.117188 508.523438 245.917969 510.324219 C 246.96875 511.375 249.21875 526.074219 251.167969 525.925781 C 253.121094 525.773438 254.769531 511.222656 255.820312 510.324219 C 257.621094 508.523438 271.277344 507.023438 271.125 505.222656 C 270.976562 503.421875 257.621094 502.523438 255.820312 500.722656 Z M 255.820312 500.722656 " fill-opacity="1" fill-rule="nonzero"/><path fill="#3e5385" d="M 344.800781 346.355469 C 343.753906 345.304688 341.5 330.605469 339.550781 330.753906 C 337.601562 330.902344 335.800781 345.457031 334.898438 346.355469 C 333.097656 348.304688 319.441406 349.65625 319.59375 351.457031 C 319.742188 353.257812 332.949219 354.15625 334.898438 355.957031 C 335.949219 357.007812 338.199219 371.707031 340.152344 371.558594 C 342.101562 371.410156 343.753906 356.855469 344.800781 355.957031 C 346.601562 354.15625 360.257812 352.65625 360.109375 350.855469 C 360.109375 349.054688 346.753906 348.15625 344.800781 346.355469 Z M 344.800781 346.355469 " fill-opacity="1" fill-rule="nonzero"/><path fill="#3e5385" d="M 721.589844 387.609375 C 720.539062 386.558594 718.285156 371.859375 716.335938 372.007812 C 714.386719 372.160156 712.585938 386.710938 711.683594 387.609375 C 709.882812 389.558594 696.230469 390.910156 696.378906 392.710938 C 696.527344 394.511719 709.734375 395.410156 711.683594 397.210938 C 712.734375 398.261719 714.984375 412.960938 716.9375 412.8125 C 718.886719 412.664062 720.539062 398.109375 721.589844 397.210938 C 723.390625 395.410156 737.042969 393.910156 736.894531 392.109375 C 736.894531 390.308594 723.539062 389.410156 721.589844 387.609375 Z M 721.589844 387.609375 " fill-opacity="1" fill-rule="nonzero"/><path fill="#3e5385" d="M 458.394531 578.132812 C 457.34375 577.082031 455.09375 562.378906 453.140625 562.53125 C 451.191406 562.679688 449.390625 577.230469 448.488281 578.132812 C 446.6875 580.082031 433.035156 581.429688 433.183594 583.230469 C 433.335938 585.03125 446.539062 585.933594 448.488281 587.730469 C 449.539062 588.78125 451.789062 603.484375 453.742188 603.332031 C 455.691406 603.183594 457.34375 588.632812 458.394531 587.730469 C 460.195312 585.933594 473.847656 584.433594 473.699219 582.632812 C 473.699219 580.832031 460.195312 579.78125 458.394531 578.132812 Z M 458.394531 578.132812 " fill-opacity="1" fill-rule="nonzero"/><path fill="#3e5385" d="M 218.605469 387.460938 C 217.554688 386.410156 215.304688 371.707031 213.355469 371.859375 C 211.40625 372.007812 209.605469 386.558594 208.703125 387.460938 C 206.902344 389.410156 193.398438 390.761719 193.398438 392.710938 C 193.546875 394.511719 206.753906 395.410156 208.703125 397.210938 C 209.753906 398.261719 212.003906 412.960938 213.957031 412.8125 C 215.90625 412.664062 217.554688 398.109375 218.605469 397.210938 C 220.40625 395.410156 234.0625 393.910156 233.914062 391.960938 C 233.914062 390.160156 220.40625 389.261719 218.605469 387.460938 Z M 218.605469 387.460938 " fill-opacity="1" fill-rule="nonzero"/><path fill="#ffffff" d="M 247.265625 449.867188 C 242.015625 449.867188 242.015625 457.96875 247.265625 457.96875 C 252.371094 457.96875 252.371094 449.867188 247.265625 449.867188 Z M 247.265625 449.867188 " fill-opacity="1" fill-rule="evenodd"/><path fill="#ffffff" d="M 190.398438 431.414062 C 185.144531 431.414062 185.144531 439.515625 190.398438 439.515625 C 195.648438 439.515625 195.648438 431.414062 190.398438 431.414062 Z M 190.398438 431.414062 " fill-opacity="1" fill-rule="evenodd"/><path fill="#ffffff" d="M 294.085938 525.023438 C 288.832031 525.023438 288.832031 533.125 294.085938 533.125 C 299.335938 533.125 299.335938 525.023438 294.085938 525.023438 Z M 294.085938 525.023438 " fill-opacity="1" fill-rule="evenodd"/><path fill="#ffffff" d="M 116.421875 525.023438 C 111.167969 525.023438 111.167969 533.125 116.421875 533.125 C 121.523438 533.125 121.523438 525.023438 116.421875 525.023438 Z M 116.421875 525.023438 " fill-opacity="1" fill-rule="evenodd"/><path fill="#ffffff" d="M 193.398438 511.824219 C 188.144531 511.824219 188.144531 519.925781 193.398438 519.925781 C 198.648438 519.925781 198.648438 511.824219 193.398438 511.824219 Z M 193.398438 511.824219 " fill-opacity="1" fill-rule="evenodd"/><path fill="#efd44e" d="M 310.738281 590.433594 C 306.238281 563.28125 280.578125 544.675781 252.96875 548.429688 C 243.367188 549.777344 234.664062 553.679688 227.609375 559.378906 C 217.554688 546.027344 200.902344 538.375 183.195312 540.925781 C 164.289062 543.476562 149.582031 556.980469 144.332031 573.929688 C 136.378906 570.78125 127.523438 569.730469 118.519531 570.929688 C 93.761719 574.378906 75.457031 594.78125 73.804688 618.9375 C 56.847656 624.035156 45.59375 641.136719 48.144531 659.738281 C 50.847656 679.242188 67.800781 693.042969 86.558594 691.84375 C 95.5625 709.246094 114.769531 719.898438 135.175781 717.046875 C 147.03125 715.394531 157.085938 709.546875 164.4375 701.292969 C 174.492188 713.746094 190.695312 720.796875 207.804688 718.398438 C 225.210938 715.996094 239.164062 704.296875 245.316406 689.144531 C 253.570312 696.042969 264.375 699.644531 275.777344 697.996094 C 293.332031 695.59375 306.539062 681.492188 309.089844 664.539062 C 312.242188 664.992188 315.542969 664.992188 318.84375 664.539062 C 338.648438 661.839844 352.605469 643.089844 349.753906 622.6875 C 346.902344 603.035156 329.796875 589.082031 310.738281 590.433594 Z M 310.738281 590.433594 " fill-opacity="1" fill-rule="evenodd"/><path fill="#3e5385" d="M 264.671875 620.734375 C 263.773438 619.386719 263.171875 617.734375 262.574219 615.785156 C 260.171875 607.535156 258.070312 591.03125 245.765625 593.433594 C 236.613281 595.082031 239.015625 609.933594 239.914062 616.085938 C 240.363281 619.085938 241.414062 623.886719 240.664062 626.886719 C 239.914062 629.738281 235.714844 630.1875 233.164062 628.988281 C 230.3125 627.636719 229.710938 622.234375 229.410156 619.535156 C 228.359375 611.136719 228.210938 602.882812 230.613281 594.484375 C 233.011719 586.382812 242.464844 582.179688 250.117188 583.082031 C 258.671875 583.980469 264.671875 590.582031 267.824219 598.382812 C 269.175781 601.535156 276.976562 620.734375 270.375 622.386719 C 267.523438 623.136719 265.875 622.386719 264.671875 620.734375 Z M 264.671875 620.734375 " fill-opacity="1" fill-rule="nonzero"/><path fill="#3e5385" d="M 162.785156 641.738281 C 161.886719 640.539062 161.285156 638.738281 160.6875 636.789062 C 158.285156 628.535156 156.183594 612.183594 143.878906 614.433594 C 134.726562 616.085938 137.128906 630.9375 137.878906 637.085938 C 138.328125 640.089844 139.378906 644.886719 138.628906 647.890625 C 137.878906 650.738281 133.675781 651.1875 131.125 649.988281 C 128.273438 648.640625 127.675781 643.238281 127.375 640.539062 C 126.324219 632.136719 126.171875 623.886719 128.574219 615.484375 C 130.976562 607.382812 140.429688 603.183594 148.082031 604.085938 C 156.632812 604.984375 162.636719 611.585938 165.789062 619.386719 C 167.136719 622.535156 175.089844 641.738281 168.339844 643.386719 C 165.636719 644.136719 163.988281 643.386719 162.785156 641.738281 Z M 162.785156 641.738281 " fill-opacity="1" fill-rule="nonzero"/><path fill="#3e5385" d="M 225.210938 655.390625 C 226.710938 651.488281 228.8125 644.886719 228.660156 638.738281 C 228.359375 628.988281 220.257812 631.988281 220.257812 631.988281 C 220.257812 631.988281 207.503906 640.539062 207.503906 640.539062 L 183.195312 639.789062 C 177.191406 640.386719 173.890625 645.9375 177.042969 650.890625 C 179.292969 654.488281 182.742188 657.488281 185.59375 660.640625 C 185.59375 660.640625 225.058594 655.539062 225.210938 655.539062 Z M 225.210938 655.390625 " fill-opacity="1" fill-rule="evenodd"/><path fill="#ffffff" d="M 220.257812 631.988281 C 219.808594 634.539062 219.207031 635.585938 218.605469 636.488281 C 210.804688 646.390625 192.949219 648.039062 183.195312 639.9375 C 195.347656 637.238281 208.101562 634.539062 220.257812 631.988281 Z M 220.257812 631.988281 " fill-opacity="1" fill-rule="evenodd"/><path fill="#a40ffd" d="M 185.59375 660.789062 C 197.75 651.339844 210.953125 649.839844 225.210938 655.691406 C 222.808594 662.890625 215.457031 667.691406 205.402344 667.691406 C 198.050781 667.691406 190.996094 665.890625 185.59375 660.789062 Z M 185.59375 660.789062 " fill-opacity="1" fill-rule="evenodd"/><path fill="#ffffff" d="M 185.59375 547.679688 C 174.941406 548.726562 164.136719 554.429688 157.234375 562.679688 C 153.632812 566.878906 160.535156 572.128906 163.988281 567.78125 C 169.390625 561.179688 178.242188 556.980469 186.644531 556.078125 C 192.347656 555.628906 191.148438 547.078125 185.59375 547.679688 Z M 185.59375 547.679688 " fill-opacity="1" fill-rule="evenodd"/><path fill="#ffffff" d="M 332.199219 622.085938 C 332.796875 632.285156 327.546875 639.1875 319.742188 645.1875 C 315.390625 648.488281 320.644531 655.238281 324.996094 651.9375 C 335.5 644.136719 341.351562 634.238281 340.75 621.035156 C 340.300781 615.335938 331.898438 616.535156 332.199219 622.085938 Z M 332.199219 622.085938 " fill-opacity="1" fill-rule="evenodd"/><path fill="#ffffff" d="M 337.148438 606.035156 C 336.847656 605.132812 336.097656 604.382812 335.5 603.785156 C 334.75 603.035156 333.398438 602.882812 332.347656 603.035156 C 331.296875 603.183594 330.246094 603.785156 329.496094 604.683594 C 328.746094 605.585938 328.445312 606.785156 328.597656 607.835938 C 328.746094 608.433594 328.898438 608.882812 329.195312 609.335938 C 329.796875 611.433594 331.746094 612.785156 333.847656 612.484375 C 336.097656 612.183594 337.898438 609.933594 337.449219 607.683594 C 337.601562 607.234375 337.449219 606.632812 337.148438 606.035156 Z M 337.148438 606.035156 " fill-opacity="1" fill-rule="evenodd"/><path fill="#ffffff" d="M 145.082031 693.492188 C 136.828125 698.59375 126.472656 699.34375 117.171875 697.09375 C 111.769531 695.894531 110.71875 704.296875 116.121094 705.496094 C 127.824219 708.195312 140.277344 706.546875 150.484375 700.09375 C 154.984375 697.246094 149.730469 690.644531 145.082031 693.492188 Z M 145.082031 693.492188 " fill-opacity="1" fill-rule="evenodd"/><path fill="#ffffff" d="M 107.566406 690.792969 C 106.816406 689.894531 105.917969 689.445312 104.867188 689.292969 C 104.566406 689.144531 104.265625 688.992188 103.964844 688.84375 C 101.863281 687.792969 99.164062 689.144531 98.414062 691.242188 C 97.964844 692.292969 97.964844 693.492188 98.414062 694.542969 C 98.863281 695.59375 99.613281 696.34375 100.664062 696.792969 C 101.566406 697.246094 102.617188 697.542969 103.515625 697.695312 C 105.765625 698.144531 108.015625 696.195312 108.316406 693.945312 C 108.617188 692.742188 108.316406 691.695312 107.566406 690.792969 Z M 107.566406 690.792969 " fill-opacity="1" fill-rule="evenodd"/><path fill="#3e5385" d="M 457.941406 359.558594 C 452.542969 373.660156 446.089844 391.210938 427.78125 386.261719 C 409.027344 381.160156 413.078125 358.058594 416.078125 343.65625 C 418.179688 333.605469 402.421875 332.253906 400.324219 342.15625 C 395.519531 365.109375 396.121094 392.109375 422.082031 400.960938 C 433.785156 405.011719 445.9375 403.511719 455.242188 395.261719 C 463.945312 387.460938 468.597656 375.757812 472.648438 365.109375 C 476.398438 355.65625 461.542969 350.105469 457.941406 359.558594 Z M 457.941406 359.558594 " fill-opacity="1" fill-rule="evenodd"/><path fill="#3e5385" d="M 634.105469 399.011719 C 629.753906 413.414062 624.503906 431.414062 606.046875 427.816406 C 586.988281 424.0625 589.390625 400.8125 591.339844 386.261719 C 592.691406 376.207031 576.9375 375.910156 575.433594 385.960938 C 572.285156 409.210938 574.835938 436.066406 601.394531 443.117188 C 613.398438 446.265625 625.402344 444.015625 634.105469 435.015625 C 642.210938 426.613281 645.960938 414.613281 649.261719 403.8125 C 652.261719 393.761719 636.957031 389.261719 634.105469 399.011719 Z M 634.105469 399.011719 " fill-opacity="1" fill-rule="evenodd"/><path fill="#3e5385" d="M 454.640625 297.898438 C 444.4375 293.699219 433.484375 292.800781 422.53125 293.25 C 412.328125 293.699219 412.476562 309.453125 422.832031 309.152344 C 432.585938 308.851562 441.585938 309.601562 450.742188 313.351562 C 454.792969 315.003906 459.445312 311.402344 460.34375 307.652344 C 461.542969 303 458.695312 299.550781 454.640625 297.898438 Z M 454.640625 297.898438 " fill-opacity="1" fill-rule="evenodd"/><path fill="#3e5385" d="M 652.113281 347.707031 C 643.410156 343.804688 634.257812 341.855469 624.804688 340.355469 C 614.75 338.703125 610.699219 354.007812 620.902344 355.65625 C 628.703125 357.007812 636.957031 358.058594 644.308594 361.355469 C 653.464844 365.707031 661.417969 351.90625 652.113281 347.707031 Z M 652.113281 347.707031 " fill-opacity="1" fill-rule="evenodd"/><path fill="#3e5385" d="M 486.003906 518.425781 C 452.242188 507.921875 430.03125 474.167969 433.632812 439.066406 C 434.683594 428.414062 441.585938 425.265625 452.089844 429.464844 C 468.148438 435.914062 484.351562 442.367188 501.007812 447.316406 C 521.265625 453.46875 542.421875 452.566406 563.132812 450.917969 C 584.136719 449.265625 584.136719 459.917969 578.886719 472.96875 C 564.03125 510.625 523.816406 530.277344 486.003906 518.425781 Z M 460.644531 492.472656 C 478.199219 513.324219 514.664062 519.773438 536.722656 506.421875 C 531.167969 491.570312 520.664062 481.671875 505.210938 478.070312 C 487.953125 474.019531 472.949219 478.96875 460.644531 492.472656 Z M 460.644531 492.472656 " fill-opacity="1" fill-rule="evenodd"/><path fill="#3e5385" d="M 498.308594 423.765625 C 498.457031 423.613281 498.609375 423.464844 498.757812 423.3125 C 500.707031 421.964844 504.007812 422.714844 506.109375 423.164062 C 510.613281 423.914062 515.113281 424.664062 519.464844 422.5625 C 523.214844 420.765625 525.765625 417.761719 526.667969 413.714844 C 528.019531 407.710938 524.265625 404.410156 519.164062 402.160156 C 516.613281 401.113281 504.609375 398.5625 506.5625 394.0625 C 507.761719 391.359375 516.015625 392.859375 518.265625 393.609375 C 523.816406 395.410156 529.367188 398.410156 532.671875 403.511719 C 538.070312 411.914062 534.921875 422.863281 525.765625 428.265625 C 520.964844 431.113281 514.964844 431.863281 509.5625 430.816406 C 507.011719 430.363281 504.460938 429.765625 502.058594 428.714844 C 500.859375 428.113281 499.65625 427.515625 498.90625 426.464844 C 498.308594 425.863281 497.859375 424.515625 498.308594 423.765625 Z M 498.308594 423.765625 " fill-opacity="1" fill-rule="evenodd"/><path fill="#d853ff" d="M 460.644531 492.472656 C 472.949219 478.96875 488.105469 474.019531 505.359375 478.070312 C 520.664062 481.671875 531.167969 491.570312 536.871094 506.421875 C 514.511719 519.773438 478.050781 513.175781 460.644531 492.472656 Z M 460.644531 492.472656 " fill-opacity="1" fill-rule="evenodd"/><path fill="#a40ffd" d="M 416.976562 429.613281 C 414.277344 437.867188 402.875 441.765625 391.46875 438.015625 C 380.066406 434.414062 372.863281 424.664062 375.5625 416.261719 C 378.265625 408.011719 389.667969 404.113281 401.074219 407.863281 C 412.476562 411.613281 419.679688 421.214844 416.976562 429.613281 Z M 416.976562 429.613281 " fill-opacity="1" fill-rule="nonzero"/><path fill="#a40ffd" d="M 639.957031 478.21875 C 638.609375 486.769531 627.804688 492.320312 615.949219 490.371094 C 604.097656 488.421875 595.542969 480.019531 596.894531 471.320312 C 598.242188 462.769531 609.046875 457.21875 620.902344 459.167969 C 632.757812 461.117188 641.308594 469.519531 639.957031 478.21875 Z M 639.957031 478.21875 " fill-opacity="1" fill-rule="nonzero"/></svg>